<?xml version="1.0" encoding="utf-8"?>
<!-- Generator: Adobe Illustrator 21.1.0, SVG Export Plug-In . SVG Version: 6.00 Build 0)  -->
<svg version="1.1" id="Layer_1" xmlns="http://www.w3.org/2000/svg" xmlns:xlink="http://www.w3.org/1999/xlink" x="0px" y="0px"
	 viewBox="0 0 300 300" style="enable-background:new 0 0 300 300;" xml:space="preserve">
<style type="text/css">
	.st0{fill:#9DAAD3;}
	.st1{fill:#561136;}
	.st2{fill:#151F34;}
	.st3{fill:#E69376;}
	.st4{fill:#1A2652;}
	.st5{fill:#F6A382;}
	.st6{fill:#E0856E;}
	.st7{fill:#1E2732;}
	.st8{fill:#6651A1;}
	.st9{fill:#161F29;}
	.st10{fill:#2C3C70;}
	.st11{fill:#F79F7D;}
	.st12{fill:#E98A6F;}
	.st13{fill:#3B2314;}
	.st14{fill:#FFFFFF;}
	.st15{enable-background:new    ;}
	.st16{fill:#0092C5;}
	.st17{fill:#3DAEE3;}
	.st18{fill:#80BAE5;}
	.st19{fill:#7C284B;}
	.st20{fill:#A0426E;}
	.st21{fill:#CB4E7E;}
	.st22{fill:#17181C;}
	.st23{fill:#104473;}
	.st24{fill:#065098;}
	.st25{fill:#862952;}
	.st26{fill:#260F00;}
	.st27{fill:#394572;}
	.st28{fill:#424887;}
	.st29{fill:#5760AA;}
	.st30{fill:#6174B7;}
	.st31{fill:#053B6B;}
	.st32{fill:#007FA2;}
	.st33{fill:#030308;}
	.st34{fill:#30528A;}
	.st35{fill:#FFD37C;}
	.st36{fill:#3F1900;}
	.st37{fill:#004E88;}
	.st38{fill:#0061A2;}
	.st39{fill:#196EAA;}
	.st40{fill:#4F1531;}
	.st41{fill:#00468A;}
	.st42{fill:#0058A8;}
	.st43{fill:#340E07;}
	.st44{fill:#F3B68E;}
	.st45{fill:#F7B68D;}
	.st46{fill:#DC9D7E;}
	.st47{fill:#E6E7E8;}
	.st48{fill:#7EC68C;}
	.st49{fill:#F28CB5;}
	.st50{fill:#97C3E8;}
	.st51{fill:#A3DDF5;}
	.st52{fill:none;stroke:#699ED4;stroke-width:12.4726;stroke-miterlimit:10;}
	.st53{fill:none;stroke:#699ED4;stroke-width:13.462;stroke-miterlimit:10;}
</style>
<g>
	<g>
		<g>
			<g>
				<path class="st0" d="M175.8,181.9l-44.3-20l-34.6,25.1l18.4,8.3c-0.4,0.4-1.1,0.8-1.2,0.9c-0.6,0.3-1.5,0.6-2.3,0.7
					c-1.5,0.3-3.4,0.3-4.5,1.1c-1.7,1.2-0.4,3.5,3,5.1c0.1,0,0.2,0.1,0.3,0.1c3.6,1.6,8,1.9,9.7,0.6c1.4-1,0.3-2.7,1.2-3.9
					c0.1-0.1,0.8-0.8,1.4-1.2l18.3,8.3l14.3-10.4c-0.1,0-0.1-0.1-0.2-0.1c-0.7-0.3-1.7-0.7-1.9-0.7c-2.1-0.5-5,0.1-6.9-0.7
					c-2.3-1.1-1.8-3.5,1-5.5c2.8-2,6.9-2.9,9.2-1.8c1.4,0.7,1.4,1.7,1.9,2.6c0.3,0.5,0.7,0.9,1.3,1.3c0.1,0,0.3,0.2,0.6,0.3
					c0.3,0.1,0.6,0.3,0.9,0.4L175.8,181.9z"/>
			</g>
			<path class="st0" d="M128.8,252.2c-1.1-0.8-3-0.8-4.6-1.1c-0.8-0.2-1.6-0.4-2.3-0.7c-0.1-0.1-0.8-0.5-1.3-0.9l18.7-8.4
				l-14.5-10.5c0.1,0,0.1-0.1,0.2-0.1c0.7-0.3,1.7-0.7,1.9-0.8c2.2-0.5,5.1,0.1,7-0.8c2.2-1.1,1.8-3.6-1.1-5.6
				c-2.9-2.1-7-2.9-9.4-1.8c-1.4,0.7-1.3,1.7-1.9,2.6c-0.3,0.5-0.7,0.9-1.3,1.3c-0.1,0-0.3,0.2-0.7,0.3c-0.3,0.1-0.6,0.3-0.9,0.4
				l-14.6-10.6l-45,20.4l35.1,25.5l18.6-8.4c0.6,0.4,1.4,1.1,1.5,1.2c0.9,1.2-0.3,2.9,1.2,4c1.8,1.3,6.2,1,9.9-0.6
				c0.1,0,0.2-0.1,0.3-0.1C129.1,255.8,130.5,253.5,128.8,252.2z"/>
			<g>
				<path class="st0" d="M163.6,204.7l18.6-8.4c0.6,0.4,1.4,1.1,1.5,1.2c0.9,1.2-0.3,2.9,1.2,4c1.8,1.3,6.2,1,9.9-0.6
					c0.1,0,0.2-0.1,0.3-0.1c3.4-1.6,4.8-4,3.1-5.2c-1.1-0.8-3-0.8-4.6-1.1c-0.8-0.2-1.6-0.4-2.3-0.7c-0.1-0.1-0.8-0.5-1.3-0.9
					l18.7-8.4l35.1,25.5l-45.1,20.4l-14.5-10.5c0.1,0,0.1-0.1,0.2-0.1c0.7-0.3,1.8-0.7,1.9-0.8c2.2-0.5,5.1,0.1,7-0.7
					c2.3-1.1,1.8-3.6-1-5.6c-2.9-2.1-7-2.9-9.3-1.9c-1.4,0.7-1.4,1.8-1.9,2.6c-0.3,0.5-0.7,0.9-1.3,1.3c-0.1,0-0.3,0.2-0.7,0.3
					c-0.3,0.1-0.6,0.3-0.9,0.4L163.6,204.7z"/>
			</g>
			<g>
				<g>
					<path class="st0" d="M223.7,260.1l-18.3-8.3c-0.6,0.4-1.4,1.1-1.4,1.2c-0.9,1.2,0.2,2.9-1.2,3.9c-1.8,1.3-6.1,1-9.7-0.6
						c-0.1,0-0.2-0.1-0.3-0.1c-3.4-1.6-4.7-3.9-3-5.1c1.1-0.8,3-0.7,4.5-1.1c0.8-0.2,1.6-0.4,2.3-0.7c0.1-0.1,0.8-0.5,1.2-0.9
						l-18.4-8.3L165,250.4c-0.3-0.1-0.6-0.2-0.9-0.4c-0.3-0.2-0.6-0.3-0.6-0.3c-0.6-0.4-1-0.8-1.3-1.3c-0.5-0.9-0.5-1.9-1.8-2.6
						c-2.3-1.1-6.5-0.2-9.3,1.8c-2.8,2-3.2,4.5-1.1,5.5c1.9,0.9,4.8,0.3,6.9,0.8c0.2,0,1.2,0.4,1.9,0.7c0.1,0,0.1,0.1,0.2,0.1
						l-14.3,10.4l44.3,20L223.7,260.1z"/>
				</g>
			</g>
		</g>
	</g>
	<g>
		<g>
			<ellipse class="st0" cx="94.1" cy="178.1" rx="25.3" ry="12.1"/>
			<g>
				<g>
					<polygon class="st1" points="100.9,177.3 101.3,177.2 101.7,173.4 100.6,172 					"/>
					<g>
						<polygon class="st2" points="100.4,177 100.9,177.3 100.8,171.1 99.9,170.9 						"/>
						<g>
							<path class="st3" d="M104.2,169.2l0.9,3.3c0,0,1.3,3.2,2.3,4.4c0,0,1.9,2.8-1.6,2.6c0,0-3.7-0.2-3.7-2.8c0-2.2-1.8-5-1.8-5
								c-0.7-1.3,0-2.4,0.2-2.7l0.6-0.8l3.1-0.6L104.2,169.2z"/>
							<path class="st2" d="M107.7,178c-1.5,0.3-3.1-0.3-4.1-1.3c-1-1-2.1-4.8-1.7-3.5c0.2,0.5-1-4.1-0.7-4.8l-0.6,0.8
								c-0.2,0.3-1,1.4-0.3,2.7c0,0,2,2.7,1.9,4.9c-0.1,2.6,3.7,2.8,3.7,2.8c2.1,0.1,2.3-0.8,2.1-1.6
								C107.8,177.9,107.7,178,107.7,178z"/>
							<path class="st2" d="M109.4,179.1c0,0,0.5,1.1-1.1,1.1c0,0-6.3-0.4-6.3-3.3l0-2.3c0,0,0.5,3.3,4.4,3.3c0,0,1.7,0,0.8-1.2
								L109.4,179.1z"/>
						</g>
					</g>
				</g>
				<g>
					<ellipse class="st4" cx="95.1" cy="22.7" rx="4.2" ry="4.5"/>
					<path class="st5" d="M98.1,43.4h8.2c-0.4-1.3-1.1-4.6,0.1-6.9l-8.3-5.9C98.1,30.7,99.6,40.5,98.1,43.4z"/>
					<path class="st6" d="M99,37.9c0.5,1.4,1.3,2,2.6,2.5c1.4,0.5,2.8,0.6,4.2,0.3c-0.1-1.4-0.1-2.9,0.6-4.1l-8.3-5.9
						c0,0,0.5,3,0.6,6.2C98.8,37.2,98.9,37.5,99,37.9z"/>
					<path class="st5" d="M108,38.6l0.4-1.3l1.1-3.9c0.1-0.6,0.2-1.5,0-2.1c-0.2-0.7-0.4-1.9-0.2-3.3c0.7-3.6-0.8-5.4-0.8-5.4
						c-1.9-3.3-6.5-3.3-6.5-3.3c-5.6,0.3-6.1,6.2-6.1,6.2c-0.9,3.9,2,7.2,2,7.2c0.4,0.4,0.4,1.1,0.6,1.6c0.2,0.5,0.5,1,0.8,1.5
						c0.8,1,1.8,1.9,2.9,2.5c1,0.6,3,1.1,4.4,1.1C107.2,39.3,107.7,39.4,108,38.6z"/>
					<g>
						<polygon class="st1" points="81.6,178 82,178 83.6,174.6 82.9,172.9 						"/>
						<g>
							<polygon class="st2" points="81.2,177.5 81.6,178 83.4,172.1 82.6,171.6 							"/>
							<g>
								<path class="st5" d="M87.2,171.5c-0.1,2.7-0.3,5.8,0.8,8.4c0,0,1,3.3-2.3,1.9c0,0-3.5-1.5-2.7-3.9c0.7-2.1-0.3-5.4-0.3-5.4
									c-0.3-1.5,0.7-2.2,1-2.4l0.9-0.5h3.3L87.2,171.5z"/>
								<path class="st2" d="M87.8,181c-1.6-0.2-2.9-1.4-3.5-2.7c-0.6-1.3-0.5-5.3-0.6-4c0,0.5,0.3-4.2,0.8-4.8l-0.9,0.5
									c-0.3,0.2-1.4,1-1.1,2.5c0,0,1.1,3.2,0.3,5.3c-0.8,2.4,2.7,3.9,2.7,3.9c2,0.8,2.4,0,2.4-0.8C88,181,87.9,181,87.8,181z"/>
								<path class="st2" d="M89.2,182.6c0,0,0.2,1.2-1.4,0.6c0,0-5.8-2.6-5-5.3l0.7-2.2c0,0-0.5,3.3,3.1,4.7c0,0,1.6,0.6,1.1-0.8
									L89.2,182.6z"/>
							</g>
						</g>
					</g>
					<path class="st5" d="M90.8,130.6c-4.2,8.3-4.9,11.7-5.7,18c-0.4,3.7-0.3,19.1-0.7,21.4c-0.2,1,3.2,0.4,3.2,0.4
						c0.6-1.6,10.4-37.1,10.4-37.1s1.1-3.7,0.2-4.3C93.6,125.8,92.6,127,90.8,130.6z"/>
					<path class="st7" d="M87.7,171.1c0.6-1.6,10.3-37.8,10.3-37.8s1.1-3.7,0.2-4.3c-4.6-3.2-5.6-2-7.4,1.6
						c-4.2,8.3-4.9,11.7-5.7,18c-0.4,3.7-1.1,18.6-1.6,20.9C83.6,169.4,86.1,172.6,87.7,171.1z"/>
					<path class="st7" d="M109.5,70.6c0,0,3.2,14.6,2.8,16.2c-1.2,4.6-12.8,11-23.3,1.6c0,0,2.4-10.8,7.4-19.9
						C96.5,68.5,98.3,70.6,109.5,70.6z"/>
					<path class="st8" d="M107.9,41c0,0,4.2,8.7,6.1,13.5c-0.8,5.6-3.6,13.9-4.8,15.7c-2.5,3.8-13.9,0.4-13.9,0.4L92,58.8
						c9.6-3.7,4.6-14.6,4.6-14.6l1.5-1c0,0,1.5,5.4,7.8,5.2c0,0,2.1-1.4,0.5-7.5C106.4,40.8,107.3,40.8,107.9,41z"/>
					<path class="st3" d="M97.5,90.8c0,0,1.1,23.6,5.2,36.2c0.6,1.9,7.5-0.6,7.5-0.6s3.5-20.3,3.3-28.7c-0.1-4.7-1.7-15-1.7-15
						S98.7,80.9,97.5,90.8z"/>
					<path class="st3" d="M102.8,126.9l7.3-0.5c0,0-4.5,40.2-4.9,41.9c0,0-3.2,1.2-3.1,0.3c0.2-2.3-2.5-20.4-2.6-24.1
						C99.5,138.5,99.7,134.7,102.8,126.9z"/>
					<path class="st9" d="M97.5,90.8c0,0,1.1,23.6,5.2,36.2c0.6,1.9,7.5-0.6,7.5-0.6s3.5-20.3,3.3-28.7c-0.1-4.7-1.7-15-1.7-15
						S98.7,80.9,97.5,90.8z"/>
					<path class="st9" d="M106.1,168.5c0.7-1.6,4-42.1,4-42.1l-7.3,0.5c-3.1,7.8-3.4,11.6-3.2,17.5c0.1,3.7,1.7,21.7,1.6,24.1
						C101.2,168.5,105.2,170.5,106.1,168.5z"/>
					<g>
						<g>
							<path class="st3" d="M121.2,69.6l-5.6-21.7c-2-5.8-5-5.9-5-5.9c-5.7,0.9-2.1,11.7-2.1,11.7l7.1,18"/>
						</g>
						<g>
							<g>
								<path class="st3" d="M137.3,85.7c-2.4-1.9-2.6-2.4-2.9-3.2c-1.6-3.3,2.4-2.6,3.4-2.2c0.6,0.2,0.4,1.7,1.9,3.8
									c0,0,2.6,2.2,3.3,2.2c0,0,0.7,0.2,0.6,0.8C143.6,87.1,141.5,88.1,137.3,85.7z"/>
							</g>
							<g>
								<g>
									<path class="st3" d="M117.5,67.1"/>
								</g>
								<g>
									<path class="st3" d="M120.7,68.3L137,81.5c0.4,2.4-0.6,2.6-0.6,2.6l-13.1-6.4c-5.6-2.6-7.6-5.6-7.6-5.6s-2.3-2.3,1.4-4.6
										C117.1,67.4,118.8,66.4,120.7,68.3z"/>
								</g>
							</g>
							<path class="st3" d="M137.3,80.2c0,0-0.7,1.5,1.1,1.4l2-1.2c0,0,0.6-0.2,0.5-0.8c0,0-0.2-0.4-0.8-0.1L137.3,80.2z"/>
						</g>
					</g>
					<path class="st5" d="M88.5,92.7c0,0,0.1,23.6,3,36.6c0.4,1.9,7,1.3,7,1.3s4.3-22.3,4.9-30.7c0.3-4.7,1.2-13,1.2-13
						S89.1,85.3,88.5,92.7z"/>
					<path class="st5" d="M91.7,47c-3.4,2.6-1.6,6.6-1.6,6.6l6.4,16.6c0,0,10.3,3.8,12.8-0.1c1.1-1.8,2.2-6.4,3.6-13.1
						c0.9-4.6,1-12.5-1.4-14.9c-1.4-1.4-5.8-1.3-5.9-1.5l-7.2,2.5L91.7,47z"/>
					<path class="st5" d="M105.3,68.9c0.6-0.1,3.9,1.3,3.9,1.3s2.4,10.9,2.5,12.5c0.1,1.7-10.5,10.2-22.3,5.3c0,0,6-15.1,6.8-18.3
						C97.3,66.1,105.3,68.9,105.3,68.9z"/>
					<path class="st8" d="M111.1,47.7c0,0,3.5,4.4,3.8,7.7c0.2,1.8-2,4.9-3.1,6C111,62.2,106.5,50.7,111.1,47.7z"/>
					<path class="st7" d="M92.3,84.5c0,0-4.2,1-3.8,9.2c0.4,8,14,9.7,15.7,1.6C106.1,86.6,99.8,81.5,92.3,84.5z"/>
					<path class="st10" d="M98.6,34.9c0-2.8,0-2.6,0-2.6c0.1-0.8,1.5,0.9,1.5-0.1c-0.1-4.8,1.5-7.1,2.1-7.5c1.7-1,3.6-1.3,5-1
						c2.3,0.4,2.2,3.7,2.2,3.7c1.9-11.9-10.4-8.1-10.4-8.1c-6,1.7-5.4,7.8-5.4,7.8c-0.7,6.5,5,10.3,5,10.3L98.6,34.9z"/>
					<g>
						<g>
							<g>
								<g>
									<g>
										<g>
											<path class="st11" d="M99,34c-0.2,0.2-0.5,0.3-0.8,0.3c-0.9,0-1.6-0.9-1.6-2c0-1.1,0.7-1.9,1.5-1.9
												c0.4,0,0.8,0.2,1.1,0.5c0.4,0.5,0.4,1.3,0.3,1.9C99.4,33.3,99.3,33.7,99,34z"/>
										</g>
									</g>
								</g>
							</g>
						</g>
						<g>
							<g>
								<path class="st12" d="M98.5,31.4c-0.1-0.6-1.1,0-0.9,0.3c0.1,0.2,0.3,0.3,0.4,0.4c0.2,0.2,0.3,0.3,0.3,0.6c0,0,0,0.1,0,0.2
									c-0.1,0.1-0.6-0.4-0.7-0.6c-0.2-0.2-0.2-0.6-0.1-0.9c0.1-0.3,0.3-0.4,0.6-0.4C98.2,31,98.5,31,98.5,31.4
									C98.5,31.4,98.5,31.4,98.5,31.4L98.5,31.4z"/>
							</g>
							<g>
								<path class="st12" d="M98.1,32c0.1-0.1,0.2,0,0.3,0.1c0.1,0.1,0.2,0.2,0.2,0.3c0.1,0.3,0,0.7-0.1,0.9
									c-0.1,0.2-0.3,0.3-0.6,0.3c-0.3,0-0.4-0.3-0.4-0.6c0-0.1,0-0.3,0.1-0.3c0.1-0.1,0.1,0.1,0.2,0.1c0.1,0.1,0.2,0.1,0.3,0.1
									c0.2,0,0.4-0.1,0.5-0.2c0,0,0-0.1,0-0.1c0,0.2,0,0.2,0,0.1c0,0,0-0.1-0.1-0.1c-0.1-0.1-0.2-0.2-0.3-0.3
									C98.1,32.2,98.1,32,98.1,32L98.1,32z"/>
							</g>
						</g>
					</g>
					<g>
						<path class="st13" d="M104,29.9c0,0.3-0.1,0.6-0.3,0.6c-0.2,0-0.4-0.2-0.4-0.6c0-0.3,0.1-0.6,0.3-0.6
							C103.7,29.3,103.9,29.5,104,29.9z"/>
						
							<ellipse transform="matrix(0.9992 -3.964631e-02 3.964631e-02 0.9992 -1.0749 4.302)" class="st13" cx="107.9" cy="29.3" rx="0.4" ry="0.6"/>
						<path class="st10" d="M102.1,29.4c0.8-0.9,2.7-0.8,2.7-0.8s0.1,0,0.1-0.4c0,0,0-0.4-0.3-0.3C104.6,27.8,102.2,27.6,102.1,29.4
							z"/>
						<path class="st10" d="M109.4,27.6c-0.9-0.7-2.4-0.2-2.4-0.2c-0.3,0-0.2,0.4-0.2,0.4c0.1,0.4,0.2,0.4,0.2,0.4s1.3-0.4,2.3-0.2
							C109.3,28,109.4,27.8,109.4,27.6z"/>
						<g>
							<path class="st14" d="M107.8,34.1l-3.1,0.6c-0.2,0-0.2,0.1-0.1,0.2c0,0,0.9,1,1.9,0.8c1-0.2,1.5-1.4,1.5-1.4
								C108,34.2,107.9,34.1,107.8,34.1z"/>
						</g>
						<path class="st12" d="M105.5,33.1c1.6-0.1,1.7-0.6,1.7-0.6l-0.9-1.8C106.4,30.7,106.6,32.5,105.5,33.1z"/>
					</g>
					<path class="st7" d="M88.5,92.7c0,0,0.1,23.6,3,36.6c0.4,1.9,7,1.3,7,1.3s4.3-22.3,4.9-30.7c0.3-4.7,1.2-13,1.2-13
						S89.1,85.3,88.5,92.7z"/>
					<path class="st7" d="M109.5,70.6c0,0,3.2,14.6,2.8,16.2c-1.2,4.6-12.8,11-23.3,1.6c0,0,2.4-10.8,7.4-19.9
						C96.5,68.5,98.3,70.6,109.5,70.6z"/>
					<path class="st8" d="M95.3,70.6c0,0,11.7,3.9,14.2,0c1.1-1.8,3.7-10.5,4.4-16.2c-1.9-4.8-6.1-13.5-6.1-13.5
						c-0.6-0.2-1.5-0.2-1.5-0.2c1.5,6.1-0.5,7.5-0.5,7.5c-6.3,0.2-7.8-5.2-7.8-5.2l-1.5,1c0,0,4.7,10.4-4.3,15.2
						C92.2,59.3,92,70.5,95.3,70.6z"/>
					<ellipse class="st14" cx="98.5" cy="34.2" rx="0.5" ry="0.6"/>
					<g>
						<path class="st5" d="M96.7,48.5c1.8,2.1,1.7,5.4-0.2,7.3c-1.9,2-8,5.7-8.1,2.8c-0.1-5.6,0.1-8.7,2-10.7
							C92.4,46.1,94.9,46.4,96.7,48.5z"/>
						<path class="st5" d="M96.9,53.3l-4.2-2.6l-4.2,2.9c0,0-2.5,17-1.6,20.9c1,4.1,2.7,1.1,3.6,0C90.5,74.4,97.4,56.6,96.9,53.3z"
							/>
						<path class="st5" d="M87.6,76.1c0,0,7.6,5.8,14.3,9c0,0,2.2-1,1.1-2.1c-1.9-1.9-10.2-10.4-12.1-12.3
							C87.6,69.5,87.6,76.1,87.6,76.1z"/>
						<g>
							<g>
								<path class="st5" d="M105.7,88.3c-2.7-1.3-3-1.7-3.5-2.4c-2.2-2.9,1.8-3.1,2.8-3c0.6,0.1,0.7,1.6,2.7,3.2c0,0,3,1.5,3.7,1.3
									c0,0,0.7,0,0.8,0.6C112.2,88.1,110.3,89.6,105.7,88.3z"/>
							</g>
							<path class="st5" d="M104.9,82.9c0,0-1.2,1.1,0.6,1.7l2.2-0.3c0,0,0.6,0,0.7-0.6c0,0,0-0.4-0.7-0.4L104.9,82.9z"/>
						</g>
					</g>
				</g>
			</g>
		</g>
		<g class="st15">
			<path class="st16" d="M152.5,104C152.4,104,152.4,104,152.5,104c-0.1,0-0.2,0-0.3-0.1c0,0-0.1,0-0.1,0c0,0-0.1,0-0.1,0l-0.1,9.3
				l-14.3,10.4l0.1-11.1l11.9-8.6c-0.2,0-0.3,0-0.5,0.1c0,0-0.1,0-0.1,0c-0.1,0-0.1,0-0.2,0c0,0-0.1,0-0.1,0c-0.1,0-0.1,0-0.2,0
				c0,0-0.1,0-0.1,0c-0.1,0-0.2,0.1-0.3,0.1c0,0-0.1,0-0.1,0c-0.1,0-0.3,0.1-0.4,0.1c0,0,0,0-0.1,0c-0.2,0.1-0.4,0.1-0.5,0.2
				c0,0,0,0,0,0c-0.2,0.1-0.4,0.1-0.5,0.2c0,0,0,0,0,0c-0.2,0.1-0.4,0.2-0.6,0.3c0,0,0,0,0,0c-0.2,0.1-0.4,0.2-0.6,0.3c0,0,0,0,0,0
				c-0.2,0.1-0.4,0.2-0.6,0.3c0,0,0,0,0,0c-0.2,0.1-0.4,0.2-0.5,0.4c-1.6,1.1-2.4,2.4-2.4,3.5c0-3.7,0.1-7.4,0.1-11.1
				c0-1.1,0.8-2.4,2.4-3.5c0.2-0.1,0.4-0.3,0.5-0.4c0,0,0,0,0,0c0.2-0.1,0.4-0.2,0.6-0.3c0,0,0,0,0,0c0.2-0.1,0.4-0.2,0.6-0.3
				c0,0,0,0,0,0c0.2-0.1,0.4-0.2,0.6-0.3c0,0,0,0,0,0c0,0,0,0,0,0c0.2-0.1,0.3-0.1,0.5-0.2c0,0,0,0,0,0c0.2-0.1,0.3-0.1,0.5-0.2
				c0,0,0,0,0,0c0,0,0,0,0,0c0.1,0,0.3-0.1,0.4-0.1c0,0,0.1,0,0.1,0c0.1,0,0.2-0.1,0.3-0.1c0,0,0,0,0.1,0c0,0,0,0,0.1,0
				c0.1,0,0.1,0,0.2,0c0,0,0.1,0,0.1,0c0.1,0,0.1,0,0.2,0c0,0,0.1,0,0.1,0c0,0,0,0,0,0c0.2,0,0.4-0.1,0.5-0.1c0,0,0,0,0,0
				c0,0,0,0,0,0c0.2,0,0.3,0,0.5,0c0,0,0,0,0,0c0,0,0,0,0.1,0c0.1,0,0.3,0,0.4,0c0,0,0,0,0,0c0,0,0,0,0,0c0.1,0,0.3,0,0.4,0
				c0,0,0,0,0.1,0c0,0,0,0,0,0c0.1,0,0.3,0,0.4,0c0,0,0,0,0,0c0,0,0,0,0,0c0.1,0,0.3,0,0.4,0c0,0,0,0,0,0c0,0,0,0,0,0
				c0,0,0.1,0,0.1,0c0,0,0.1,0,0.1,0c0,0,0.1,0,0.1,0c0,0,0.1,0,0.1,0c0,0,0,0,0,0c0.1,0,0.2,0.1,0.3,0.1c0,0,0,0,0.1,0
				c0.1,0,0.2,0.1,0.3,0.1c0.1,0,0.2,0.1,0.2,0.1c0,0,0,0,0.1,0c0,0,0.1,0,0.1,0c0,0,0,0,0.1,0c0,0,0.1,0,0.1,0.1
				c0,0,0.1,0.1,0.1,0.1c0,0,0,0,0.1,0.1c0,0,0,0,0,0c0,0,0.1,0.1,0.1,0.1c0,0,0,0,0,0c0,0,0.1,0.1,0.1,0.1v0h0v0c0,0,0,0,0,0
				c0,0,0,0,0,0c0,0,0.1,0.1,0.1,0.1c0,0,0,0,0,0c0,0,0,0,0,0c0,0,0,0,0,0.1c0,0,0,0.1,0.1,0.1c0,0,0,0.1,0,0.1c0,0,0,0.1,0.1,0.1
				c0,0,0,0,0,0c0,0,0,0,0,0c0,0.1,0.1,0.1,0.1,0.2c0,0,0,0,0,0c0,0.1,0.1,0.2,0.1,0.3c0,0.1,0,0.1,0.1,0.2c0,0,0,0.1,0,0.1
				c0,0.1,0.1,0.1,0.1,0.2c0,0,0,0.1,0.1,0.1c0,0,0,0,0,0.1c0,0.1,0.1,0.1,0.1,0.2c0,0,0,0.1,0.1,0.1c0,0,0.1,0.1,0.1,0.1
				c0,0,0,0,0,0.1c0,0.1,0.1,0.1,0.2,0.2c0,0,0,0,0,0c0.1,0.1,0.1,0.1,0.2,0.2c0,0,0,0,0.1,0.1c0,0,0.1,0.1,0.1,0.1c0,0,0,0,0.1,0.1
				c0,0,0.1,0.1,0.2,0.1c0,0,0,0,0.1,0.1c0.1,0.1,0.2,0.1,0.2,0.2c0,0,0,0,0,0c0,0,0,0,0,0c0,0,0,0,0,0c0,0,0,0,0,0c0,0,0,0,0,0
				c0,0,0,0,0,0c0,0,0,0,0,0c0,0,0,0,0,0c0,0,0,0,0,0c0,0,0,0,0.1,0c0,0,0,0,0.1,0c0,0,0,0,0,0c0,0,0,0,0.1,0c0,0,0,0,0,0
				c0,0,0.1,0,0.1,0.1c0.3,0.1,0.6,0.3,0.9,0.4l14.3-10.4l-0.1,11.1l-14.3,10.4c-0.3-0.1-0.6-0.2-0.9-0.4c0,0-0.1,0-0.1-0.1
				c0,0,0,0,0,0c0,0-0.1,0-0.1,0c0,0,0,0,0,0c0,0,0,0-0.1,0c0,0,0,0,0,0c0,0,0,0,0,0c0,0,0,0,0,0c0,0,0,0,0,0c0,0,0,0,0,0
				c0,0,0,0,0,0c0,0,0,0,0,0c0,0,0,0,0,0c0,0,0,0,0,0c0,0,0,0,0,0c0,0,0,0,0,0c-0.1-0.1-0.2-0.1-0.2-0.2c0,0,0,0-0.1-0.1
				c-0.1,0-0.1-0.1-0.1-0.1c0,0,0,0,0,0c0,0,0,0,0,0c0,0-0.1-0.1-0.1-0.1c0,0,0,0-0.1-0.1c-0.1-0.1-0.1-0.1-0.2-0.2c0,0,0,0,0,0
				c0,0,0,0,0,0c-0.1-0.1-0.1-0.1-0.1-0.2c0,0,0,0,0-0.1c0,0-0.1-0.1-0.1-0.1c0,0,0,0,0,0c0,0,0,0,0-0.1c0-0.1-0.1-0.1-0.1-0.2
				c0,0,0-0.1,0-0.1c0,0,0-0.1,0-0.1c0,0,0,0,0,0c0-0.1-0.1-0.1-0.1-0.2c0,0,0,0,0-0.1c0-0.1-0.1-0.1-0.1-0.2c0-0.1-0.1-0.2-0.1-0.2
				c0,0,0,0,0,0c0-0.1-0.1-0.1-0.1-0.2c0,0,0,0,0-0.1c0,0,0-0.1-0.1-0.1c0,0,0-0.1,0-0.1c0,0,0-0.1-0.1-0.1c0,0,0-0.1,0-0.1
				c0,0,0,0,0-0.1c0,0,0-0.1-0.1-0.1c0,0,0,0,0-0.1c0,0-0.1-0.1-0.1-0.1c0,0,0,0,0,0c0,0-0.1-0.1-0.1-0.1c0,0,0,0-0.1-0.1
				c0,0-0.1-0.1-0.1-0.1c0,0,0,0-0.1-0.1c0,0-0.1-0.1-0.1-0.1c0,0,0,0-0.1,0c-0.1,0-0.1-0.1-0.2-0.1c-0.1,0-0.2-0.1-0.3-0.1
				c0,0,0,0-0.1,0C152.7,104.1,152.6,104.1,152.5,104z"/>
			<path class="st17" d="M93.3,103.6l0.1-11.1l18.4,8.3l-0.1,9.2c0,0,0,0,0,0c0,0,0.1,0,0.1,0c0.1,0,0.3,0,0.4,0c0,0,0,0,0,0
				c0.1,0,0.2,0,0.3,0c0,0,0.1,0,0.1,0c0.1,0,0.2,0,0.2,0c0,0,0.1,0,0.1,0c0.2,0,0.4,0,0.5,0c0,0,0,0,0.1,0c0.1,0,0.3,0,0.4,0
				c0,0,0,0,0,0c0.1,0,0.3,0,0.4,0c0,0,0.1,0,0.1,0c0.1,0,0.2,0,0.3,0c0,0,0,0,0,0c0.1,0,0.2,0,0.3-0.1c0,0,0.1,0,0.1,0
				c0.1,0,0.2-0.1,0.3-0.1c0,0,0,0,0,0c0,0,0,0,0.1,0c0.1,0,0.1,0,0.2-0.1c0,0,0.1,0,0.1,0c0,0,0.1,0,0.1-0.1c0,0,0,0,0.1,0
				c0,0,0.1,0,0.1-0.1c0,0,0,0,0.1,0c0,0,0.1,0,0.1-0.1c0,0,0,0,0.1,0c0.1,0,0.1-0.1,0.2-0.1c0.7-0.5,0.8-1.1,0.8-1.8
				c0-0.2,0-0.4,0-0.5c0-0.5,0-1.1,0.4-1.6c0.1-0.1,0.8-0.8,1.4-1.2l18.3,8.3l-0.1,11.1l-18.3-8.3c-0.6,0.4-1.4,1.1-1.4,1.2
				c-0.3,0.4-0.4,0.9-0.4,1.4c0,0.2,0,0.4,0,0.5c0,0.7-0.1,1.4-0.8,2c-0.1,0-0.1,0.1-0.2,0.1c0,0,0,0-0.1,0c0,0-0.1,0-0.1,0.1
				c0,0,0,0-0.1,0c0,0-0.1,0-0.1,0.1c0,0,0,0-0.1,0c0,0,0,0,0,0c0,0-0.1,0-0.1,0c0,0-0.1,0-0.1,0c0,0-0.1,0-0.2,0.1c0,0,0,0-0.1,0
				c0,0,0,0,0,0c0,0,0,0,0,0c-0.1,0-0.2,0.1-0.3,0.1c0,0,0,0,0,0c0,0,0,0,0,0c-0.1,0-0.2,0-0.3,0.1c0,0,0,0,0,0c0,0,0,0,0,0
				c-0.1,0-0.2,0-0.3,0c0,0,0,0,0,0c0,0,0,0,0,0c-0.1,0-0.3,0-0.4,0c0,0,0,0,0,0c0,0,0,0,0,0c-0.1,0-0.3,0-0.4,0c0,0,0,0,0,0
				c0,0,0,0,0,0c-0.2,0-0.4,0-0.5,0c0,0,0,0,0,0c0,0,0,0,0,0c-0.1,0-0.2,0-0.2,0c0,0-0.1,0-0.1,0c-0.1,0-0.2,0-0.3,0c0,0,0,0,0,0
				c0,0,0,0,0,0c-0.1,0-0.3,0-0.4,0c0,0-0.1,0-0.1,0c-0.1,0-0.3,0-0.4-0.1c0,0,0,0,0,0c0,0,0,0,0,0c-0.1,0-0.2,0-0.4-0.1
				c0,0,0,0-0.1,0c-0.1,0-0.2,0-0.3-0.1c0,0-0.1,0-0.1,0c-0.1,0-0.2,0-0.2-0.1c-0.1,0-0.1,0-0.2,0c-0.1,0-0.1,0-0.2-0.1
				c0,0,0,0-0.1,0c0,0,0,0-0.1,0c-0.2-0.1-0.4-0.1-0.6-0.2c0,0-0.1,0-0.1,0c-0.2-0.1-0.4-0.1-0.6-0.2c0,0,0,0-0.1,0
				c-0.2-0.1-0.4-0.1-0.6-0.2c0,0,0,0,0,0c-0.2-0.1-0.4-0.2-0.6-0.3c-0.1,0-0.2-0.1-0.3-0.1c-0.1-0.1-0.3-0.1-0.4-0.2
				c0,0-0.1,0-0.1-0.1c-0.1,0-0.2-0.1-0.3-0.1c0,0-0.1-0.1-0.1-0.1c-0.1,0-0.2-0.1-0.2-0.1c0,0-0.1-0.1-0.1-0.1c0,0-0.1,0-0.1-0.1
				c0,0-0.1-0.1-0.1-0.1c0,0-0.1-0.1-0.1-0.1c-0.1-0.1-0.2-0.1-0.2-0.2c0,0-0.1,0-0.1-0.1c-0.1-0.1-0.2-0.1-0.3-0.2c0,0,0,0-0.1-0.1
				c-0.1,0-0.1-0.1-0.2-0.1c0,0,0,0,0,0c-0.1-0.1-0.1-0.1-0.2-0.2c0,0-0.1-0.1-0.1-0.1c-0.1-0.1-0.2-0.2-0.2-0.3c0,0,0,0,0,0
				c-0.1-0.1-0.1-0.2-0.2-0.2c0,0,0-0.1-0.1-0.1c0,0-0.1-0.1-0.1-0.1c0,0,0,0,0,0c0,0,0,0,0-0.1c0-0.1-0.1-0.1-0.1-0.2
				c0,0,0,0,0-0.1c0,0,0,0,0,0c0-0.1-0.1-0.1-0.1-0.2c0,0,0,0,0,0c0,0,0-0.1,0-0.1c0,0,0-0.1,0-0.1c0,0,0,0,0,0c0-0.1,0-0.1,0-0.2
				c0,0,0,0,0,0c0,0,0,0,0,0c0-0.1,0-0.1,0-0.2c0,0,0,0,0,0c0-2.6,0-5.3,0.1-7.9L93.3,103.6z"/>
			<g>
				<path class="st18" d="M172.3,87.4l-44.3-20L93.4,92.5l18.4,8.3c-0.4,0.4-1.1,0.8-1.2,0.9c-0.6,0.3-1.5,0.6-2.3,0.7
					c-1.5,0.3-3.4,0.3-4.5,1.1c-1.7,1.2-0.4,3.5,3,5.1c0.1,0,0.2,0.1,0.3,0.1c3.6,1.6,8,1.9,9.7,0.6c1.4-1,0.3-2.7,1.2-3.9
					c0.1-0.1,0.8-0.8,1.4-1.2l18.3,8.3l14.3-10.4c-0.1,0-0.1-0.1-0.2-0.1c-0.7-0.3-1.7-0.7-1.9-0.7c-2.1-0.5-5,0.1-6.9-0.7
					c-2.3-1.1-1.8-3.5,1-5.5c2.8-2,6.9-2.9,9.2-1.8c1.4,0.7,1.4,1.7,1.9,2.6c0.3,0.5,0.7,0.9,1.3,1.3c0.1,0,0.3,0.2,0.6,0.3
					c0.3,0.1,0.6,0.3,0.9,0.4L172.3,87.4z"/>
			</g>
		</g>
		<g class="st15">
			<g>
				<path class="st19" d="M131.7,132.6C131.7,132.6,131.7,132.6,131.7,132.6c0,0.1,0,0.1,0,0.2c0,0,0,0,0,0.1c0,0,0,0.1,0,0.1
					c0,0,0,0.1,0,0.1c0,0,0,0,0,0.1c0,0,0,0.1,0,0.1c0,0,0,0,0,0.1c0,0,0,0,0,0c0,0.1-0.1,0.2-0.1,0.2c0,0,0,0,0,0
					c0,0.1-0.1,0.1-0.1,0.2c0,0,0,0,0,0c0,0.1-0.1,0.1-0.1,0.2c0,0,0,0,0,0.1c0,0,0,0,0,0.1c0,0,0,0-0.1,0.1c0,0,0,0-0.1,0.1
					c0,0,0,0-0.1,0c0,0-0.1,0.1-0.1,0.1c0,0,0,0-0.1,0c0,0-0.1,0.1-0.1,0.1c0,0,0,0-0.1,0c0,0-0.1,0-0.1,0.1c0,0,0,0-0.1,0
					c-0.1,0-0.1,0.1-0.2,0.1c-0.2,0.1-0.5,0.2-0.7,0.3c-0.2,0.1-0.4,0.1-0.6,0.1c-0.2,0-0.4,0.1-0.6,0.1c-0.3,0-0.6,0-0.9,0.1
					c-0.7,0-1.4,0-2.1,0c-0.3,0-0.6,0-0.9,0.1l0.1,11.3c0.3,0,0.6,0,0.9-0.1c0.7,0,1.4,0,2.1,0c0.3,0,0.6,0,0.9-0.1
					c0.2,0,0.4,0,0.6-0.1c0.2,0,0.4-0.1,0.6-0.1c0.3-0.1,0.5-0.2,0.7-0.3c0.1,0,0.1-0.1,0.2-0.1c0,0,0,0,0,0c0,0,0.1,0,0.1-0.1
					c0,0,0,0,0,0c0,0,0,0,0,0c0,0,0.1-0.1,0.1-0.1c0,0,0,0,0.1,0c0,0,0.1-0.1,0.1-0.1c0,0,0,0,0,0c0,0,0,0,0,0c0,0,0,0,0.1-0.1
					c0,0,0,0,0.1-0.1c0,0,0,0,0.1-0.1c0,0,0,0,0,0c0,0,0,0,0,0c0.1-0.1,0.1-0.1,0.1-0.2c0,0,0,0,0,0c0,0,0,0,0,0
					c0-0.1,0.1-0.1,0.1-0.2l0,0c0,0,0,0,0,0c0-0.1,0.1-0.2,0.1-0.2c0,0,0,0,0,0c0,0,0,0,0,0c0,0,0,0,0-0.1c0,0,0,0,0-0.1
					c0,0,0,0,0-0.1c0,0,0,0,0-0.1c0,0,0,0,0,0c0,0,0-0.1,0-0.1c0,0,0,0,0-0.1c0,0,0-0.1,0-0.1c0,0,0,0,0,0c0,0,0,0,0,0L131.7,132.6z
					"/>
				<path class="st19" d="M123.3,135.3C123.3,135.3,123.3,135.3,123.3,135.3c-0.2,0.1-1.2,0.4-1.9,0.8c-0.1,0-0.1,0.1-0.2,0.1
					l0.1,11.3c0.1,0,0.1-0.1,0.2-0.1c0.7-0.3,1.7-0.7,1.9-0.8c0,0,0,0,0,0c0.2,0,0.3-0.1,0.5-0.1c0.2,0,0.4-0.1,0.6-0.1l-0.1-11.3
					c-0.2,0-0.4,0-0.6,0.1C123.6,135.3,123.4,135.3,123.3,135.3z"/>
			</g>
			<path class="st20" d="M135.8,158l-0.1-11.3l-18.7,8.4l0.1,9.4c-2.2,0.3-4.1,0.1-5.2-0.7c-0.7-0.5-0.8-1.2-0.8-1.8
				c0-0.2,0-0.4,0-0.6c0-0.6,0-1.1-0.4-1.6c-0.1-0.1-0.8-0.8-1.5-1.2l-18.6,8.4l0.1,11.3l18.6-8.4c0.6,0.4,1.4,1.1,1.5,1.2
				c0.3,0.4,0.4,0.9,0.4,1.4c0,0.2,0,0.4,0,0.6c0,0.7,0.1,1.5,0.8,2c1.8,1.3,6.2,1,9.9-0.6c0.1,0,0.2-0.1,0.3-0.1
				c2.4-1.2,3.8-2.7,3.8-3.9c0-2.7,0-5.3-0.1-8L135.8,158z"/>
			<path class="st19" d="M130.3,134.6l0.1,11.3c-1.9,0.9-4.9,0.3-7.1,0.8c-0.2,0-1.2,0.4-1.9,0.8c-0.1,0-0.1,0.1-0.2,0.1l-0.1-11.3
				c0.1,0,0.1-0.1,0.2-0.1c0.7-0.3,1.7-0.7,1.9-0.8C125.4,134.8,128.4,135.4,130.3,134.6z"/>
			<polygon class="st19" points="90.7,167.1 55.5,141.6 55.6,152.9 90.8,178.4 			"/>
			<path class="st21" d="M125.2,157.8c-1.1-0.8-3-0.8-4.6-1.1c-0.8-0.2-1.6-0.4-2.3-0.7c-0.1-0.1-0.8-0.5-1.3-0.9l18.7-8.4
				l-14.5-10.5c0.1,0,0.1-0.1,0.2-0.1c0.7-0.3,1.7-0.7,1.9-0.8c2.2-0.5,5.1,0.1,7-0.8c2.2-1.1,1.8-3.6-1.1-5.6
				c-2.9-2.1-7-2.9-9.4-1.8c-1.4,0.7-1.3,1.7-1.9,2.6c-0.3,0.5-0.7,0.9-1.3,1.3c-0.1,0-0.3,0.2-0.7,0.3c-0.3,0.1-0.6,0.3-0.9,0.4
				l-14.6-10.6l-45.1,20.4l35.1,25.5l18.6-8.4c0.6,0.4,1.4,1.1,1.5,1.2c0.9,1.2-0.3,2.9,1.2,4c1.8,1.3,6.2,1,9.9-0.6
				c0.1,0,0.2-0.1,0.3-0.1C125.6,161.4,127,159.1,125.2,157.8z"/>
		</g>
		<g>
			<ellipse class="st0" cx="243.9" cy="201" rx="25.3" ry="12.1"/>
			<g>
				<g>
					<g>
						<path class="st22" d="M235.4,198.3c-1.8,1.9-4.7,3-4.7,3c-2.5,0.7-3.9-1.1-3.9-1.1c-0.5-0.8,0.1-1.2,0.1-1.2
							c5.2-4.3,6.8-5.5,6.8-5.5h4.8c0.2,2.1,0.1,2.9,0.1,2.9c-0.4,0.6-1.3,1.5-2.6,1.7c-0.1,0-0.3-0.1-0.4-0.1L235.4,198.3z"/>
					</g>
					<path d="M226.8,198.9c0,0.1,0.1,0.2,0.1,0.4c0.4,0.9,1.5,1.3,2.4,1.3c1.1,0,2.1-0.6,3-1.1c0.9-0.5,1.7-1.1,2.5-1.8
						c0.5-0.5,1.2-0.7,1.9-1c0.7-0.3,1.3-0.9,1.9-1.4c0,0.6,0,1,0,1c-0.4,0.6-1.3,1.5-2.6,1.7c-0.1,0-0.3-0.1-0.4-0.1l-0.1,0.3
						c-1.8,1.9-4.7,3-4.7,3c-2.5,0.7-3.9-1.1-3.9-1.1C226.2,199.4,226.7,199,226.8,198.9z"/>
				</g>
				<g>
					<path class="st3" d="M238.9,151.5c-5.3,6.3-7.5-0.4-7.5-0.4l-0.7-39c-0.1,0.6-0.2-3.9,6.5-3c6.7,1,8.4,3.8,8.4,3.8
						S242,139.9,238.9,151.5"/>
					<path class="st3" d="M231.4,150.6c0,0,2.7,41.1,2.9,42.5c0,0,3.3,0.8,3.3,0c0-2,3.8-26,3.9-29.1c0.1-7.8-1.8-9.3-3.6-14.6
						C237.9,149.4,231.4,144.3,231.4,150.6z"/>
				</g>
				<g>
					<g>
						<path class="st23" d="M240.5,153c3.1-11.6,5.2-40,5.2-40s-1.7-2.8-8.4-3.8c-6.8-1-6.6,3.5-6.5,3c0,0-2,21.2-0.2,40.4
							C230.6,152.5,236.4,155.8,240.5,153z"/>
					</g>
				</g>
				<path class="st5" d="M250.8,91.2c1,3.7,4.9,17.6,4.9,17.6c-14.1,18.1-24.7,2.3-24.9,0.6c-0.2-2,1.9-9.5,2.3-17.7
					C233,91.7,236.9,85.3,250.8,91.2z"/>
				<path class="st23" d="M230.9,113.9c-0.7-4.9,0.7-9.8,1.4-14.7h20.7c1.3,4.7,2.7,9.6,2.7,9.6s0.9,11.2-8,12.5
					C247.7,121.3,232.3,124.2,230.9,113.9z"/>
				<g>
					<path class="st5" d="M254.4,152.3c-4.4,7.1-7.4,0.8-7.4,0.8l-7.2-38c0,0.6,0.2-5,7-5.1c6.8-0.1,8.9,2.4,8.9,2.4
						S255.8,140.4,254.4,152.3"/>
					<path class="st5" d="M246.8,152.7c0,0,7.1,43.3,7.5,44.7c0,0,3.4,0.3,3.3-0.6c-0.2-2,0.4-29.3,0-32.3c-1-7.8-2-9.1-4.5-14
						C253.1,150.5,245.9,146.4,246.8,152.7z"/>
				</g>
				<g>
					<path class="st22" d="M254,196.5l-2,6.5c0,0,0.4,5.9,4.8,2.2l1.3-1.4c0.7-0.6,0.5-1.4,0.5-1.4l-0.4-2.5l-0.5-3.5
						C257.7,196.5,255,194.5,254,196.5z"/>
					<path d="M256.8,204.5l1.3-1.4c0.3-0.2,0.4-0.5,0.4-0.7l0,0.1c0,0,0.2,0.8-0.5,1.4l-1.3,1.4c-4.4,3.6-4.8-2.2-4.8-2.2l0.1-0.3
						C252.3,204.2,253.3,207.4,256.8,204.5z"/>
				</g>
				<g>
					<g>
						<path class="st2" d="M255.3,152.5"/>
						<path class="st24" d="M246,154.2c-2.5-7.8-7.2-40.3-7.2-40.3c0,0.6,1.4-7.8,8.2-7.9c6.8-0.1,8.6,2.7,8.6,2.7
							s2.1,31.8,0.7,43.7C256.3,152.5,251.5,158.4,246,154.2z"/>
					</g>
				</g>
				<path class="st3" d="M234.1,66.2c0,0-11.5,14.6-17.3,19.4c0,0-3.9-1.5-3.7-4.3c0,0,8.4-13.4,13.8-21.4
					C226.8,59.9,234,57.7,234.1,66.2z"/>
				<path class="st3" d="M214.7,80c0,0-12.6,7.9-17.8,10.5c0,0-0.9,1.6,0.6,1.7c2.5,0.2,20.1-6.1,20.5-7.6
					C220,77.7,214.7,80,214.7,80z"/>
				<path class="st3" d="M226.3,64.6c0.9,2.6,3.6,3.9,6,3c2.4-1,3.6-3.8,2.7-6.4c-0.9-2.6-3.6-3.9-6-3
					C226.6,59.1,225.4,62,226.3,64.6z"/>
				<path class="st25" d="M232,57.8c0,0-4.1-1.6-6.9,2.8L215,76.3c0,0,2.1,5,7,7.7C222,84,240,66.2,232,57.8z"/>
				<path class="st5" d="M254.5,156"/>
				<path class="st11" d="M243.7,52.6c0,0,0.8-1.7,2.7-5c0,0,3.9-4.3,1.7-9.7c0,0-1.2-4.5-8.6-3.9C239.5,34,238.8,46.4,243.7,52.6z"
					/>
				<path class="st5" d="M244,45.5c0,0-1.2,12.4,1.4,13.3l-9.4-0.6c0,0,1.5-3.7-0.2-6.5L244,45.5z"/>
				<path class="st6" d="M236.5,56.1c0.2-2.8-0.2-3.4-0.8-4.3l8.3-6.2c0,0-0.4,4-0.3,7.6C241.3,55.6,239.3,56.2,236.5,56.1z"/>
				<path class="st5" d="M229.3,57.8c-2.1,1.6-2.3,5.6-1.6,8c0.9,2.8,1.2,6.4,2.1,10.5c1.2,5.5,2,9.8,3.3,15.3
					c1.1,4.5,18.1,0.9,18.1,0.9l6.1-22.4c0,0,1-5.8-3.9-7.8c0,0-5.2-3-9-4.4c-3.4-1.2-4.6-1.3-8-1.1
					C236.3,56.9,231.7,57.1,229.3,57.8z"/>
				<path class="st26" d="M232.3,34.9c-0.5,2.4-1,3.6-0.4,5.8c0.6,2,0.4,4,1.2,5.9c1.1,2.7,2.6,2.4,3.7-0.1c1.2-2.6,2.4-6-0.2-7.9
					C235,37.4,234.4,35.3,232.3,34.9L232.3,34.9z"/>
				<path class="st11" d="M233.8,53.5l-0.4-1.4c0,0-1-5.2-1-5.2c-0.1-0.7-0.1-1.5,0.1-2.2c0.2-0.7,0.3-1.4,0.2-2.2
					c-0.6-3.7,1.3-5.7,1.3-5.7c2.2-3.3,6.9-3,6.9-3c5.8,0.6,6,6.7,6,6.7c0.8,4.1-2.4,7.3-2.4,7.3c-0.3,0.3-0.2,1.6-0.3,2
					c-0.4,1.6-1.9,2.5-3.2,3.1c-1.4,0.7-3.2,1.4-4.7,1.5C235.7,54.5,234,54.3,233.8,53.5z"/>
				<path class="st26" d="M232.5,46.8c0.8,0.7,1.8,0.4,2.6,0.9c0.5,0.4,0.8,0.3,1.4,0.1c0.5-0.1,0.8-0.1,1.3,0
					c0.5,0.2,1.4,0.6,1.8,0.8c0.7,0.3,1.5,0.2,2.1-0.5c0.6-0.8,0.8-0.9,1.1-1.8c0.5-1.7,2.1-1.8,3.2-0.8c-0.7,1.5-1.6,2.4-1.6,2.4
					c-0.3,0.3-0.2,2.7-0.3,3.1c-0.4,1.6-1.9,2.5-3.2,3.1c-1.4,0.7-3.6,0.8-5.2,0.8c-0.6,0-1.8-0.7-2-1.5l-0.4-1.4c0,0-1-5.2-1-5.2
					c0-0.1,0-0.2,0-0.3C232.4,46.7,232.5,46.8,232.5,46.8z"/>
				<path class="st26" d="M232.4,37.1c1.3,0,1.3,1.2,2.3,1.9c2.2,1.4,5.5-0.7,7.3,1.6c0.2,0.2,0.3,0.4,0.4,0.7
					c0.5,1,0.7,2.3,0.8,3.4c0,0.3-0.2,1.2,0.1,1.5c0.2,0.1,0.4,0.1,0.8,0c0.1,0.5-0.3,0.9-0.5,1.4c-0.2,0.5-0.4,0.9-0.2,1.4
					c0.6,1.2,0.1,1,0.2,3.5c0.4-0.6,1.3-1.3,1.6-1.6c0.8-0.8,1.7-1.7,2.3-2.7c0.6-1,1-2.1,1.4-3.2c0.6-1.8,1-3.8,0.5-5.7
					c0,0-0.4-4.4-3.9-4.9c0,0,0.4-2.9-5.9-3.6c0,0-5,0.1-5.3-1.8c0,0-1,0.9-0.8,2.4c0,0-2,0.7-3-1.8C230.7,29.6,229,36.2,232.4,37.1
					z"/>
				<g>
					<g>
						<g>
							<g>
								<g>
									<g>
										<path class="st11" d="M243.6,49c0.2,0.2,0.4,0.4,0.7,0.4c0.8,0.2,1.6-0.6,1.8-1.8c0.2-1.1-0.3-2.2-1.1-2.3
											c-0.4-0.1-0.7,0.1-1.1,0.4c-0.4,0.4-0.6,1.3-0.6,2C243.3,48.2,243.4,48.7,243.6,49z"/>
									</g>
								</g>
							</g>
						</g>
					</g>
					<g>
						<g>
							<path class="st12" d="M244.4,46.3c0.1-0.6,1.2,0.1,1,0.4c-0.1,0.2-0.3,0.3-0.5,0.4c-0.2,0.2-0.4,0.3-0.4,0.6c0,0,0,0.1,0,0.2
								c0.1,0.1,0.7-0.4,0.8-0.5c0.2-0.2,0.3-0.6,0.2-0.9c-0.1-0.3-0.2-0.5-0.6-0.5C244.7,46,244.4,46,244.4,46.3
								C244.4,46.3,244.4,46.4,244.4,46.3L244.4,46.3z"/>
						</g>
						<g>
							<path class="st12" d="M244.7,47c-0.1-0.1-0.2-0.1-0.4,0c-0.1,0.1-0.2,0.2-0.2,0.3c-0.1,0.3-0.1,0.7,0,1
								c0.1,0.2,0.3,0.4,0.6,0.4c0.3,0,0.5-0.3,0.5-0.6c0-0.1,0-0.3,0-0.3c-0.1-0.1-0.1,0.1-0.2,0.1c-0.1,0.1-0.2,0.1-0.3,0.1
								c-0.2,0-0.4-0.1-0.5-0.3c0,0,0-0.1,0-0.1c0,0.2,0,0.2,0,0.1c0-0.1,0-0.1,0.1-0.1c0.1-0.1,0.2-0.2,0.3-0.3
								C244.7,47.3,244.8,47.1,244.7,47L244.7,47z"/>
						</g>
					</g>
				</g>
				<path class="st12" d="M235.5,46.5l1.6,0.7c0,0-2.1,0.1-2.2-0.5c0,0,0.3-1.3,0.7-2.5C235.5,44.1,235.2,46.4,235.5,46.5z"/>
				<g>
					<ellipse class="st26" cx="238.7" cy="44.1" rx="0.4" ry="0.7"/>
					<ellipse class="st26" cx="234.1" cy="43.6" rx="0.4" ry="0.7"/>
					<path class="st26" d="M237.8,42.8c-0.1,0-0.2-0.2-0.2-0.2c0-0.2,0-0.4,0-0.4c0.1-0.1,0.2-0.2,0.2-0.2c0.4-0.1,1.1,0,1.8,0.2
						c0.3,0.1,0.9,0.4,1,0.7c0,0.1,0,0.3-0.1,0.3C240.4,43.4,239.2,43,237.8,42.8z"/>
					<path class="st26" d="M232.6,42.3c0.4,0,1.2,0,2.1,0.2c0.1,0.1,0.2-0.1,0.2-0.1C235,42.2,235,42,235,42c0-0.2-0.1-0.2-0.1-0.2
						c-0.4-0.2-0.9-0.3-1.5-0.3c-0.2,0-0.5,0-0.8,0.1C232.6,41.6,232.5,41.8,232.6,42.3z"/>
				</g>
				<g>
					<path class="st14" d="M234.6,48.6c-0.1,0-0.2,0.1-0.2,0.2c0,0,0.6,1.2,1.6,1.3s1.8-0.8,1.8-0.8c0.1-0.1,0-0.2-0.2-0.2
						C237.7,49,236,48.8,234.6,48.6z"/>
				</g>
				<path class="st24" d="M254.2,104.3c0,0,3.6,6.3,0,13.3c-3.6,7-14.7,4.5-14.7-4.6C239.5,104,247.1,100.5,254.2,104.3z"/>
				<path class="st25" d="M236.3,56.9c0,0-4.6,0.2-7,0.9c-2.1,1.6-2.3,5.6-1.6,8c0.9,2.8,1.2,6.4,2.1,10.5c1.2,5.5-0.3,9.6,1,15.1
					c1.1,4.5,23.6,0,23.6,0l2.9-21.3c0,0,1-5.8-3.9-7.8c0,0-5-2.9-8.7-4.3c0,0,0.6,4.3-5.9,3.1C238.7,61.2,234.7,60.2,236.3,56.9z"
					/>
				<path class="st25" d="M254.4,91.5c1,3.7,1.7,16,1.7,16c-2.6,11.5-26.4,3.2-26.5,1.6c-0.2-2,0.6-11.4,0.9-19.6
					C230.5,89.4,240.5,85.6,254.4,91.5z"/>
				<path class="st5" d="M247.3,70.7c1.6,3.4,7.3,20.5,9.2,23.2c0.5,0.7,5.2,4,6.3-0.5c-2.6-17.8-6.6-27.9-6.6-27.9
					s-4.6-4.1-8.3-0.3C247.9,65.2,246.2,68.4,247.3,70.7z"/>
				<path class="st5" d="M246.7,67.7c-0.5,3.3,1.5,6.3,4.6,6.9c3,0.5,5.9-1.6,6.4-4.9c0.5-3.3-1.5-6.3-4.6-6.9
					C250.1,62.2,247.2,64.4,246.7,67.7z"/>
				<path class="st25" d="M252.2,61.7c0,0,4.8,1.9,5.9,6.1l3,11.4c0,0-3.9,6-9.6,5.8l-5.7-13.6C245.7,71.4,241.9,63.8,252.2,61.7z"
					/>
				<path class="st3" d="M191,94.2l1.5,0c0,0-2.7,0.7-3.6-0.2c0,0-0.2-0.1,0.1-0.5c0,0,2.4-0.1,3.4-0.4c0,0-2.4,0.6-4,0.4
					c0,0-0.7-0.5,0.1-0.9c-0.5-0.2-0.1-0.6-0.1-0.6s0.5-0.3,1.6-0.7c0,0,1.7-0.6,3.7-1.5c0,0-1.6-1.1-1-2l2.4,1.4l2.2,1.5l0.3,1.6
					l-2.3,1.7c0,0-2.2,0.9-3.4,1C191.8,95,188.3,94.8,191,94.2z"/>
				<path class="st24" d="M246,154.2l6.2,41.4c0,0,2,2.1,6.8,0l0.8-20.2c0,0,1.4-13.4-3.5-22.9C256.3,152.5,246.6,144.1,246,154.2z"
					/>
				<path class="st23" d="M240.5,153c0,0,2.6,4.1,0.3,19.5l-2.4,21c0,0-2.8,1.8-5.9,0.1l-1.9-41.8
					C230.6,151.7,232.3,144.6,240.5,153z"/>
			</g>
		</g>
		<g class="st15">
			<path class="st27" d="M195.4,102.4c0-0.5-0.2-1-0.8-1.3c-0.1-0.1-0.2-0.1-0.3-0.2c0,0-0.1,0-0.1,0c-0.1,0-0.1-0.1-0.2-0.1
				c0,0,0,0,0,0c0,0,0,0,0,0c-0.1,0-0.2-0.1-0.3-0.1c0,0,0,0,0,0c0,0,0,0,0,0c-0.1,0-0.2-0.1-0.4-0.1c0,0,0,0,0,0c0,0,0,0-0.1,0
				c-0.1,0-0.3-0.1-0.4-0.1c0,0,0,0,0,0c0,0,0,0,0,0c-0.2,0-0.3-0.1-0.5-0.1c0,0,0,0,0,0c-0.2,0-0.3,0-0.5-0.1c0,0,0,0,0,0
				c-0.1,0-0.3,0-0.4-0.1c-0.2,0-0.3,0-0.5-0.1c0,0-0.1,0-0.1,0c-0.2,0-0.3,0-0.5-0.1c-0.1,0-0.2,0-0.2,0c-0.2,0-0.3-0.1-0.5-0.1
				c0,0-0.1,0-0.1,0c-0.1,0-0.2-0.1-0.3-0.1c0,0,0,0,0,0c-0.1,0-0.2-0.1-0.3-0.1c0,0-0.1,0-0.1,0c-0.1,0-0.2-0.1-0.2-0.1
				c0,0-0.1,0-0.1,0c-0.1,0-0.2-0.1-0.2-0.1c0,0-0.1,0-0.1,0c-0.1,0-0.2-0.1-0.3-0.1c-0.1-0.1-0.8-0.5-1.3-0.9l0.1,11.3
				c0.4,0.4,1.1,0.8,1.3,0.9c0.1,0,0.2,0.1,0.3,0.1c0,0,0,0,0,0c0,0,0,0,0.1,0c0.1,0,0.2,0.1,0.2,0.1c0,0,0.1,0,0.1,0
				c0.1,0,0.2,0.1,0.2,0.1c0,0,0,0,0.1,0c0,0,0,0,0,0c0.1,0,0.2,0.1,0.3,0.1c0,0,0,0,0,0c0.1,0,0.2,0.1,0.4,0.1c0,0,0,0,0,0
				c0,0,0,0,0,0c0.2,0,0.3,0.1,0.5,0.1c0.1,0,0.1,0,0.2,0c0,0,0,0,0,0c0.1,0,0.3,0,0.5,0.1c0,0,0.1,0,0.1,0c0.2,0,0.3,0,0.5,0.1
				c0,0,0,0,0,0c0.1,0,0.2,0,0.3,0c0,0,0.1,0,0.1,0c0.2,0,0.3,0,0.5,0.1c0,0,0,0,0,0c0.2,0,0.3,0,0.5,0.1c0,0,0,0,0,0
				c0.1,0,0.3,0.1,0.4,0.1c0,0,0.1,0,0.1,0c0.1,0,0.2,0.1,0.4,0.1c0.1,0,0.2,0.1,0.3,0.1c0,0,0.1,0,0.1,0c0.1,0,0.1,0.1,0.2,0.1
				c0,0,0.1,0,0.1,0c0.1,0.1,0.2,0.1,0.3,0.2c0.5,0.4,0.8,0.8,0.8,1.3L195.4,102.4z"/>
			<path class="st28" d="M180.2,127.2c0,0,0.1,0,0.1,0c0,0,0.1,0,0.1,0c0,0,0.1,0,0.1,0c0,0,0.1,0,0.1,0l0.1,9.4l14.5,10.5
				l-0.1-11.3l-12-8.7c0.2,0,0.4,0,0.5,0.1c0,0,0.1,0,0.1,0c0.1,0,0.1,0,0.2,0c0,0,0.1,0,0.1,0c0.1,0,0.1,0,0.2,0c0,0,0.1,0,0.1,0
				c0.1,0,0.2,0.1,0.3,0.1c0,0,0.1,0,0.1,0c0.1,0,0.3,0.1,0.4,0.1c0,0,0,0,0.1,0c0.2,0.1,0.4,0.1,0.5,0.2c0,0,0,0,0,0
				c0.2,0.1,0.4,0.1,0.5,0.2c0,0,0,0,0,0c0.2,0.1,0.4,0.2,0.6,0.3c0,0,0,0,0,0c0.2,0.1,0.4,0.2,0.6,0.3c0,0,0,0,0,0
				c0.2,0.1,0.4,0.2,0.6,0.3c0,0,0,0,0,0c0.2,0.1,0.4,0.2,0.6,0.4c1.6,1.2,2.4,2.5,2.5,3.6c0-3.8-0.1-7.5-0.1-11.3
				c0-1.1-0.9-2.4-2.5-3.6c-0.2-0.1-0.4-0.3-0.6-0.4c0,0,0,0,0,0c-0.2-0.1-0.4-0.2-0.6-0.3c0,0,0,0,0,0c-0.2-0.1-0.4-0.2-0.6-0.3
				c0,0,0,0,0,0c-0.2-0.1-0.4-0.2-0.6-0.3c0,0,0,0,0,0c0,0,0,0,0,0c-0.2-0.1-0.4-0.1-0.5-0.2c0,0,0,0,0,0c-0.2-0.1-0.4-0.1-0.5-0.2
				c0,0,0,0,0,0c0,0,0,0,0,0c-0.1,0-0.3-0.1-0.4-0.1c0,0-0.1,0-0.1,0c-0.1,0-0.2-0.1-0.3-0.1c0,0,0,0-0.1,0c0,0,0,0-0.1,0
				c-0.1,0-0.1,0-0.2,0c0,0-0.1,0-0.1,0c-0.1,0-0.1,0-0.2,0c0,0-0.1,0-0.1,0c0,0,0,0,0,0c-0.2,0-0.4-0.1-0.5-0.1c0,0,0,0,0,0
				c0,0,0,0,0,0c-0.2,0-0.3,0-0.5,0c0,0,0,0,0,0c0,0,0,0-0.1,0c-0.3,0-0.6,0-0.8,0c0,0,0,0,0,0c0,0,0,0,0,0c-0.1,0-0.3,0-0.4,0
				c0,0,0,0,0,0c0,0,0,0,0,0c-0.1,0-0.3,0-0.4,0c0,0,0,0,0,0c0,0,0,0,0,0c-0.1,0-0.1,0-0.2,0c0,0-0.1,0-0.1,0c-0.1,0-0.1,0-0.2,0
				c0,0-0.1,0-0.1,0c0,0,0,0,0,0c-0.1,0-0.2,0.1-0.3,0.1c0,0,0,0-0.1,0c-0.1,0-0.2,0.1-0.3,0.1c-0.1,0-0.2,0.1-0.2,0.1
				c0,0,0,0-0.1,0c0,0-0.1,0-0.1,0c0,0,0,0-0.1,0c0,0-0.1,0-0.1,0.1c0,0-0.1,0.1-0.1,0.1c0,0,0,0-0.1,0.1c0,0,0,0,0,0
				c0,0-0.1,0.1-0.1,0.1c0,0,0,0,0,0c0,0-0.1,0.1-0.1,0.1c0,0,0,0,0,0c0,0,0,0,0,0.1c0,0-0.1,0.1-0.1,0.1c0,0,0,0,0,0c0,0,0,0,0,0
				c0,0,0,0,0,0.1c0,0,0,0.1-0.1,0.1c0,0,0,0.1,0,0.1c0,0,0,0.1-0.1,0.1c0,0,0,0,0,0c0,0,0,0,0,0c0,0.1-0.1,0.1-0.1,0.2c0,0,0,0,0,0
				c0,0.1-0.1,0.2-0.1,0.2c0,0.1,0,0.1-0.1,0.2c0,0,0,0,0,0.1c0,0.1-0.1,0.1-0.1,0.2c0,0,0,0.1-0.1,0.1c0,0,0,0,0,0.1
				c0,0.1-0.1,0.1-0.1,0.2c0,0,0,0.1-0.1,0.1c0,0-0.1,0.1-0.1,0.1c0,0,0,0,0,0.1c0,0.1-0.1,0.1-0.2,0.2c0,0,0,0,0,0
				c-0.1,0.1-0.1,0.1-0.2,0.2c0,0,0,0-0.1,0.1c0,0-0.1,0.1-0.1,0.1c0,0,0,0-0.1,0.1c0,0-0.1,0.1-0.2,0.1c0,0,0,0-0.1,0.1
				c-0.1,0.1-0.2,0.1-0.2,0.2c0,0,0,0,0,0c0,0,0,0,0,0c0,0,0,0,0,0c0,0,0,0,0,0c0,0,0,0,0,0c0,0,0,0,0,0c0,0,0,0,0,0c0,0,0,0,0,0
				c0,0,0,0,0,0c0,0,0,0,0,0c0,0,0,0,0,0c0,0,0,0-0.1,0c0,0-0.1,0-0.1,0c0,0,0,0,0,0c0,0-0.1,0-0.1,0.1c-0.3,0.1-0.6,0.3-0.9,0.4
				l-14.6-10.6l0.1,11.3l14.6,10.6c0.3-0.1,0.6-0.3,0.9-0.4c0.1,0,0.2-0.1,0.2-0.1c0,0,0,0,0,0c0,0,0.1,0,0.1,0c0,0,0,0,0,0
				c0,0,0,0,0.1,0c0,0,0,0,0,0c0,0,0,0,0,0c0,0,0,0,0,0c0,0,0,0,0,0c0,0,0,0,0,0c0,0,0,0,0,0c0,0,0,0,0,0c0,0,0,0,0,0c0,0,0,0,0,0
				c0,0,0,0,0,0c0.1-0.1,0.2-0.1,0.2-0.2c0,0,0,0,0.1-0.1c0.1,0,0.1-0.1,0.2-0.1c0,0,0,0,0,0c0,0,0,0,0,0c0,0,0.1-0.1,0.1-0.1
				c0,0,0,0,0.1-0.1c0.1-0.1,0.1-0.1,0.2-0.2c0,0,0,0,0,0c0,0,0,0,0,0c0.1-0.1,0.1-0.1,0.2-0.2c0,0,0,0,0-0.1c0,0,0.1-0.1,0.1-0.1
				c0,0,0,0,0,0c0,0,0,0,0-0.1c0-0.1,0.1-0.1,0.1-0.2c0,0,0,0,0-0.1c0,0,0-0.1,0.1-0.1c0,0,0,0,0,0c0-0.1,0.1-0.1,0.1-0.2
				c0,0,0,0,0-0.1c0-0.1,0-0.1,0.1-0.2c0-0.1,0.1-0.2,0.1-0.2c0,0,0,0,0,0c0-0.1,0.1-0.1,0.1-0.2c0,0,0,0,0-0.1c0,0,0-0.1,0.1-0.1
				c0,0,0-0.1,0-0.1c0,0,0-0.1,0.1-0.1c0,0,0-0.1,0.1-0.1c0,0,0,0,0-0.1c0,0,0.1-0.1,0.1-0.1c0,0,0,0,0-0.1c0,0,0.1-0.1,0.1-0.1
				c0,0,0,0,0,0c0,0,0.1-0.1,0.1-0.1c0,0,0,0,0.1-0.1c0,0,0.1-0.1,0.1-0.1c0,0,0,0,0.1-0.1c0,0,0.1-0.1,0.1-0.1c0,0,0,0,0.1,0
				c0.1,0,0.1-0.1,0.2-0.1c0.1,0,0.2-0.1,0.3-0.1c0,0,0,0,0.1,0C180,127.2,180.1,127.2,180.2,127.2z"/>
			<g>
				<polygon class="st29" points="240.3,115.4 240.4,126.7 195.3,147.1 195.2,135.8 				"/>
			</g>
			<g>
				<path class="st30" d="M160.1,110.3l18.6-8.4c0.6,0.4,1.4,1.1,1.5,1.2c0.9,1.2-0.3,2.9,1.2,4c1.8,1.3,6.2,1,9.9-0.6
					c0.1,0,0.2-0.1,0.3-0.1c3.4-1.6,4.8-4,3.1-5.2c-1.1-0.8-3-0.8-4.6-1.1c-0.8-0.2-1.6-0.4-2.3-0.7c-0.1-0.1-0.8-0.5-1.3-0.9
					l18.7-8.4l35.1,25.5l-45.1,20.4l-14.5-10.5c0.1,0,0.1-0.1,0.2-0.1c0.7-0.3,1.8-0.7,1.9-0.8c2.2-0.5,5.1,0.1,7-0.7
					c2.3-1.1,1.8-3.6-1-5.6c-2.9-2.1-7-2.9-9.3-1.9c-1.4,0.7-1.4,1.8-1.9,2.6c-0.3,0.5-0.7,0.9-1.3,1.3c-0.1,0-0.3,0.2-0.7,0.3
					c-0.3,0.1-0.6,0.3-0.9,0.4L160.1,110.3z"/>
			</g>
		</g>
		<g>
			<path class="st11" d="M96.9,163.4c0,0,1.5-1.1,0.1-3.1c-3.8-0.3-8.3-2.5-8.3-2.5c-5.6-1.9-13.5-11.3-17.1-15.5
				c-4-4.8-10.2-0.7-6.9,4.7c6.1,10.2,22.3,16.9,32.2,16.5"/>
			<path class="st31" d="M55,210.9c2.4-11.8,3.1-39.1,3.1-39.1s-1.9-2.7-8.7-3.2c-6.8-0.5-6.3,4-6.3,3.4c0,0,0,19.3,3.1,38.4
				C46.2,210.4,51.1,214,55,210.9z"/>
			<path class="st32" d="M43.2,173.4c-0.7-4.9,0.7-9.8,1.4-14.7h20.7c1.3,4.7,2.7,9.6,2.7,9.6s0.9,11.2-8,12.5
				C60,180.8,44.6,183.6,43.2,173.4z"/>
			<ellipse class="st0" cx="66.7" cy="258.6" rx="35.6" ry="17"/>
			<g>
				<path class="st22" d="M87.4,258l-1.2-0.1c-0.4-0.1-0.4,0.6-0.5,0.6c-1.2,0.5-2.3,0.9-2.8,0.9c0,0-2.2-0.3-2.4-1l0.3-4.3
					c2.4-0.2,5-0.7,5-0.7l5.3-0.8c2.6-0.3,3,0.7,3,0.7S95.8,255.8,87.4,258z"/>
				<path class="st33" d="M84.2,257.7c0.4-0.2,1-0.4,1.4-0.5c2.6-0.5,5.2-0.8,7.4-2.6c0.5-0.4,0.9-1,1-1.7c0.2,0.2,0.3,0.3,0.3,0.3
					s1.6,2.5-6.8,4.7l-1.2-0.1c-0.4-0.1-0.4,0.6-0.5,0.6c-1.2,0.5-2.3,0.9-2.8,0.9c0,0-2.2-0.3-2.4-1l0.1-1.1
					C81.5,257.9,83.1,258.3,84.2,257.7z"/>
			</g>
			<g>
				<path class="st22" d="M51.8,256.9l-1.2-0.1c-0.4-0.1-0.4,0.6-0.5,0.6c-1.2,0.5-2.3,0.9-2.8,0.9c0,0-2.2-0.3-2.4-1l0.3-4.3
					c2.4-0.2,5-0.7,5-0.7l5.3-0.8c2.6-0.3,3,0.7,3,0.7S60.2,254.8,51.8,256.9z"/>
				<path class="st33" d="M48.6,256.6c0.4-0.2,1-0.4,1.4-0.5c2.6-0.5,5.2-0.8,7.4-2.6c0.5-0.4,0.9-1,1-1.7c0.2,0.2,0.3,0.3,0.3,0.3
					s1.6,2.5-6.8,4.7l-1.2-0.1c-0.4-0.1-0.4,0.6-0.5,0.6c-1.2,0.5-2.3,0.9-2.8,0.9c0,0-2.2-0.3-2.4-1l0.1-1.1
					C45.9,256.9,47.5,257.2,48.6,256.6z"/>
			</g>
			<path class="st31" d="M51.4,253.4c0.9-1.1,3.7-42.3,3.7-42.3c0.5-6.3-9.3-3.7-9.3-3.7c-1.4,6.3-1.2,7.5-1.6,15.3
				c-0.2,3.1,0.3,28.7,0.2,30.6C44.3,253.3,48.9,256.6,51.4,253.4z"/>
			<path class="st34" d="M58.9,164.3c0,0,5.9,10.8,2.3,17.8c-3.6,7-18.9-0.6-17.9-8.8C44.2,164.4,51.8,160.6,58.9,164.3z"/>
			<path class="st5" d="M63.1,150.6c1,3.7,4.9,17.6,4.9,17.6c-10.8,10.9-24.7,2.3-24.9,0.6c-0.2-2,1.9-9.5,2.3-17.7
				C45.4,151.1,49.2,144.8,63.1,150.6z"/>
			<path class="st2" d="M67.6,212"/>
			<path class="st34" d="M76.1,208.8c-1.1-12-9.1-42.6-9.1-42.6s-2.3-2.3-8.9-0.5c-6.6,1.8-7.3,11-7.5,10.5c0,0,7.7,19.4,17.9,36.5
				C68.5,212.6,73.4,215.3,76.1,208.8z"/>
			<path class="st34" d="M86,252.9c-0.2-1.4-10.1-44.5-10.1-44.5c-2.3-5.3-9.1,0.3-9.1,0.3c0,3.8,0.1,8.5,2.4,15.9
				c0.9,2.9,9.4,29.5,9.9,31.4C79.2,256,84.2,257.7,86,252.9z"/>
			<g>
				<path class="st3" d="M37.6,122.7c0,0-1.1,19.3-0.4,27.1c0,0,0,3.5,5.8,5.3c0,0,2.1-21.5,3.8-31.1
					C46.9,124.1,43.4,117,37.6,122.7z"/>
				<path class="st3" d="M44.1,127.7c-2.4,1.1-5.1-0.1-6.2-2.6c-1-2.5,0.1-5.5,2.5-6.6c2.4-1.1,5.1,0.1,6.2,2.6
					C47.6,123.7,46.5,126.7,44.1,127.7z"/>
			</g>
			<path class="st35" d="M41.6,117.3c0,0-4.2,1.1-4.5,6.3l-0.7,19c0,0,4.2,3,9.7,2.5C46.2,145.2,52.6,119.8,41.6,117.3z"/>
			<path class="st5" d="M66.9,215.4"/>
			<path class="st5" d="M57.7,105.2c0,0,0,6.8,0.6,13.6l-8.3-1.5c0,0,1.2-3.1-0.5-5.9L57.7,105.2z"/>
			<path class="st5" d="M41.6,117.3c-2.1,1.6-2.3,5.6-1.6,8c0.9,2.8,1.2,6.4,2.1,10.5c1.2,5.5,2,9.8,3.3,15.3
				c1.1,4.5,18.1,0.9,18.1,0.9l6.1-22.4c0,0,1-5.8-3.9-7.8c0,0-5.2-3-9-4.4c-3.4-1.2-4.6-1.3-8-1.1
				C48.7,116.4,44.1,116.5,41.6,117.3z"/>
			<path class="st34" d="M66.6,163.8c0,0,3.6,6.3,0,13.3c-3.6,7-14.7,4.5-14.7-4.6C51.8,163.5,59.4,160,66.6,163.8z"/>
			<path class="st35" d="M48.7,116.4c0,0-4.6,0.2-7,0.9c-2.2,1.7-2.1,5.1-1.7,7.6c0.8,4.9,1.6,9.8,2,14.7c0.2,2.2,0.7,6.6,0.8,8.8
				c0.1,2.1,0.8,3.3,2.8,4.4c1.5,0.9,2.7,0.2,4.3,0.2c4.3,0.1,8.4-0.4,12.7-0.9c0.2,0,6.8,4.7,4.6,1.2l2.4-23.7c0,0,1-5.8-3.9-7.8
				c0,0-3.5-2.3-7.3-3.7C58.4,118.1,51.8,118.3,48.7,116.4z"/>
			<path class="st11" d="M60.5,113l0.4-1.5c0,0,0.8-5.4,0.8-5.4c0.1-0.7,0-1.6-0.2-2.2c-0.2-0.7-0.4-1.5-0.3-2.3
				c0.5-3.9-1.5-5.8-1.5-5.8c-2.4-3.3-7.3-2.9-7.3-2.9c-2.6,0.4-4.8,1.5-6.1,4.1c-1.2,2.3-1.8,5-1.1,7.6c0.7,2.8,2.2,4.9,4.1,6.9
				c1.2,1.3,2.5,1.4,4.1,2c1.1,0.4,3.3,0.7,4.4,0.7C58.5,114.2,60.3,113.9,60.5,113z"/>
			<path class="st36" d="M59.5,98l-0.8,3.4c-0.9,0.4-1.3,0.8-1.1,2.1l0.3,2.8l-0.7,0.3c0.1-1.1-1.4-1.1-1.4-1.1
				c-1.1-0.1-1.2,0.9-1.2,1.8c0.2,2.4-0.7,6.3-2.5,6.9c-0.7,0.3-2.1,0.5-2.4-0.5c-0.3-1.3-2.6-4-2.6-4c-2.8-2.9-3.5-7.9-2.2-11.7
				c0.4-1.2,1.2-2.4,2-3.2c1.7-1.8,4-2.7,6.3-3c0,0,3.2-0.4,5,0.9c1.1,0.8,1.8,1.6,2.3,2.3C60.5,95,61.2,96.5,59.5,98z"/>
			<g>
				<g>
					<g>
						<g>
							<g>
								<path class="st11" d="M56.9,108.9c-0.2,0.2-0.5,0.3-0.8,0.3c-0.9,0-1.8-0.8-1.9-2c-0.1-1.1,0.6-2.1,1.5-2.2
									c0.4,0,0.9,0.2,1.2,0.5c0.5,0.5,0.5,1.4,0.5,2.1C57.4,108.2,57.2,108.6,56.9,108.9z"/>
							</g>
						</g>
					</g>
				</g>
			</g>
			<g>
				<g>
					<path class="st12" d="M56.2,106.1c-0.1-0.6-1.2,0.1-1,0.4c0.1,0.2,0.3,0.3,0.5,0.4c0.2,0.2,0.3,0.3,0.4,0.6c0,0,0,0.1,0,0.2
						c-0.1,0.1-0.7-0.4-0.8-0.5c-0.2-0.2-0.3-0.6-0.2-0.9c0.1-0.3,0.3-0.5,0.6-0.5C56,105.8,56.2,105.8,56.2,106.1
						C56.2,106.1,56.2,106.2,56.2,106.1L56.2,106.1z"/>
				</g>
				<g>
					<path class="st12" d="M55.9,106.8c0.1-0.1,0.2,0,0.4,0c0.1,0.1,0.2,0.2,0.2,0.3c0.1,0.3,0.1,0.7-0.1,1
						c-0.1,0.2-0.3,0.4-0.6,0.4c-0.3,0-0.5-0.3-0.5-0.6c0-0.1,0-0.3,0-0.3c0.1-0.1,0.1,0.1,0.2,0.1c0.1,0.1,0.2,0.1,0.3,0.1
						c0.2,0,0.4-0.1,0.5-0.3c0,0,0-0.1,0-0.1c0,0.2,0,0.2,0,0.1c0-0.1,0-0.1-0.1-0.1c-0.1-0.1-0.2-0.2-0.3-0.3
						C55.9,107.1,55.8,106.9,55.9,106.8L55.9,106.8z"/>
				</g>
			</g>
			<g>
				<path class="st5" d="M102.8,161.3c-0.4-0.7-0.1-1-0.9-1.1c-1,0-1.9-0.6-2.6-0.5c-1.2,0-5.6,1.2-2.6,3.9c0.7,0.6,2.7,3.5,4.1,2.7
					c2-1.3,1.3-0.8,2.4-3.5L102.8,161.3z"/>
			</g>
			<path class="st5" d="M61.3,126.2c-1.6,2.6-0.9,6.1,1.6,7.8c2.4,1.7,5.7,0.9,7.2-1.7c1.6-2.6,0.9-6.1-1.6-7.8
				C66.1,122.8,62.8,123.6,61.3,126.2z"/>
			<path class="st35" d="M67.8,147c0.7,7.7,1.1,26.4,1.1,26.4c-2.5,7.3-26.7,1.1-26.8-0.5c-0.2-2,0.3-15.9,0.7-24.1
				C42.8,148.8,54,141.1,67.8,147z"/>
			<path class="st35" d="M64.5,121.2c6.4,1.9,7.1,10.2,7.1,10.2l2.9,13.6c0,0-7.2,6.2-11.6,4.4c0,0-3.6-10.2-4.7-20.5
				C58.2,128.9,58.3,121.4,64.5,121.2z"/>
			<path class="st36" d="M60.9,97.9c-0.7,0.6-1.6,0.2-2.5,0c-1.1,1.4,0.2,2.8-1.5,3.5c-0.9,0.4-2.2,0.5-3.2,0.6
				c-0.8,0.1-1.6-0.1-2.2,0.6c-0.6,0.7,0,2.8-0.8,3.3c-1.3,0.7-2.3-3-3.9-2.7c-1.4,0.3-1.6,2.6-1.1,3.8c-0.2-0.2-0.3-0.2-0.4-0.3
				c-0.7-1.8-1.5-1.9-2.2-3.2c-1.1-2-0.9-1.5-1.2-3.5c0,0,0.2-0.9,0.2-0.9c0.5-2.1,1.4-2.4,1.9-3.3c0.5-0.9,1.2-1.6,1.8-2.4
				c0.5-0.8,0.8-1.8,1.4-2.4c0.9-1,2.5-1.5,3.8-1.7c1.4-0.2,2.7,0.7,4.1,0.5c0.6-0.1,1.1-0.7,1.7-0.6c0.7,0,1.2,0.8,1.8,1.1
				c1.1,0.5,2.9,0.3,3.8,1.2c1.1,0.9,0.8,2.3,0.2,3.4c-0.4,0.6-1.1,1-1.4,1.7C61.1,96.6,60.9,97.9,60.9,97.9z"/>
		</g>
		<g>
			<path class="st5" d="M257.2,92.5c0,0-5.8,10.9-10.4,23.2c0,0,0.1,2.3,1.7,1.6c1.6-0.7,14.5-20.4,14.5-22.2
				C263.1,90.5,257.2,92.5,257.2,92.5z"/>
			<path class="st5" d="M243.7,120.3l1.4-0.5c0,0-2.4,1.6-3.4,0.9c0,0-0.3-0.1,0-0.5c0,0,2.2-0.8,3.2-1.5c0,0-2.1,1.3-3.7,1.7
				c0,0-0.8-0.2-0.2-0.9c-0.6,0-0.2-0.5-0.2-0.5s0.4-0.4,1.3-1.1c0,0,1.5-1.1,3.1-2.6c0,0-1.8-0.5-1.5-1.6l2.7,0.5l2.5,0.7l0.7,1.4
				l-1.7,2.3c0,0-1.8,1.6-3,2C244.8,120.7,241.3,121.7,243.7,120.3z"/>
		</g>
		<g class="st15">
			<path class="st37" d="M185.4,157.9c0-0.5,0.2-0.9,0.7-1.3c0.1-0.1,0.2-0.1,0.3-0.2c0,0,0.1,0,0.1,0c0.1,0,0.1-0.1,0.2-0.1
				c0,0,0,0,0,0c0,0,0,0,0,0c0.1,0,0.2-0.1,0.3-0.1c0,0,0,0,0,0c0,0,0,0,0,0c0.1,0,0.2-0.1,0.4-0.1c0,0,0,0,0,0c0,0,0,0,0.1,0
				c0.1,0,0.3-0.1,0.4-0.1c0,0,0,0,0,0c0,0,0,0,0,0c0.1,0,0.3,0,0.4-0.1c0,0,0,0,0.1,0c0.2,0,0.3,0,0.5-0.1c0,0,0,0,0,0
				c0,0,0.1,0,0.1,0c0.1,0,0.2,0,0.3,0c0.2,0,0.3,0,0.5-0.1c0,0,0.1,0,0.1,0c0.1,0,0.3,0,0.4-0.1c0.1,0,0.2,0,0.2,0
				c0.2,0,0.3-0.1,0.5-0.1c0,0,0.1,0,0.1,0c0.1,0,0.2-0.1,0.3-0.1c0,0,0,0,0,0c0.1,0,0.2-0.1,0.3-0.1c0,0,0.1,0,0.1,0
				c0.1,0,0.2-0.1,0.2-0.1c0,0,0.1,0,0.1,0c0.1,0,0.1-0.1,0.2-0.1c0,0,0.1,0,0.1,0c0.1,0,0.2-0.1,0.3-0.1c0.1-0.1,0.8-0.5,1.2-0.9
				l-0.1,11.1c-0.4,0.4-1.1,0.8-1.2,0.9c-0.1,0-0.2,0.1-0.3,0.1c0,0,0,0,0,0c0,0,0,0-0.1,0c-0.1,0-0.2,0.1-0.2,0.1c0,0-0.1,0-0.1,0
				c-0.1,0-0.2,0.1-0.2,0.1c0,0,0,0-0.1,0c0,0,0,0,0,0c-0.1,0-0.2,0.1-0.3,0.1c0,0,0,0,0,0c-0.1,0-0.2,0.1-0.3,0.1c0,0,0,0,0,0
				c0,0,0,0-0.1,0c-0.2,0-0.3,0.1-0.5,0.1c-0.1,0-0.1,0-0.2,0c0,0,0,0,0,0c-0.1,0-0.3,0-0.4,0.1c0,0-0.1,0-0.1,0
				c-0.1,0-0.3,0-0.4,0.1c0,0,0,0,0,0c-0.1,0-0.2,0-0.3,0c-0.1,0-0.1,0-0.2,0c-0.2,0-0.3,0-0.5,0.1c0,0,0,0-0.1,0
				c-0.1,0-0.3,0-0.4,0.1c0,0,0,0-0.1,0c-0.1,0-0.3,0.1-0.4,0.1c0,0-0.1,0-0.1,0c-0.1,0-0.2,0.1-0.4,0.1c0,0,0,0,0,0
				c-0.1,0-0.2,0.1-0.3,0.1c0,0-0.1,0-0.1,0c-0.1,0-0.1,0.1-0.2,0.1c0,0-0.1,0-0.1,0c-0.1,0.1-0.2,0.1-0.3,0.2
				c-0.5,0.4-0.7,0.8-0.7,1.3L185.4,157.9z"/>
			<path class="st37" d="M145.1,168.3C145.1,168.3,145.1,168.3,145.1,168.3c0-0.1,0-0.1,0-0.1c0,0,0,0,0,0c0,0,0-0.1,0-0.1
				c0,0,0,0,0-0.1c0,0,0-0.1,0-0.1c0,0,0,0,0-0.1c0,0,0,0,0,0l0.1-11.1c0,0,0,0.1,0,0.1c0,0,0,0.1,0,0.1c0,0,0,0,0,0.1
				c0,0,0,0.1,0,0.1c0,0,0,0.1,0,0.1c0,0,0,0,0,0.1c0,0,0,0.1,0,0.1c0,0,0,0,0,0.1c0,0,0,0,0,0c0,0.1,0.1,0.2,0.1,0.2c0,0,0,0,0,0
				c0,0.1,0.1,0.1,0.1,0.2c0,0,0,0,0,0c0,0.1,0.1,0.1,0.1,0.2c0,0,0,0,0,0.1c0,0,0,0,0,0.1c0,0,0,0,0.1,0.1c0,0,0,0,0.1,0.1
				c0,0,0,0,0.1,0c0,0,0.1,0.1,0.1,0.1c0,0,0,0,0.1,0c0,0,0.1,0.1,0.1,0.1c0,0,0,0,0,0c0,0,0.1,0,0.1,0.1c0,0,0,0,0.1,0
				c0.1,0,0.1,0.1,0.2,0.1c0.1,0.1,0.2,0.1,0.4,0.1c0,0,0.1,0,0.1,0c0.1,0,0.2,0.1,0.3,0.1c0,0,0,0,0.1,0c0.1,0,0.2,0,0.3,0.1
				c0,0,0.1,0,0.1,0c0.1,0,0.2,0,0.3,0c0,0,0.1,0,0.1,0c0.1,0,0.3,0,0.4,0c0.1,0,0.2,0,0.2,0c0.1,0,0.1,0,0.2,0c0.1,0,0.2,0,0.3,0
				c0.1,0,0.1,0,0.2,0c0.2,0,0.3,0,0.5,0c0,0,0,0,0,0c0.2,0,0.4,0,0.6,0c0.1,0,0.2,0,0.4,0c0.1,0,0.1,0,0.2,0c0.1,0,0.2,0,0.3,0
				c0,0,0.1,0,0.1,0c0,0,0.1,0,0.1,0c0.1,0,0.2,0,0.2,0c0.1,0,0.1,0,0.2,0c0.1,0,0.2,0,0.2,0c0,0,0.1,0,0.1,0v0l0,0v0
				c0.1,0,0.2,0,0.3,0c0,0,0,0,0.1,0c0.1,0,0.2,0,0.3,0c0,0,0,0,0,0c0.2,0,0.3,0.1,0.5,0.1c0,0,0,0,0,0c0,0,0,0,0,0c0,0,0,0,0,0
				c0,0,0,0,0,0c0,0,0,0,0,0c0,0,0,0,0,0c0,0,0,0,0,0c0,0,0,0,0.1,0c0,0,0,0,0,0c0,0,0,0,0.1,0c0,0,0,0,0,0c0,0,0,0,0.1,0
				c0,0,0,0,0,0c0,0,0.1,0,0.1,0c0,0,0,0,0,0c0,0,0.1,0,0.1,0c0,0,0,0,0.1,0c0,0,0.1,0,0.1,0c0,0,0,0,0.1,0c0,0,0,0,0.1,0
				c0,0,0,0,0.1,0c0,0,0.1,0,0.1,0c0,0,0,0,0.1,0c0,0,0.1,0,0.1,0c0,0,0,0,0.1,0c0,0,0.1,0,0.1,0c0,0,0,0,0.1,0c0,0,0.1,0,0.1,0
				c0,0,0,0,0.1,0c0,0,0.1,0,0.1,0c0,0,0,0,0.1,0c0,0,0.1,0,0.1,0.1c0.1,0,0.1,0.1,0.2,0.1l-0.1,11.1c-0.1,0-0.1-0.1-0.2-0.1
				c0,0-0.1,0-0.1-0.1c0,0,0,0,0,0c0,0-0.1,0-0.1,0c0,0,0,0-0.1,0c0,0-0.1,0-0.1,0c0,0,0,0-0.1,0c0,0-0.1,0-0.1,0c0,0,0,0-0.1,0
				c0,0-0.1,0-0.1,0c0,0,0,0-0.1,0c0,0-0.1,0-0.1,0c0,0,0,0-0.1,0c0,0-0.1,0-0.1,0c0,0,0,0-0.1,0c0,0-0.1,0-0.1,0c0,0,0,0-0.1,0
				c0,0,0,0-0.1,0c0,0,0,0-0.1,0c0,0,0,0-0.1,0c0,0,0,0-0.1,0c0,0,0,0-0.1,0c0,0,0,0-0.1,0c0,0,0,0-0.1,0c0,0,0,0,0,0c0,0,0,0,0,0
				c0,0,0,0,0,0c0,0,0,0,0,0c0,0,0,0,0,0c0,0,0,0,0,0c0,0,0,0,0,0c0,0,0,0,0,0c-0.2,0-0.3-0.1-0.5-0.1c-0.1,0-0.2,0-0.4-0.1
				c0,0,0,0-0.1,0c-0.1,0-0.2,0-0.3,0c-0.1,0-0.1,0-0.2,0c-0.1,0-0.1,0-0.2,0c-0.1,0-0.2,0-0.2,0c-0.1,0-0.1,0-0.2,0
				c-0.1,0-0.2,0-0.3,0c-0.1,0-0.1,0-0.2,0c-0.1,0-0.2,0-0.4,0c-0.2,0-0.3,0-0.5,0c0,0-0.1,0-0.1,0c-0.2,0-0.3,0-0.5,0c0,0,0,0,0,0
				v0l0,0v0c-0.1,0-0.1,0-0.2,0c-0.1,0-0.2,0-0.2,0c-0.1,0-0.1,0-0.2,0c-0.1,0-0.2,0-0.2,0c0,0,0,0,0,0c-0.1,0-0.2,0-0.4,0
				c0,0-0.1,0-0.1,0c-0.1,0-0.1,0-0.2,0v0l0,0v0c0,0-0.1,0-0.1,0c0,0-0.1,0-0.1,0c-0.1,0-0.2,0-0.3-0.1c0,0,0,0-0.1,0c0,0,0,0,0,0
				c-0.1,0-0.2,0-0.2-0.1c0,0-0.1,0-0.1,0c-0.1,0-0.2-0.1-0.4-0.1c-0.1,0-0.1-0.1-0.2-0.1c0,0,0,0-0.1,0c0,0-0.1,0-0.1-0.1
				c0,0,0,0,0,0c0,0,0,0,0,0c0,0-0.1-0.1-0.1-0.1c0,0,0,0-0.1,0c0,0-0.1-0.1-0.1-0.1c0,0,0,0,0,0v0l0,0v0c0,0,0,0,0,0
				c0,0,0,0-0.1-0.1c0,0,0,0-0.1-0.1c0,0,0,0,0-0.1c0,0,0,0,0,0c0,0,0,0,0,0c-0.1-0.1-0.1-0.1-0.1-0.2c0,0,0,0,0,0c0,0,0,0,0,0
				c0-0.1-0.1-0.1-0.1-0.2c0,0,0,0,0,0c0,0,0,0,0,0c0-0.1-0.1-0.1-0.1-0.2c0,0,0,0,0,0v0l0,0v0c0,0,0,0,0,0
				C145.1,168.4,145.1,168.4,145.1,168.3C145.1,168.4,145.1,168.3,145.1,168.3z"/>
			<g>
				<g>
					<polygon class="st38" points="141.2,170.7 141.1,181.8 185.4,201.8 185.5,190.7 					"/>
				</g>
			</g>
			<g>
				<polygon class="st37" points="185.5,190.7 185.4,201.8 220,176.7 220.1,165.7 				"/>
			</g>
			<g>
				<g>
					<path class="st39" d="M220.1,165.7l-18.3-8.3c-0.6,0.4-1.4,1.1-1.4,1.2c-0.9,1.2,0.2,2.9-1.2,3.9c-1.8,1.3-6.1,1-9.7-0.6
						c-0.1,0-0.2-0.1-0.3-0.1c-3.4-1.6-4.7-3.9-3-5.1c1.1-0.8,3-0.7,4.5-1.1c0.8-0.2,1.6-0.4,2.3-0.7c0.1-0.1,0.8-0.5,1.2-0.9
						l-18.4-8.3L161.5,156c-0.3-0.1-0.6-0.2-0.9-0.4c-0.3-0.2-0.6-0.3-0.6-0.3c-0.6-0.4-1-0.8-1.3-1.3c-0.5-0.9-0.5-1.9-1.8-2.6
						c-2.3-1.1-6.5-0.2-9.3,1.8c-2.8,2-3.2,4.5-1.1,5.5c1.9,0.9,4.8,0.3,6.9,0.8c0.2,0,1.2,0.4,1.9,0.7c0.1,0,0.1,0.1,0.2,0.1
						l-14.3,10.4l44.3,20L220.1,165.7z"/>
				</g>
			</g>
		</g>
		<g>
			<ellipse class="st0" cx="220.4" cy="281.2" rx="25.3" ry="12.1"/>
			<g>
				<g>
					<g>
						<path class="st3" d="M207.6,280.9c0,0-2.7-0.5-1.9,1.8c0,0,6.3,2.9,10.6,2.2c0,0,3.1-0.1,2.6-3.7l0.1-2.9l-4.1,0.8l0.2,2.8
							L207.6,280.9z"/>
					</g>
					<path class="st40" d="M218.9,281.2c0,0.5-0.1,0.9-0.4,1.3c-1.1,1.3-3.2,1.4-4.7,1.3c-2.4-0.2-4.8-0.5-7.2-1.1
						c-0.5-0.1-0.7-0.3-0.7-0.5c0.3-0.6,0.7-1.2,1.6-1.4l-2.3-0.3c-2.1-0.1-3.1,0.4-3.6,0.8c-0.6,1.8,2.3,3,2.3,3s3,1.2,6.7,2
						c0,0,8,2,9-0.6L218.9,281.2z"/>
				</g>
				<g>
					<g>
						<path class="st3" d="M223.5,276.9c0,0-2.7-0.5-1.9,1.8c0,0,6.3,2.9,10.6,2.2c0,0,3.1-0.1,2.6-3.7l0.1-2.9l-4.1,0.8l0.2,2.8
							L223.5,276.9z"/>
					</g>
					<path class="st40" d="M234.8,277.2c0,0.5-0.1,0.9-0.4,1.3c-1.1,1.3-3.2,1.4-4.7,1.3c-2.4-0.2-4.8-0.5-7.2-1.1
						c-0.5-0.1-0.7-0.3-0.7-0.5c0.3-0.6,0.7-1.2,1.6-1.4l-2.3-0.3c-2.1-0.1-3.1,0.4-3.6,0.8c-0.6,1.8,2.3,3,2.3,3s3,1.2,6.7,2
						c0,0,8,2,9-0.6L234.8,277.2z"/>
				</g>
				<g>
					<g>
						<ellipse class="st41" cx="230.4" cy="199" rx="7.7" ry="8.2"/>
						<path class="st41" d="M235.3,238.6c0,0-0.1,2.1-3.6,2.1c0,0-3.3,1.2-4.7-3.4c-5.6-18.1-4.1-36.9-4.1-36.9s7.9-4.7,15.2-1.5
							C238.1,199,236.9,222.7,235.3,238.6z"/>
					</g>
					<path class="st41" d="M227,237.4c0,0,2.7,39,3,40.4c2.6,1.8,5,0,5,0c0-1.9,1.9-17.9,2.1-20.9c0.3-5.2,0.9-11.7-2.1-19.1
						L227,237.4z"/>
					<g>
						<path class="st42" d="M213,239.8c0,0-0.7,1.9-4,0.7c0,0-3.5,0-3.4-4.9c0.3-19,8.1-38.7,8.1-38.7s8.7-0.9,14.7,4.8
							C228.4,201.7,219.5,225.4,213,239.8z"/>
						<path class="st42" d="M213.9,196.2c-1.4,4.3,0.7,9,4.7,10.5c4,1.5,8.4-0.8,9.8-5c1.4-4.3-0.7-9-4.7-10.5
							C219.7,189.7,215.3,192,213.9,196.2z"/>
					</g>
					<path class="st42" d="M238.1,197.8c-0.9-9.2-5.2-13.4-5.2-13.4l-14.8-2c0,0-4.1,7.6-4.5,15.4c1.8,5.2,8.1,6.7,8.1,6.7l4.8,1.5
						C226.4,206,237.3,204.2,238.1,197.8z"/>
					<g>
						<path class="st42" d="M206.3,239.5c0,0,7.3,41,7.8,42.3c-0.2-0.1,3.5,1.8,5.1-0.7c-0.3-1.9-0.4-22.7-0.6-25.7
							c-0.4-5.2-0.3-10-4.3-16.8C214.2,238.7,204.2,230.9,206.3,239.5z"/>
					</g>
				</g>
				<path class="st43" d="M219.3,268.7"/>
				<g>
					<g>
						<path class="st3" d="M239.2,167.7c0,0-2.7,3.4-8.1,11.7l0.9,1.7c0,0,9.2-5,12.1-10.6L239.2,167.7z"/>
					</g>
					<g>
						<path class="st3" d="M231.6,155.5c0,0,6.9,16.2,11.1,15.6c0,0,1.4,0.1,1.7-1.1c0,0,2.9-2.8-9.3-23c0,0-1.2-1.7-3.6-1.3
							C231.5,145.8,227.8,148.4,231.6,155.5z"/>
					</g>
				</g>
				<g>
					<rect x="220.4" y="142.8" class="st44" width="7.5" height="8.5"/>
				</g>
				<g>
					<path class="st5" d="M215.8,143l-0.3-1.4c0,0-0.6-5-0.6-5c-0.1-0.6,0.1-1.4,0.3-2c0.2-0.7,0.4-1.3,0.4-2.1
						c-0.3-3.6,1.9-5.2,1.9-5.2c2.6-2.9,7.5-2.2,7.5-2.2c2.5,0.5,4.7,1.7,5.9,4c1,2.1,1.5,4.7,0.7,7c-0.9,2.5-2.5,4.4-4.5,6.1
						c-1.3,1.1-2.6,1.2-4.2,1.6c-1.1,0.3-3.3,0.5-4.5,0.4C217.7,144.1,215.9,143.7,215.8,143z"/>
				</g>
				<g>
					<path class="st43" d="M219.2,138.3"/>
				</g>
				<g>
					<path class="st43" d="M219.2,138.3c0.4-0.6,1.7-0.9,1.7-0.9c1.6,0,1.4,2.3,1.6,3.3c0,0.3,0.1,0.7,0.2,1c0.8,3,3.1,2.9,5.1,3.3
						c0.1,0,0.2-0.1,0.2-0.1c0.4-1.3,1.5-2.7,1.5-2.7c3-2.8,3.9-7.7,2.8-11.6c-0.3-1.2-1.1-2.4-1.9-3.3c-1.7-1.9-3.8-2.9-6.1-3.4
						c-2.3-0.5-10.5,0.7-8.3,6.1C216,130,219.3,134.2,219.2,138.3"/>
				</g>
				<g>
					<g>
						<g>
							<path class="st45" d="M219.2,138.3c0.3-0.8,1-1.4,1.8-1.2c0.6,0.2,1,0.8,0.9,1.4c0,0.1,0,0.3-0.1,0.4
								c-0.2,1.5-1.7,2.1-1.7,2.1"/>
						</g>
						<g>
							<path class="st46" d="M220.9,137.9c-0.1-0.1-0.3-0.1-0.4-0.1c-0.5,0-1,0.9-0.4,1c0.2,0.2,0,0.5,0,0.5
								c-0.2,0.2-0.4,0.5-0.4,0.8c0,0.2,0.2,0.3,0.4,0.3c0.1,0,0.2-0.1,0.1-0.1c-0.1,0-0.2-0.1-0.2-0.2c0,0,0,0,0,0c0,0,0,0,0,0
								c0,0,0-0.1,0-0.1c0.1,0.1,0.3,0.1,0.4,0c0.1-0.1,0-0.3,0.1-0.5c0-0.1,0.1-0.2,0.1-0.3c0.3-0.4-0.2-0.5-0.2-0.5
								c-0.1,0-0.1,0-0.2,0c-0.2-0.1,0-0.5,0.2-0.6c0.2-0.1,0.4,0,0.5,0.1c0.1,0.1,0.2,0.3,0.2,0.5c0,0.2-0.1,0.4-0.1,0.6
								c0,0.1-0.1,0.2-0.2,0.4c-0.1,0.1,0.1,0.2,0.1,0.1c0.1-0.3,0.3-0.7,0.4-1C221.2,138.4,221.1,138.1,220.9,137.9z"/>
						</g>
						<g>
							<path class="st46" d="M219.2,138.3c0,0,0.1-0.1,0.2-0.3c0-0.1,0.1-0.2,0.2-0.3c0.1-0.1,0.2-0.2,0.3-0.3
								c0.1-0.1,0.3-0.2,0.5-0.2c0.2,0,0.4,0,0.5,0c0.1,0,0.2,0.1,0.3,0.1c0.1,0,0.1,0.1,0.2,0.2c0.1,0.1,0.2,0.3,0.3,0.5
								c0,0.2,0,0.4,0,0.6l0,0.2l0,0v0c0,0,0,0,0,0l0,0l0,0l0,0l0,0.1c0,0.1,0,0.2-0.1,0.3c-0.1,0.2-0.2,0.4-0.3,0.5
								c-0.1,0.2-0.2,0.3-0.3,0.4c-0.2,0.3-0.5,0.4-0.6,0.5c-0.2,0.1-0.3,0.2-0.3,0.2s0.1,0,0.3-0.1c0.2-0.1,0.5-0.2,0.7-0.4
								c0.1-0.1,0.3-0.3,0.4-0.4c0.1-0.2,0.2-0.4,0.3-0.6c0-0.1,0.1-0.2,0.1-0.4l0-0.1l0,0l0,0l0,0l0,0l0-0.2c0-0.2,0.1-0.5,0-0.8
								c-0.1-0.3-0.2-0.5-0.4-0.7c0,0-0.1-0.1-0.1-0.1l-0.2-0.1c-0.1-0.1-0.2-0.1-0.3-0.1c-0.2-0.1-0.5,0-0.7,0
								c-0.2,0.1-0.4,0.2-0.5,0.3c-0.1,0.1-0.2,0.2-0.3,0.4c-0.1,0.1-0.2,0.2-0.2,0.3C219.2,138.2,219.2,138.3,219.2,138.3z"/>
						</g>
					</g>
					<g>
						<g>
							<ellipse class="st14" cx="219.7" cy="140.8" rx="0.5" ry="0.5"/>
						</g>
						<g>
							<path class="st47" d="M219.8,141c-0.2,0-0.4-0.2-0.4-0.4c0-0.2,0.1-0.3,0.2-0.4l0,0c-0.2,0-0.5,0.2-0.5,0.5
								c0,0.3,0.2,0.5,0.5,0.5c0.3,0,0.5-0.2,0.5-0.5c0,0,0,0,0,0C220.1,140.9,219.9,141,219.8,141z"/>
						</g>
					</g>
				</g>
				<g>
					<path class="st40" d="M239.9,188.2c0,0-8.3-12.7-8.3-12.7c-0.4-1.9,0.5-5.6,0.5-5.6l2.6-19.5c-0.3-2.2-0.5-5.1-3.3-4.6
						c-2,0.4-2.4,0.7-3.6,1.1c0.4,1.8-2.6,3-2.6,3c-4,1.9-4.9,0.6-4.9,0.6c-1.1,0.6-4.7,2.6-5.6,3.4c-1,0.9-1.6,2.2-1.3,4.4
						l2.9,18.5l-0.5,4.6l-5.3,14.3c1.6-0.6,3.4-0.9,5.1-0.7c1.6,0.2,3,1.2,4.7,1.4c2.5,0.3,4.3-0.7,6.1-1.9c2.3-0.5,4.7-1.4,7.1-2.7
						c0.1,0,0.1,0,0.2,0c1.8,0,3.9,0,5.3-1.6C239.4,190,240.2,188.7,239.9,188.2z"/>
				</g>
				<g>
					<path class="st5" d="M211.4,183.5l0-22.5c0.5-6.2,3.4-7.1,3.4-7.1c5.8-0.7,4.9,10.7,4.9,10.7l-2.4,19.4"/>
				</g>
				<g>
					<path class="st5" d="M193.1,195.7c2.6-1.5,2.9-2,3.3-2.7c2-3.1-2-3-3.1-2.7c-0.6,0.1-0.6,1.6-2.4,3.5c0,0-2.9,1.8-3.6,1.7
						c0,0-0.7,0.1-0.7,0.7C186.6,196.1,188.6,197.4,193.1,195.7z"/>
				</g>
				<g>
					<g>
						<path class="st45" d="M215.2,180.4"/>
					</g>
					<g>
						<path class="st5" d="M211.8,181.1l-17.9,10.5c-0.8,2.3,0.2,2.6,0.2,2.6L208,190c5.9-1.7,8.3-4.4,8.3-4.4s2.6-1.9-0.7-4.8
							C215.6,180.8,214.1,179.5,211.8,181.1z"/>
					</g>
				</g>
				<g>
					<path class="st43" d="M217.6,137c0.5,3.7-0.1,8.7,1.7,12.7c0.8,1.8,1.6,2.7,1.2,4.8c-0.4,1.7-1.1,3.3-1.5,5.1
						c-0.9,3.9,0.3,7.8,4.6,6.4c2-0.7,2.3-0.7,4.1,0.1c1.6,0.7,3,0.8,4.6,0c2.4-1.3,1.7-3.2,3-5.1c1-1.5,2.5-1.4,3.3-3.4
						c0.9-2.4-0.2-3.6-1.3-5.6c-1.2-2.1-1.4-3.5-1-6c0.3-2.1-0.2-3.2-0.8-5.1c-0.7-2-0.4-3.7-0.7-5.7c-0.6-4-2.6-9.3-6.5-10.5
						c-1.9-0.6-4.3-1-6.1-0.3c-2.5,1-5.2,2-5.1,5.3C217,133.1,217.2,133.6,217.6,137z"/>
				</g>
				<path class="st5" d="M193.8,190.2c0,0,0.5,1.6-1.3,1.2l-1.8-1.5c0,0-0.6-0.3-0.4-0.9c0,0,0.2-0.3,0.8,0L193.8,190.2z"/>
			</g>
		</g>
	</g>
	<g>
		<ellipse class="st48" cx="234.3" cy="14.1" rx="6.2" ry="6.6"/>
		<ellipse class="st48" cx="41.5" cy="293.4" rx="6.2" ry="6.6"/>
		<ellipse class="st49" cx="37.1" cy="64.7" rx="4.4" ry="4.8"/>
		<ellipse class="st49" cx="292" cy="100.4" rx="4.4" ry="4.8"/>
		<ellipse class="st50" cx="169.6" cy="54.5" rx="4.4" ry="4.8"/>
		<ellipse class="st51" cx="18.5" cy="164.6" rx="4.4" ry="4.8"/>
		<ellipse class="st51" cx="295.6" cy="195.9" rx="4.4" ry="4.8"/>
		<ellipse class="st35" cx="136.4" cy="4.8" rx="4.4" ry="4.8"/>
		<ellipse class="st35" cx="275.1" cy="269.7" rx="4.4" ry="4.8"/>
	</g>
	<g>
		<g>
			<g>
				<line class="st52" x1="1" y1="201.7" x2="14.9" y2="201.7"/>
				<line class="st52" x1="16.9" y1="201.7" x2="23.9" y2="201.7"/>
			</g>
			<g>
				<line class="st53" x1="269.9" y1="233.5" x2="286" y2="233.5"/>
				<line class="st53" x1="288.4" y1="233.5" x2="296.5" y2="233.5"/>
			</g>
			<g>
				<line class="st52" x1="139.6" y1="290.1" x2="125.7" y2="290.1"/>
				<line class="st52" x1="123.6" y1="290.1" x2="116.7" y2="290.1"/>
			</g>
			<g>
				<line class="st52" x1="256.8" y1="32.2" x2="262.6" y2="32.2"/>
				<line class="st52" x1="264.1" y1="32.2" x2="269.1" y2="32.2"/>
				<line class="st52" x1="250" y1="32.2" x2="255" y2="32.2"/>
			</g>
			<line class="st52" x1="275.8" y1="137.4" x2="296.2" y2="137.4"/>
			<g>
				<line class="st52" x1="169.7" y1="25.8" x2="171.6" y2="27.9"/>
				<line class="st52" x1="173" y1="29.3" x2="174.9" y2="31.4"/>
				<line class="st52" x1="174.9" y1="25.8" x2="173" y2="27.9"/>
				<line class="st52" x1="171.6" y1="29.3" x2="169.7" y2="31.4"/>
			</g>
			<g>
				<line class="st52" x1="7.2" y1="95.8" x2="9.1" y2="97.9"/>
				<line class="st52" x1="10.5" y1="99.3" x2="12.4" y2="101.4"/>
				<line class="st52" x1="12.4" y1="95.8" x2="10.5" y2="97.9"/>
				<line class="st52" x1="9.1" y1="99.3" x2="7.2" y2="101.4"/>
			</g>
			<g>
				<line class="st52" x1="152.9" y1="225.4" x2="154.8" y2="227.5"/>
				<line class="st52" x1="156.2" y1="229" x2="158.1" y2="231.1"/>
				<line class="st52" x1="158.1" y1="225.4" x2="156.2" y2="227.5"/>
				<line class="st52" x1="154.8" y1="229" x2="152.9" y2="231.1"/>
			</g>
			<ellipse class="st52" cx="58.1" cy="55" rx="2.4" ry="2.6"/>
			<ellipse class="st52" cx="216.5" cy="67.1" rx="2.4" ry="2.6"/>
		</g>
	</g>
</g>
</svg>
