<?xml version="1.0" encoding="utf-8"?>
<!-- Generator: Adobe Illustrator 21.1.0, SVG Export Plug-In . SVG Version: 6.00 Build 0)  -->
<svg version="1.1" id="Layer_1" xmlns="http://www.w3.org/2000/svg" xmlns:xlink="http://www.w3.org/1999/xlink" x="0px" y="0px"
	 viewBox="0 0 300 300" style="enable-background:new 0 0 300 300;" xml:space="preserve">
<style type="text/css">
	.st0{fill:#6FA7DB;}
	.st1{fill:#2B5434;}
	.st2{fill:#62A953;}
	.st3{fill:#FFFCFF;}
	.st4{fill:#545074;}
	.st5{fill:#C7DBF0;}
	.st6{fill:#FFC5C8;}
	.st7{fill:#C3DCBC;}
	.st8{fill:none;stroke:#545074;stroke-width:2;stroke-linecap:round;stroke-miterlimit:10;}
	.st9{fill:#3B3668;}
	.st10{fill:#FFC4A4;}
	.st11{fill:#FF7077;}
	.st12{fill:#7B4B62;}
	.st13{fill:#C9C7C9;}
	.st14{fill:#2A274D;}
	.st15{fill:#E7E6E9;}
	.st16{fill:#5A89B5;}
</style>
<g>
	<path class="st0" d="M297.9,231.6C297.9,231.6,297.9,231.6,297.9,231.6c0-11.5-6-20.9-13.6-22.1c0-0.1,0-0.1,0-0.2
		c0-6.9-3.9-12.4-8.6-12.4c-3.3,0-6.1,2.6-7.6,6.5c-2.4-2.1-5.2-3.4-8.3-3.4c-7.3,0-13.5,7.2-15.3,16.9c-0.7-0.2-1.4-0.4-2.2-0.4
		c-5.6,0-10.1,6.5-10.1,14.6c0,0.1,0,0.3,0,0.4H297.9z"/>
	<path class="st1" d="M4.8,300C4.8,300,4.8,299.9,4.8,300c0-25.5,13.2-46.3,30.3-49.2c0-0.1,0-0.2,0-0.3c0-15.2,8.6-27.6,19.1-27.6
		c7.3,0,13.6,5.9,16.8,14.5c5.4-4.7,11.7-7.5,18.4-7.5c16.3,0,30,16,34,37.6c1.6-0.5,3.2-0.8,4.9-0.8c12.4,0,22.4,14.5,22.4,32.3
		c0,0.3,0,0.6,0,0.9H4.8z"/>
	<path class="st1" d="M289.7,300C289.7,300,289.7,299.9,289.7,300c0-25.5-13.2-46.3-30.3-49.2c0-0.1,0-0.2,0-0.3
		c0-15.2-8.6-27.6-19.1-27.6c-7.3,0-13.6,5.9-16.8,14.5c-5.4-4.7-11.7-7.5-18.4-7.5c-16.3,0-30,16-34,37.6c-1.6-0.5-3.2-0.8-4.9-0.8
		c-12.4,0-22.4,14.5-22.4,32.3c0,0.3,0,0.6,0,0.9H289.7z"/>
	<path class="st2" d="M94.5,300C94.5,300,94.5,300,94.5,300c0-16.5-8.6-30-19.6-31.9c0-0.1,0-0.1,0-0.2c0-9.9-5.5-17.9-12.4-17.9
		c-4.7,0-8.8,3.8-10.9,9.4c-3.5-3.1-7.5-4.9-11.9-4.9c-10.5,0-19.4,10.3-22,24.4c-1-0.3-2.1-0.5-3.2-0.5c-8,0-14.5,9.4-14.5,21
		c0,0.2,0,0.4,0,0.6H94.5z"/>
	<path class="st0" d="M120,81.9C120,81.8,120,81.8,120,81.9c0-16.2-8.4-29.5-19.3-31.3c0-0.1,0-0.1,0-0.2c0-9.7-5.4-17.5-12.2-17.5
		c-4.6,0-8.7,3.7-10.7,9.2c-3.4-3-7.4-4.8-11.7-4.8c-10.4,0-19.1,10.1-21.6,23.9c-1-0.3-2-0.5-3.1-0.5c-7.9,0-14.3,9.2-14.3,20.6
		c0,0.2,0,0.4,0,0.6H120z"/>
	<path class="st2" d="M205.5,300C205.5,300,205.5,300,205.5,300c0-16.5,8.6-30,19.6-31.9c0-0.1,0-0.1,0-0.2
		c0-9.9,5.5-17.9,12.4-17.9c4.7,0,8.8,3.8,10.9,9.4c3.5-3.1,7.5-4.9,11.9-4.9c10.5,0,19.4,10.3,22,24.4c1-0.3,2.1-0.5,3.2-0.5
		c8,0,14.5,9.4,14.5,21c0,0.2,0,0.4,0,0.6H205.5z"/>
	<g>
		<rect x="38.3" y="92.9" class="st3" width="164.9" height="169.5"/>
		<rect x="47.3" y="108.1" class="st4" width="144" height="19"/>
		<rect x="135.5" y="138.6" class="st5" width="26.7" height="21.4"/>
		<rect x="106.4" y="138.6" class="st5" width="26.7" height="21.4"/>
		<rect x="77.2" y="138.6" class="st5" width="26.7" height="21.4"/>
		<rect x="48.1" y="138.6" class="st6" width="26.7" height="21.4"/>
		<rect x="164.6" y="138.6" class="st7" width="26.7" height="21.4"/>
		<rect x="135.5" y="166.9" class="st5" width="26.7" height="21.4"/>
		<rect x="106.4" y="166.9" class="st6" width="26.7" height="21.4"/>
		<rect x="77.2" y="166.9" class="st5" width="26.7" height="21.4"/>
		<rect x="48.1" y="166.9" class="st6" width="26.7" height="21.4"/>
		<rect x="164.6" y="166.9" class="st6" width="26.7" height="21.4"/>
		<rect x="135.5" y="195.9" class="st5" width="26.7" height="21.4"/>
		<rect x="106.4" y="195.9" class="st5" width="26.7" height="21.4"/>
		<rect x="77.2" y="195.9" class="st5" width="26.7" height="21.4"/>
		<rect x="48.1" y="195.9" class="st5" width="26.7" height="21.4"/>
		<rect x="164.6" y="195.9" class="st5" width="26.7" height="21.4"/>
		<rect x="135.5" y="224.2" class="st6" width="26.7" height="21.4"/>
		<rect x="106.4" y="224.2" class="st5" width="26.7" height="21.4"/>
		<rect x="77.2" y="224.2" class="st5" width="26.7" height="21.4"/>
		<rect x="48.1" y="224.2" class="st5" width="26.7" height="21.4"/>
		<rect x="164.6" y="224.2" class="st5" width="26.7" height="21.4"/>
	</g>
	<g>
		<path class="st0" d="M182.7,17.6c0,0,11.5,3.9,18.7,14.7c7.2,10.8-31,39.2-31,39.2s-11-15.2-4.5-41.2
			C172.5,4.2,182.7,17.6,182.7,17.6z"/>
		<ellipse class="st4" cx="211.7" cy="116.4" rx="62.9" ry="90.7"/>
		<ellipse class="st3" cx="211.7" cy="116.4" rx="56.8" ry="82"/>
		<path class="st8" d="M177.5,145.9c-3.6-8.6-5.6-18.7-5.6-29.5c0-25.5,11.5-47.2,27.5-54.7"/>
		<path class="st8" d="M251.6,116.4c0,31.8-17.9,57.6-39.9,57.6"/>
		<path class="st9" d="M181.9,15.7c0,0,1.1-2.2,1-6.3c-0.1-4.2-3-7.2-4.1-6.5c-1.2,0.7-2.2,3-4.4,4.1c-2.2,1.1-7.8,3.3-9.1,7.2
			c-1.3,3.9-0.3,9.8-0.3,9.8s-1.4,4.5,0.5,8.1c1.8,3.6,6.1,3.1,7.9,2C175.2,32.9,181.9,15.7,181.9,15.7z"/>
		<path class="st10" d="M181.9,15.7c0,0,1.2,10.1,1.6,13.8c0.3,3.7,0.1,6.9-2.2,8.3c-2.2,1.4-9.3-1.9-9.3-1.9s-2.1,1-3-1.5
			c-0.9-2.6-0.3-4.2,0.6-3.8c1,0.4,2.5,1.7,2.5,1.7l-2.8-9.8C169.5,22.6,175.3,14.7,181.9,15.7z"/>
		<polygon class="st0" points="171.5,38.3 188.7,81.9 181.1,91.4 165.4,53.6 		"/>
		<path class="st0" d="M188.7,20.5c0,0,16.5,8.5,18.1,15c1.5,6.5-15.3,11.3-15.3,11.3l-2.8-11.2l7.8-7.2L188.7,20.5z"/>
		<path class="st10" d="M188.7,81.9c0,0,2.6,4.5,2.9,5.7c0.3,1.2,2.7,9.4,2.8,10.3s-1.2,1-1.9-0.5c-0.5-1.2-1.5-3.8-1.5-3.8
			s-3.2,2.8-4.3,2.8c-1.1-0.1-2.4-0.4-2.5-1.3c-0.2-0.9-1.5-5.5-1.5-5.5L188.7,81.9z"/>
		<path class="st10" d="M188.7,35.6c0,0-1.9,0.5-3.5,1.4c-1.5,0.8-3.5,3.7-3.9,5.8c-0.4,2.1,1.3,5.9,2.2,6.8s2.1-1.2,3.3-1.7
			c1.3-0.4,4.2-2.5,4.2-2.5L188.7,35.6z"/>
	</g>
	<path class="st11" d="M246.5,92.9L246.5,92.9c0.5,1.3,0.1,3-0.9,3.6l-33,23.1c-0.9,0.7-2.1,0.1-2.5-1.3l0,0c-0.5-1.3-0.1-3,0.9-3.6
		l33-23.1C244.9,91,246.1,91.5,246.5,92.9z"/>
	<ellipse class="st4" cx="211.7" cy="116.4" rx="5.1" ry="7.3"/>
	<g>
		<path class="st12" d="M241,285.8l-7.5,4.8c-1.6,1-2.6,3.3-2.6,5.9v2.6h18v-13.3H241z"/>
		<rect x="230.9" y="296.3" class="st13" width="18" height="2.8"/>
		<path class="st14" d="M237.7,239.9l3.3,45.9h8c0,0,1.3-23.3,1.3-29.5c0-6.2-3-19.7-3-19.7l3.9-19.5
			C251.2,217,237.7,236.1,237.7,239.9z"/>
		<path class="st9" d="M261.8,149.9c0,0,3.3,2.6,3.9,4.3s0.6,3.7,0.6,3.7s3.6,1.6,3.9,5.8c0.3,4.2-1,8.2-1,8.2s3.9,4.8,1.5,13.1
			c-2.4,8.2-10,2.7-11.3-1.7c-1.3-4.4-1-10.5,0-15c1-4.5,1.5-12.5-0.3-15.5C257.4,149.9,261.8,149.9,261.8,149.9z"/>
		<path class="st11" d="M261.8,146.8c0,0,0.8,1.8,0.5,3.5c-0.4,1.7-1.7,4.1-2.7,4.7c-0.9,0.6-1.8-0.9-1.8-0.9L261.8,146.8z"/>
		<path class="st10" d="M247.2,153.5c0,0-2.9-0.7-3-2.5c-0.2-1.9,0.6-6.5,0.4-7.3c-0.2-0.8-1-1.8-0.9-2.6c0.1-0.8,1.9-2,2.4-3.5
			c0.5-1.5,1.6-5.8,4.5-6.9c2.9-1,9.5-0.1,10.9,9.5c1.4,9.6-6.3,16.3-6.3,16.3l-1,5.5h-8.7L247.2,153.5z"/>
		<path class="st9" d="M252.7,147.8c0,0,0.9-5.8,0.8-10.5c-0.1-4.7-2.9-6.4-2.9-6.4s-0.1-1.7,1.5-1.8c1.5-0.1,6.5-0.4,8.9,6
			c2.3,6.4,1.6,12.2,0.3,15.8c-1.3,3.6-6,5.7-6,5.7l-2.3-1.9c0,0,1.8-0.3,2.4-3.6C255.9,147.9,254.3,146.5,252.7,147.8z"/>
		<path class="st11" d="M254.3,162.1c0,0,1.2,3.2,1.1,6.9c-0.1,3.7-3.2,14-4.1,19.5c-1,5.5-1,10.9-1,10.9l-13.4,2.2
			c0,0,1.2-10,0.9-13.6c-0.4-3.6-1.5-6.6-0.4-11.2c1.2-4.6,8.3-14.8,8.3-14.8H254.3z"/>
		<polygon class="st9" points="254.7,163.7 254.5,161 245,161 243.4,165.4 		"/>
		<path class="st9" d="M250.2,199.5c0,0,2,8.2,1.3,15.2c-0.7,7.1-7.9,22-7.9,22s0.9,5.2,0,12.7c-0.9,7.5-5.5,36.3-5.5,36.3h-7.9
			c0,0,1.3-39.7,1.9-50.3c0.6-10.6,4.7-33.8,4.7-33.8L250.2,199.5z"/>
		<path class="st10" d="M236,184.5c0,0,8.3-12.7,10.1-14s4.8,1,4,7c-0.7,6-12.2,18.7-14.2,19.1c-2.1,0.3-10.4-18.7-10.4-18.7
			s-4.9-1.1-5.2-3c-0.3-1.9,1.1-8.4,1.1-8.4s-2.2-4-2.5-5.7c-0.3-1.7,0.5-2.6,1.1-1.9c0.6,0.7,7.4,12.8,7.4,12.8L236,184.5z"/>
		<path class="st11" d="M230.2,285.8l-7.5,4.8c-1.6,1-2.6,3.3-2.6,5.9v2.6h18v-13.3H230.2z"/>
		<rect x="220.1" y="296.3" class="st15" width="18" height="2.8"/>
	</g>
	<g>
		<path class="st9" d="M188.4,280.1c0,0,1.4,18.5-6.8,18.9c-13.5,0.7-25.2-18.2-25.2-18.2l1.4-16.6l10.4,4.4L188.4,280.1z"/>
		<path class="st0" d="M175.6,227.4c0,0-3.2,4.9-5.5,9.4c-2.2,4.5-3.3,7.1-3,10.6c0.3,3.5,2.1,9.4,1.9,13.1c-0.2,3.7-1,8.1-1,8.1
			s5.1,4.9,11.5,8.3c6.1,3.2,8.8,3.2,8.8,3.2s-1-21.8-1.7-30.7c-0.7-8.9-3.3-24.3-3.3-24.3L175.6,227.4z"/>
		<path class="st10" d="M180.8,226.2l-5.2,1.2c0,0-0.2-3-2.3-4c-2.1-1-4.6-1.5-5-3.4c-0.4-1.9,1.7-7.6,1.7-7.6s-0.9-2.6-0.7-3.3
			c0.3-0.7,1.5,0.2,2.6-0.8c1.1-0.9,0.4-6.4,3.7-6.9s6.4,4.7,6.4,4.7s3.9,14.7,3.3,16.1C184.8,223.7,180.8,226.2,180.8,226.2z"/>
		<path class="st9" d="M172,208.4c0,0-0.5-4.7,1.1-8.5c1.5-3.9,3.8-4.3,5.3-3.3c1.2,0.9,1.5,1.9,1.5,1.9s5.7,1.2,7.8,6.1
			c2.2,4.9,1.4,14.9,3.4,19.2c2,4.3,2.7,4.9,3.2,5.3c0.5,0.4-4.7,5-9,2.8c-4.2-2.2-6.1-6.8-6.1-6.8l1.6-1.7c0,0,1.8,0.6,2.7-1.6
			c0.9-2.1-0.4-3.6-1.3-3.4c-0.9,0.2-2.8-1.2-3.6-4.3c-0.9-3.1-1.8-11.4-1.8-11.4s-1.7,0-2.9,2.6C173.1,207.3,172,208.4,172,208.4z"
			/>
		<path class="st10" d="M157.7,264.2c0,0-3.4-1.7-6.1,0c-2.8,1.7-17.9,20.8-17.9,20.8l4.3,8.4c0,0,7.7-6.6,12.1-9.1
			c4.5-2.5,6.2-3.6,6.2-3.6L157.7,264.2z"/>
		<path class="st0" d="M137.9,293.5l-5.2,5.6l-11.2-15.5l1.2-1.3c1.1-1.2,2.6-1.5,3.9-0.9l7,3.7L137.9,293.5z"/>
		<polygon class="st15" points="122.7,282.2 134,297.7 132.7,299 121.5,283.5 		"/>
		<path class="st16" d="M181.8,257l3.1-11.7c0,0-1.8,14.4-3.1,19.7c-1.5,6.4-10.6,2.6-13.4,1.9c0.3-1.6,0.6-4.2,0.8-6.4
			c0-0.4,0-0.9,0-1.4L181.8,257z"/>
		
			<rect x="147.8" y="259.3" transform="matrix(-1 -1.224647e-16 1.224647e-16 -1 315.3162 523.3752)" class="st4" width="19.7" height="4.7"/>
		<path class="st4" d="M150.9,262.3l-7.4-26.3l-1,0.6c-1.1,0.7-1.7,2.5-1.2,4.2l6.6,23.3L150.9,262.3z"/>
		<path class="st10" d="M175.5,249.7l6.3,7.3c0,0-2.5,6-4,7.1s-17-3.2-17-3.2l-8.3-1.7c0,0,1.4-6.2,3.6-6.2c2.2,0.1,5.9,2.3,5.9,2.3
			l11.7-0.3L175.5,249.7z"/>
	</g>
	<g>
		<path class="st10" d="M82.5,142.6c0,0,2.2,3.3,2.1,4.1c-0.1,0.9-1.6,2.1-1.6,2.1s-0.1,6.8-0.9,7.7c-0.8,0.9-3.4,0-3.4,0v2.3h-9.2
			c0,0-1.7-8.9-1.2-13.2C68.8,141.3,82.5,142.6,82.5,142.6z"/>
		<path class="st9" d="M73.4,149.7c0,0-1.8-1.8-2.4,0c-0.6,1.8,0.3,4,0.3,4l-2.2,3c0,0-4.7-10-5.1-11.7c-0.4-1.7,0.2-7.1,3.1-11.1
			c2.8-4.1,9.2-7.1,11.6-6.1c2.4,1,4.1,2.7,5.6,6.8c1.5,4.1-0.5,7.8-3.1,9.1c-2.7,1.4-5.8,2.7-5.8,2.7S75.5,150.3,73.4,149.7z"/>
		<polygon class="st3" points="65.6,162.7 66.9,158.8 80.1,158.8 81,165.9 		"/>
		<path class="st9" d="M90.3,184.8l-5-14.4c-1.2-3.5-3.7-5.9-6.4-6.2l-13.2-1.5c0,0-3.9,6.3-4.1,11.1c-0.2,4.8,1.1,23.2,1.1,25.5
			s1.9,4.9,1.9,4.9H86c0,0,0.6-2.1,1.3-6.6C88.1,193.1,90.3,184.8,90.3,184.8z"/>
		<path class="st10" d="M90.3,184.8l-4.9,6.8c0,0,2.8,10.2,5.9,10.4c3.1,0.3,8.5-20.4,8.5-20.4s2.3-2.6,2.9-5.7
			c0.6-3.1,0.8-4.9,0.3-6.1c-0.5-1.2-2.2-2.5-2.2-2.5s1.4-4.6,1-5.2c-0.5-0.6-3.2,3.3-3.7,4.6c-0.5,1.3-2,10.9-2,10.9l-4.6,10.7
			L90.3,184.8z"/>
		<polygon class="st11" points="86,204.2 90.3,290.4 80.6,290.4 75.3,225.7 74.3,290.4 64.5,290.4 64.5,204.2 		"/>
		<path class="st14" d="M74.3,290.4l5.5,2c1.7,0.6,3,2.9,3,5.5v1.1H64.5l0.1-8.6H74.3z"/>
		<path class="st9" d="M90.3,290.4l5.5,2c1.7,0.6,3,2.9,3,5.5v1.1H80.5l0.1-8.6H90.3z"/>
	</g>
	<path class="st4" d="M211.7,119.8L211.7,119.8c-2,0-3.7-2.4-3.7-5.3V72.1c0-2.9,1.7-5.3,3.7-5.3l0,0c2,0,3.7,2.4,3.7,5.3v42.3
		C215.4,117.4,213.8,119.8,211.7,119.8z"/>
	<path class="st4" d="M213,116.1L213,116.1c1.4,2.1,1.3,5.5-0.1,7.5l-27.7,38.1c-1.5,2-3.8,1.9-5.2-0.2l0,0
		c-1.4-2.1-1.3-5.5,0.1-7.5l27.7-38.1C209.3,113.9,211.6,114,213,116.1z"/>
	<ellipse class="st0" cx="19.1" cy="207.1" rx="1.8" ry="2.5"/>
	<ellipse class="st0" cx="146" cy="5.6" rx="1.8" ry="2.5"/>
	<ellipse class="st0" cx="31.7" cy="150.6" rx="2.6" ry="3.7"/>
	<ellipse class="st0" cx="286" cy="249.7" rx="1.9" ry="2.8"/>
	<ellipse class="st0" cx="202.3" cy="2.8" rx="1.9" ry="2.8"/>
	<ellipse class="st0" cx="289.7" cy="166.9" rx="3.8" ry="5.5"/>
	<ellipse class="st0" cx="120.9" cy="50.8" rx="2.7" ry="3.8"/>
</g>
</svg>
