<?xml version="1.0" encoding="utf-8"?>
<!-- Generator: Adobe Illustrator 21.1.0, SVG Export Plug-In . SVG Version: 6.00 Build 0)  -->
<svg version="1.1" id="Layer_1" xmlns="http://www.w3.org/2000/svg" xmlns:xlink="http://www.w3.org/1999/xlink" x="0px" y="0px"
	 viewBox="0 0 300 300" style="enable-background:new 0 0 300 300;" xml:space="preserve">
<style type="text/css">
	.st0{opacity:0.95;fill:url(#SVGID_1_);}
	.st1{fill:#96BFE6;}
	.st2{opacity:0.95;fill:url(#SVGID_2_);}
	.st3{fill:#4598E6;}
	.st4{fill:url(#SVGID_3_);}
	.st5{opacity:0.95;fill:url(#SVGID_4_);}
	.st6{fill:#385369;}
	.st7{fill:#EEA886;}
	.st8{fill:#434343;}
	.st9{fill:#A77860;}
	.st10{fill:#0E2D3D;}
	.st11{fill:#163342;}
	.st12{fill:#1D3B54;}
	.st13{fill:#285173;}
	.st14{fill:#FFBF55;}
	.st15{fill:#183C59;}
	.st16{fill:#616161;}
	.st17{fill:#E0CEC7;}
	.st18{fill:#EEA987;}
	.st19{fill:url(#SVGID_5_);}
	.st20{fill:url(#SVGID_6_);}
	.st21{fill:url(#SVGID_7_);}
	.st22{fill:url(#SVGID_8_);}
	.st23{fill:url(#SVGID_9_);}
	.st24{fill:#FFFFFF;}
	.st25{fill:url(#SVGID_10_);}
	.st26{fill:url(#SVGID_11_);}
	.st27{opacity:0.95;fill:url(#SVGID_12_);}
	.st28{fill:#344052;}
	.st29{fill:#EB4747;}
	.st30{fill:#393D63;}
	.st31{fill:#DECBC4;}
	.st32{fill:#E8734D;}
	.st33{fill:#3C4145;}
	.st34{fill:#51565C;}
	.st35{fill:#F5E2D9;}
	.st36{fill:#D44040;}
	.st37{fill:#2D3133;}
	.st38{fill:#292C47;}
	.st39{fill:#424773;}
	.st40{fill:#3A3F47;}
	.st41{fill:#E2D2CA;}
	.st42{fill:#323657;}
	.st43{fill:#FFDF69;}
	.st44{fill:#AB9546;}
	.st45{opacity:0.95;}
	.st46{fill:url(#SVGID_13_);}
	.st47{fill:url(#SVGID_14_);}
	.st48{fill:url(#SVGID_15_);}
	.st49{fill:url(#SVGID_16_);}
	.st50{fill:url(#SVGID_17_);}
	.st51{fill:url(#SVGID_18_);}
	.st52{fill:url(#SVGID_19_);}
	.st53{fill:url(#SVGID_20_);}
	.st54{fill:url(#SVGID_21_);}
	.st55{fill:url(#SVGID_22_);}
	.st56{fill:url(#SVGID_23_);}
</style>
<g>
	<linearGradient id="SVGID_1_" gradientUnits="userSpaceOnUse" x1="153.1564" y1="208.7496" x2="145.989" y2="78.8372">
		<stop  offset="0" style="stop-color:#D1D7E0"/>
		<stop  offset="1" style="stop-color:#EBEBFF"/>
	</linearGradient>
	<path class="st0" d="M147.2,137.7H146c-20.5,0-37.1-16.6-37.1-37.1V79.2c0-20.5,16.6-37.1,37.1-37.1h1.3
		c20.5,0,37.1,16.6,37.1,37.1v21.4C184.3,121.1,167.7,137.7,147.2,137.7z"/>
	<rect x="129.1" y="116" class="st1" width="34.9" height="2.2"/>
	<rect x="134.1" y="122.8" class="st1" width="25" height="2.2"/>
	<linearGradient id="SVGID_2_" gradientUnits="userSpaceOnUse" x1="248.369" y1="251.3606" x2="248.369" y2="112.0989">
		<stop  offset="0" style="stop-color:#D1D7E0"/>
		<stop  offset="1" style="stop-color:#EBEBFF"/>
	</linearGradient>
	<path class="st2" d="M249.2,228.8h-1.7c-28,0-50.8-22.7-50.8-50.8v-52c0-28,22.7-50.8,50.8-50.8h1.7c28,0,50.8,22.7,50.8,50.8v52
		C300,206.1,277.3,228.8,249.2,228.8z"/>
	<g>
		<rect x="243.6" y="165.9" class="st3" width="8.2" height="1.9"/>
	</g>
	<g>
		<rect x="212.5" y="183.5" class="st1" width="47.7" height="3.7"/>
		<rect x="212.5" y="201.3" class="st1" width="38.5" height="3.7"/>
		<rect x="212.5" y="192.4" class="st1" width="22.6" height="3.7"/>
	</g>
	<g>
		<path class="st3" d="M272.6,90.6v1.9h8.7v10.4h1.5V90.6H272.6z M213.3,102.9h1.5V92.5h8.7v-1.9h-10.2V102.9z M281.3,156.4v10.4
			h-8.7v1.9h10.2v-12.3H281.3z M214.8,156.4h-1.5v12.3h10.2v-1.9h-8.7V156.4z"/>
	</g>
	<g>
		<g>
			<path class="st3" d="M278.2,205.3c-4.8,0-8.7-5-8.7-11.1c0-6.1,3.9-11.1,8.7-11.1s8.7,5,8.7,11.1
				C286.9,200.4,283,205.3,278.2,205.3z M278.2,185.3c-3.9,0-7,4-7,8.9c0,4.9,3.2,8.9,7,8.9s7-4,7-8.9
				C285.2,189.3,282.1,185.3,278.2,185.3z"/>
		</g>
		<g>
			<polygon class="st3" points="277.6,198.6 273.7,193.6 274.9,192.1 277.6,195.6 281.5,190.7 282.7,192.2 			"/>
		</g>
	</g>
	<linearGradient id="SVGID_3_" gradientUnits="userSpaceOnUse" x1="0" y1="291.5984" x2="283.4336" y2="291.5984">
		<stop  offset="5.208330e-03" style="stop-color:#1A2257"/>
		<stop  offset="1" style="stop-color:#5E60F2"/>
	</linearGradient>
	<ellipse class="st4" cx="141.7" cy="291.6" rx="141.7" ry="8.4"/>
	<linearGradient id="SVGID_4_" gradientUnits="userSpaceOnUse" x1="146.6009" y1="165.3634" x2="146.6009" y2="63.5343">
		<stop  offset="0" style="stop-color:#D1D7E0"/>
		<stop  offset="1" style="stop-color:#EBEBFF"/>
	</linearGradient>
	<rect x="121.2" y="45.7" class="st5" width="50.9" height="55.3"/>
	<g>
		<path class="st6" d="M166,79.4c-1.7-5.6-5.7-8.2-7.6-9c-0.7-0.3-1.9-0.8-3.2-1.3c-2.3-0.9-4.8-2-4.8-2h-7.9c0,0-2.7,1.2-5.7,2.5
			c0,0,0,0,0,0c-2.7,1.2-5.5,2.5-6.5,3.1c-2,1.3-5.3,10.3-6,11.3c-0.3,0.5-1.9,4-3.4,7.9h8.5c0.9-2,1.6-3.5,1.6-3.5s0.5,1.5,1.2,3.5
			h27.3c0.4-2.3,0.7-5.2,0.7-5.2s1.5,2.5,3.1,5.2h7.9C169.3,87.8,167,82.5,166,79.4z"/>
		<g>
			<path class="st7" d="M147.5,39.6c0,0,6.2,1.2,5.2,13.5c-0.9,12.3-6.4,11.3-6.8,11.2c-0.4,0-5.5,0.2-5.9-14.8
				C140.1,49.6,139.9,38.5,147.5,39.6z"/>
		</g>
		<g>
			<path class="st7" d="M152.8,49.6c0,0,0.7-0.9,0.9,0c0.2,0.9-0.9,5.1-1,5.3c0,0-0.1,0.4-0.3,0.2C152.3,54.8,152.8,49.6,152.8,49.6
				z"/>
		</g>
		<g>
			<path class="st7" d="M140.2,49.4c0,0-0.7-0.9-0.9,0c-0.3,0.9,0.8,5.1,0.9,5.3c0,0,0.1,0.4,0.3,0.2
				C140.6,54.7,140.2,49.4,140.2,49.4z"/>
		</g>
		<g>
			<path class="st8" d="M152.8,51.5l-0.9,1.5c0,0,0-3.3-0.1-3.8c-0.1-0.5-0.4-2.1-0.5-2.5c-0.1-0.4-5.3-2.2-9.9,0.5
				c0,0,0.2,2.4-0.2,2.6c-0.4,0.2-0.2,3.9-0.2,3.9l-0.7-1c0,0-1.1-9.4-0.8-10.4c0.3-1,1.2-6.9,10.6-3.4c0,0,2.9-0.8,3.5,1.8
				C154.1,43.2,152.8,51.5,152.8,51.5z"/>
		</g>
		<path class="st7" d="M151.2,66.9c0,0-0.8-0.5-0.8-0.5c-0.4-1.1-0.1-5.7-0.1-5.7s-7.9-2.5-7.7-0.6c0.2,1.9-0.7,6.5-0.7,6.5l-4,2.5
			c0,0,4.3,14.7,9.3,12.8c5-1.9,6.8-13.3,6.8-13.3L151.2,66.9z"/>
		<path class="st9" d="M142.8,62.3c0,0,1.3,2.1,3.5,2.1c1.4,0,2.5-0.5,3.9-2.3c0,0-0.6,3.4-3.9,3.7
			C146.3,65.7,143.9,66.1,142.8,62.3z"/>
	</g>
	<g>
		<g>
			<g>
				<g>
					<g>
						<g>
							<path class="st10" d="M120,111.5c0,0,4.5,2.8,3.4,10.5c-1.1,7.7-1.6,8.7-0.4,11.7c1.3,3,2.7,15.8,1.6,18.2
								c-1.1,2.4-14-10.6-15.8-21.6c-1.8-11,1.1-15.8,2.2-17.7C112.1,110.8,116,108.9,120,111.5z"/>
						</g>
					</g>
				</g>
			</g>
		</g>
		<g>
			<path class="st11" d="M118.3,289.4h1v-6.2c0,0,2,1.7,3.3,4.1c1.3,2.4,3,2.2,5.7,2c2.7-0.2,2.5-1.5,2.3-3.4
				c-0.2-1.9-2.9-2.5-3.8-2.8c-0.9-0.3-2.9-4.6-3.5-5.7c-0.9-1.4-1.3-2.8-1.3-2.8s-0.5-2.6-3,0c-2.5,2.6-1.7,7.5-1.5,7.9
				C117.9,283,118.3,289.4,118.3,289.4z"/>
		</g>
		<g>
			<path class="st7" d="M123.5,283.1c0.9,0.8,3.3,0,3.3,0c-0.7-1.1-4.8-8.5-4.8-8.5c-2.5-1.9-3.5,0.7-3.5,0.7
				C119.5,275.7,122.6,282.3,123.5,283.1z"/>
		</g>
		<g>
			<g>
				<g>
					<g>
						<path class="st7" d="M150,169.5c0,0,1.7,0.4,2.2-0.6c0.5-0.8,1.6-1.5,1.9-1.7c0.5-0.3,1.6-1.7,1.9-1c0.3,0.7-1.8,2.5-2.2,3
							c-0.4,0.5,2,0.7,2.4,1.2c0.4,0.5-0.1,5.5-1.7,5.1c-1.6-0.4-3.2-2.2-3.5-2.2c-0.3,0-1.2-0.2-1.2-0.2L150,169.5z"/>
					</g>
				</g>
			</g>
		</g>
		<g>
			<g>
				<g>
					<g>
						<path class="st7" d="M155.9,170.2c0,0,4.9,1.6,5.2,2.1c0.3,0.5,0.2,0.8-0.3,0.7c-0.5-0.1-4.8-1.4-4.8-1.4s5.6,3.2,5.9,3.5
							c0.2,0.2,0,0.8-0.2,0.8c-0.3,0-5.9-2.8-5.9-2.8s5.2,3,5.4,3.3c0.1,0.3-0.1,0.9-0.5,0.7c-0.4-0.2-5.4-2.6-5.4-2.6
							s3.7,2.5,3.7,2.9c0,0.2-0.1,0.8-1,0.2c-0.9-0.7-3.3-2-3.3-2L155.9,170.2z"/>
					</g>
				</g>
			</g>
		</g>
		<g>
			<path class="st11" d="M105,289.8h0.6v-4.5c0,0,1.1,1.5,1.6,3.6c0.5,2.2,2.4,2.8,5.2,2.7c2.8-0.1,2.9-1.5,2.6-3.6
				c-0.2-2.1-2.6-3.2-2.6-3.2c-1.1-1.2-3.7-6.2-3.7-6.2s-1.7-0.6-3,0.8c-1.3,1.4-0.9,4.5-0.9,5.3C104.8,285.4,105,289.8,105,289.8z"
				/>
		</g>
		<g>
			<path class="st12" d="M106.9,182.1c0,0-3.4,5.5-4.3,12.1c-0.9,6.6,0.5,28.5,0.5,31.8c0,3.2-2.4,11.3-1.9,17.4s2.4,36.5,2.4,36.5
				l5.1-1.3c0,0-0.3-31,0-33.5c0.3-2.6,0.9-11.9,1-13c0.1-1.1,7.5-28.7,7.5-33.5C117.3,193.9,115,174.4,106.9,182.1z"/>
		</g>
		<g>
			<path class="st12" d="M123.8,184.3c0,0,5.5,26.6,6.2,30.3c0.7,3.7,1.6,6.7,1.6,8.3c0,3.6-1.1,9.5-1.1,9.5l-7,42.4h-6.7
				c0,0,3.7-25.4,3.8-30.4c0.1-5,3.1-12.1,2.5-14.2c-0.6-2.1-9.6-26.4-9.6-26.4S106.8,176.5,123.8,184.3z"/>
		</g>
		<g>
			<path class="st7" d="M112.4,284.8l-3.7-6.2l-3,0.8c0,0,0.8,2.8,2.3,4.9C109.7,286.7,112.4,284.8,112.4,284.8z"/>
		</g>
		<g>
			<g>
				<path class="st13" d="M121.5,139c0,0,2.3,0.3,4,2.6c1.7,2.3,3.3,6,3.8,7.3c0.4,1.2,6.8,12.8,7.1,13c0.3,0.3,3.5,1.6,5.6,2.5
					c3.2,1.4,9.7,4.4,9.7,4.4l-1.3,5.2c0,0-12.2-5.1-15.3-6c-3.7-1.2-12.3-15.2-12.3-15.2S116.3,143.3,121.5,139z"/>
			</g>
		</g>
		<g>
			<g>
				<path class="st14" d="M117.5,137c0,0,2.9,1.8,4,2c1,0.3,5,6.8,5.7,9.2c0.7,2.4,0,6-1.4,10.1c-1.4,4.2-0.1,5.6-0.7,9.8
					c-0.7,4.2-0.4,19.9-0.3,22.2c0.1,2.3-19.1,5.9-22.9,1.6c0,0,2.6-14.1,5.6-18.2c0.7-0.9,0.6-6.7,0.1-8.1
					c-0.4-1.4-5.5-12.3-5.5-12.3s-0.4-11,1.8-13.1c1.9-1.9,7.2-2.6,8.1-3C112.9,136.8,115.6,136.6,117.5,137z"/>
			</g>
		</g>
		<g>
			<g>
				<path class="st7" d="M118.9,132.7c0,0-0.1,1-0.2,2.4c0,0.5-0.1,1.2-0.1,1.8c-0.1,1.9-0.2,3.9-0.2,4.9c0,0-3.1,3.9-6.5-4.5
					c0,0,1.5-3.5,0.4-8.2C111.2,124.3,118.9,132.7,118.9,132.7z"/>
			</g>
		</g>
		<g>
			<path class="st15" d="M127.5,159.9c0,0,0.7-6.2,0-10c0,0,0,3.2-1.4,7.8L127.5,159.9z"/>
		</g>
		<g>
			<path class="st7" d="M109.6,137.8c0,0,2.1,7.9,7.9,7.3c5.8-0.6,2.7-6.6,2.7-6.6s-1.4-1-1.8-1.1c-0.4-0.1-6.4-0.2-6.4-0.2
				L109.6,137.8z"/>
		</g>
		<g>
			<path class="st13" d="M120.2,138.5c0,0,3,10.6,3,21.4c0,10.8,0.2,28.4,1.3,34c1.1,5.6,4.1,22.7,4.1,22.7l2.4-1.5
				c0,0-5.7-27.4-6.1-29.4c-0.4-2,0.3-22.9,0.7-24.6c0.4-1.7,2.1-9.5,1.9-11.7c-0.3-2.7-2.4-6.8-5.6-10.2L120.2,138.5z"/>
		</g>
		<g>
			<path class="st13" d="M110.7,137.5c0,0,1.9,7.6,2.8,17.4c1,9.8-2.9,55.1-5.5,65.4L98,218.2c0,0,2.2-32,5.1-37.9
				c2.9-5.8,3.9-11,0.7-23.2c-3.2-12.2,1.4-18.2,1.4-18.2S109.8,137.6,110.7,137.5z"/>
		</g>
		<g>
			<polygon class="st16" points="121.6,169.8 109.4,196.6 95.8,186.7 107.5,159.5 			"/>
		</g>
		<g>
			<polygon class="st17" points="120.1,170.7 109.3,194.5 97.2,185.7 107.6,161.6 			"/>
		</g>
		<g>
			<polygon class="st16" points="116.1,168.6 116.9,166.9 112,163.4 111,164.9 			"/>
		</g>
		<g>
			<g>
				<g>
					<g>
						<g>
							<g>
								<path class="st7" d="M115.5,187.6c0,0-0.6,0-0.8-0.1c0,0-0.4-0.3-0.7-0.5c-0.1-0.1-0.2-0.1-0.2-0.1
									c-0.2-0.1-0.8-0.3-1.4-0.7c-0.5-0.5-2.5-3.3-2.5-3.3l0.9-1.7l0.7-1.8c0,0,4,0.3,4.6,0.7c0.1,0,0.1,0.1,0.2,0.1
									c0.4,0.4,0.6,0.9,0.9,1.1c0.1,0.1,0.8,1,0.8,1.4c0,0.5-0.2,0.9-0.5,1.1c0,0-0.1,1-0.5,1.5c0,0-0.1,1-0.7,1.4
									C116.1,186.5,116,187.5,115.5,187.6z"/>
							</g>
						</g>
					</g>
				</g>
			</g>
		</g>
		<g>
			<g>
				<path class="st13" d="M107.3,139c0,0-3.7-1.3-5.8,3.8c-2.1,5.2-2.1,7.4-2.4,9.9c-0.3,2.4-1.5,8.9-1.6,9.6
					c-0.1,0.7-2.9,8.7-1.6,11.5c1.3,2.8,14.1,11.1,14,11.7c-0.1,0.6,2.2-6.3,2.2-6.3s-5.2-3.7-6-4.8c-1.4-1.8-4.3-3.8-3.7-6.1
					c0.7-2.7,2.8-11.7,3.3-13C106.1,154.1,110.4,140.7,107.3,139z"/>
			</g>
		</g>
		<g>
			<g>
				<g>
					<g>
						<g>
							<path class="st18" d="M119.4,112.3c0,0,6.6,2.6,3,17.1c-3.6,14.4-12.6-1.7-11.7-10.5C111.7,110.1,119.4,112.3,119.4,112.3z"
								/>
						</g>
					</g>
				</g>
			</g>
		</g>
		<g>
			<g>
				<g>
					<g>
						<g>
							<path class="st10" d="M123.1,120.7c0,0-3.3,4.1-8.8,4.6c0,0-2.1,3.1-2.3,4.4c0,0-4.9-10.6,1.1-16.9
								C119.2,106.4,125.3,118.1,123.1,120.7z"/>
						</g>
					</g>
				</g>
			</g>
		</g>
		<g>
			<g>
				<g>
					<g>
						<g>
							<path class="st18" d="M114.4,125.6c0-1.1-0.6-3.4-1.8-2.8s0.1,5.5,0.9,5.2C113.5,128.1,114.5,128.1,114.4,125.6z"/>
						</g>
					</g>
				</g>
			</g>
		</g>
		<g>
			<path class="st9" d="M118.7,135.1c0,0.5-0.1,1.2-0.1,1.8c0,0-2.9-0.2-4.9-5.7C113.9,131.4,116,135.4,118.7,135.1z"/>
		</g>
	</g>
	<g>
		<g>
			
				<linearGradient id="SVGID_5_" gradientUnits="userSpaceOnUse" x1="-5235.7939" y1="223.676" x2="-5217.5718" y2="223.676" gradientTransform="matrix(-1 0 0 1 -5171.543 0)">
				<stop  offset="0" style="stop-color:#3076A1"/>
				<stop  offset="1" style="stop-color:#48C9B6"/>
			</linearGradient>
			<path class="st19" d="M46.4,267.1c4.2-3.8,9.2-30.1,9.5-45.7c0.2-8,2-11.4,3.7-14.3c1.6-2.8,2.9-5.3,2.1-10.8
				c-1.5-10.7,2.5-15.3,2.5-15.3l-0.5-0.7c-0.2,0.2-4.3,5-2.7,16.2c0.7,5.2-0.5,7.4-2,10.2c-1.6,2.9-3.6,6.5-3.8,14.8
				c-0.3,16.8-5.4,41.6-9.2,45L46.4,267.1z"/>
		</g>
		<g>
			
				<linearGradient id="SVGID_6_" gradientUnits="userSpaceOnUse" x1="-5221.6357" y1="242.7287" x2="-5188.5088" y2="242.7287" gradientTransform="matrix(-1 0 0 1 -5171.543 0)">
				<stop  offset="0" style="stop-color:#3076A1"/>
				<stop  offset="1" style="stop-color:#48C9B6"/>
			</linearGradient>
			<path class="st20" d="M37.6,259.4c-0.4-1.1-0.8-2.3-1.3-3.6c-2.4-6.5-4.6-7.5-8.1-9.3c-0.9-0.4-1.9-0.9-2.9-1.5
				c-5.1-2.9-4.1-7.2-3.2-10.9c0.1-0.5,0.2-1.1,0.3-1.6c0.4-2.2-0.4-3.3-1.7-5c-1-1.2-2.2-2.8-3.1-5.3c-1-2.7-0.5-4.1,0.1-4.9
				c1.3-1.5,4.3-1.3,7.1,0.7c0.9,0.6,1.6,1.6,2.4,2.6c1.8,2.4,4,5.3,9.7,5.4c3.2,0,5,0.6,5.9,1.9c1,1.5,0.8,3.7,0.6,6.7
				c-0.1,1.1-0.2,2.3-0.3,3.5c-0.4,7.7,3.2,13.3,3.2,13.3c2.1,3.2,4.8,10,3.6,14.1c-0.5,1.7-1.5,2.8-3.2,3.2
				c-0.7,0.2-1.2,0.2-1.8,0.2C40.9,269.1,39.5,264.9,37.6,259.4z M24.4,218.9c-2.5-1.7-5.2-2.1-6.3-0.8c-0.8,1-0.4,2.6,0,3.8
				c0.9,2.3,2,3.8,3,5c1.4,1.8,2.4,3.1,1.9,5.8c-0.1,0.5-0.2,1.1-0.4,1.6c-0.9,3.7-1.7,7.3,2.8,9.9c1.1,0.6,2,1.1,2.9,1.5
				c3.6,1.8,6,3,8.5,9.7c0.5,1.3,0.9,2.5,1.3,3.6c2.2,6.3,3.5,10.1,8.3,8.9c1.4-0.4,2.3-1.2,2.7-2.7c1-3.6-1.4-10-3.5-13.2
				c-0.2-0.2-3.8-5.9-3.4-13.9c0.1-1.3,0.2-2.5,0.3-3.6c0.2-2.8,0.4-4.9-0.4-6c-0.8-1.1-2.4-1.6-5.4-1.6c-5.9,0-8.3-3.1-10.2-5.6
				C25.8,220.3,25.2,219.4,24.4,218.9L24.4,218.9z"/>
		</g>
		<g>
			
				<linearGradient id="SVGID_7_" gradientUnits="userSpaceOnUse" x1="-5218.8042" y1="248.8308" x2="-5193.9399" y2="248.8308" gradientTransform="matrix(-1 0 0 1 -5171.543 0)">
				<stop  offset="0" style="stop-color:#3076A1"/>
				<stop  offset="1" style="stop-color:#48C9B6"/>
			</linearGradient>
			<path class="st21" d="M46.6,274.2l0.7,0c0-0.8-0.9-20.4-7.1-26.2c-6.8-6.3-9-13.1-10-17.6c-1.2-5.4-7.4-6.8-7.6-6.8l-0.1,0.9
				c0.1,0,6,1.4,7.1,6.2c1.1,4.7,3.3,11.6,10.3,18.1C45.7,254.2,46.6,274,46.6,274.2z"/>
		</g>
		<g>
			
				<linearGradient id="SVGID_8_" gradientUnits="userSpaceOnUse" x1="-5248.8594" y1="216.837" x2="-5211.522" y2="216.837" gradientTransform="matrix(-1 0 0 1 -5171.543 0)">
				<stop  offset="0" style="stop-color:#3076A1"/>
				<stop  offset="1" style="stop-color:#48C9B6"/>
			</linearGradient>
			<path class="st22" d="M45.4,278.6c-1.5-0.9-1.4-4.6-1.3-10.3c0.1-7.1,0.2-16.8-2.7-25.8c-3.1-9.5-0.3-12.3,2.4-15
				c3-3,5.9-5.8,0.4-18.7c-2.5-5.9-3.3-9.9-2.5-12.5c0.8-2.6,3-3.7,5.3-4.7c4-1.9,8.6-4,8-14.8c-0.2-3.3,0.1-5.4,1-6.4
				c0.9-1.2,2.3-1,3.8-0.9c2.4,0.2,5,0.5,7.4-3.4c0.2-1,2.5-9.6,5.1-11c0.6-0.3,1.1-0.3,1.6,0l0,0c1.8,1.1,2.9,2.4,3.3,4
				c0.6,2.8-1,5.9-2.9,9.6c-2.9,5.7-6.3,12.2-2.8,20c4.6,10.2,2.2,13.8-1.2,18.8c-1.9,2.8-4.1,6.1-5.5,11.3
				c-1.2,4.2,0.8,8.2,2.7,12.1c2.4,4.9,4.9,9.9-0.3,14.3c-8.7,7.2-17.3,30.9-17.3,31.1l0,0.1l-0.1,0.1c-1.6,1.6-2.8,2.3-3.6,2.3
				C45.8,278.8,45.6,278.7,45.4,278.6z M66.8,244.4c4.7-3.9,2.6-8.2,0.1-13.1c-1.9-3.9-4.1-8.3-2.8-12.9c1.5-5.4,3.7-8.7,5.7-11.6
				c3.3-4.9,5.4-8.1,1.1-17.7c-3.7-8.2-0.1-15.2,2.8-20.9c1.8-3.5,3.3-6.5,2.8-8.9c-0.3-1.3-1.2-2.5-2.9-3.5l0,0
				c-0.3-0.2-0.7-0.2-1,0c-2.5,1.4-4.7,10.5-4.8,10.6l0,0.1l0,0.1c-2.6,4.3-5.6,4-8,3.8c-1.4-0.1-2.6-0.2-3.3,0.6
				c-0.7,0.9-0.9,2.7-0.8,5.7c0.6,11.5-4.4,13.8-8.5,15.7c-2.3,1.1-4.3,2-4.9,4.2c-0.7,2.4,0.1,6.2,2.5,11.8
				c5.7,13.5,2.5,16.7-0.6,19.8c-2.6,2.6-5,5-2.1,13.9c3,9.1,2.8,18.9,2.7,26.1c-0.1,4.9-0.1,8.8,0.9,9.4c0.6,0.4,1.8-0.3,3.6-2
				C49.9,273.9,58.1,251.7,66.8,244.4z"/>
		</g>
		<linearGradient id="SVGID_9_" gradientUnits="userSpaceOnUse" x1="58.1984" y1="267.8931" x2="31.0907" y2="186.5698">
			<stop  offset="0" style="stop-color:#3076A1"/>
			<stop  offset="1" style="stop-color:#48C9B6"/>
		</linearGradient>
		<path class="st23" d="M31.7,175.6c4.4-1.9,3.5,8.9,5.4,16.9c1.9,8,20.8,3.5,12.8,23.5s10,6.7,4.7,24.1
			c-5.4,17.4-0.5,36.1-6.3,31.4c-5.8-4.7-3.3-26.7-9.3-29.3c-6.1-2.6-7.1-5.7-1.1-12.8c6-7.1-15.7-14.1-10.4-28.5
			C32.8,186.6,26.6,177.8,31.7,175.6z"/>
		<g>
			<path class="st24" d="M46.2,270.3c0.6-3,5.3-29.3,0.9-32.4c-3.9-2.8-3.8-13.7-3.2-24c0.5-9.1-8.7-13.4-9.1-13.5l-0.2,0.8
				c0.1,0,9.1,4.2,8.6,12.6c-0.6,10.6-0.7,21.8,3.6,24.8c3.4,2.4,0.3,23.5-1.2,31.5L46.2,270.3z"/>
		</g>
		<linearGradient id="SVGID_10_" gradientUnits="userSpaceOnUse" x1="35.9507" y1="321.0116" x2="49.2404" y2="263.7222">
			<stop  offset="0" style="stop-color:#C9C4C1"/>
			<stop  offset="1" style="stop-color:#FFF6DE"/>
		</linearGradient>
		<polygon class="st25" points="62.9,260.9 56.6,291.3 42.5,291.3 36.2,260.9 		"/>
		
			<linearGradient id="SVGID_11_" gradientUnits="userSpaceOnUse" x1="16.6305" y1="276.0972" x2="43.3512" y2="276.0972" gradientTransform="matrix(1 0 0 1 19.5338 0)">
			<stop  offset="0" style="stop-color:#C9C4C1"/>
			<stop  offset="1" style="stop-color:#FFF6DE"/>
		</linearGradient>
		<path class="st26" d="M62.9,260.9c0,0-13.9,3.3-13.9,30.3h-6.5l-6.3-30.3H62.9z"/>
	</g>
	<linearGradient id="SVGID_12_" gradientUnits="userSpaceOnUse" x1="219.4538" y1="79.275" x2="219.4538" y2="21.9132">
		<stop  offset="0" style="stop-color:#D1D7E0"/>
		<stop  offset="1" style="stop-color:#EBEBFF"/>
	</linearGradient>
	<path class="st27" d="M219.9,70H219c-15.1,0-27.3-12.2-27.3-27.3V34c0-15.1,12.2-27.3,27.3-27.3h0.9C235,6.8,247.2,19,247.2,34v8.7
		C247.2,57.8,235,70,219.9,70z"/>
	<g>
		<rect x="217" y="58" class="st3" width="4.4" height="1"/>
	</g>
	<g>
		<g>
			<g>
				<g>
					<path class="st28" d="M223.2,1.2c0,0,3.5,2.5,2.4,8.5c-1.1,6.1-1.6,6.9-0.6,9.3c0.9,2.4,1.7,12.7,0.7,14.6
						c-1,1.9-10.9-9.2-12-18c-1.1-8.8,1.4-12.6,2.3-14C216.9,0.3,220.1-1,223.2,1.2z"/>
				</g>
			</g>
		</g>
		<g>
			<path class="st7" d="M229.9,51.3h-3.8c-0.2-2.4-0.4-4-0.3-4.3c0.1-0.4-3.8-13.1-4.1-14.2c-0.4-1-1.8-3.9-1.9-6.5
				c-0.2-2.7,2.6-3.7,2.6-3.7c3.7,0.8,4.9,7.3,4.9,7.3s1.6,13.1,2.3,16.8C229.7,47.7,229.8,49.3,229.9,51.3z"/>
		</g>
		<path class="st29" d="M228,33.1l-5.6,3c0,0-5.2-16.3-0.8-14.5C225.8,23.4,227.8,26.8,228,33.1z"/>
		<g>
			<path class="st29" d="M226.7,40.7c-0.2,1.6-0.8,7.4-0.7,8.9c0,0.3,0.1,0.8,0.2,1.6h-13.6c0.4-1.6,0.7-3.1,0.9-3.9
				c0.7-2.8,0-3.5-0.3-5.7c-0.1-0.9-0.6-2.5-1.1-4.4c-0.2-0.6-0.3-1.3-0.5-1.9c-0.6-2.4-0.9-4.8-1-6.2c-0.8-6.6,3.2-7.3,3.2-7.3
				c1.5-0.3,4.1-1.4,4.1-1.4l4.1,1.1c0,0,0.4,0.2,1,0.7c0,0,0,0,0,0c0.3,0.3,0.6,0.6,0.9,1c0.4,0.6,1.3,2.2,2.2,4.1
				c0.3,0.6,0.5,1.1,0.8,1.7c0.8,1.8,1.4,3.3,1.4,5C228.3,35.7,226.9,39.1,226.7,40.7z"/>
		</g>
		<path class="st7" d="M222,21.6c0,0,2.6,5.6,1.6,6c-1,0.4-6-1-7.9-6.2C215.7,21.3,219,19.4,222,21.6z"/>
		<path class="st7" d="M221.6,24.1c0,0-2.3,1.2-4.3-2.8c0,0,0.6-4.6-0.6-7.2c-1.2-2.6,5.1,3.2,5.1,3.2s-0.1,0.5-0.2,1.3
			c-0.1,0.4-0.1,0.9-0.2,1.4c0,0.4-0.1,0.9-0.1,1.3C221.3,22.4,221.4,23.4,221.6,24.1z"/>
		<path class="st30" d="M216,30.3c-0.5,3.1-3.8,6.9-3.8,6.9c-0.2-0.6-0.3-1.3-0.5-1.9C214,33.4,216,30.3,216,30.3z"/>
		<g>
			<path class="st7" d="M215.1,32.8c-0.2,1.1-1.2,12.4-1.1,12.8c0.1,0.2,0.5,2.8,1,5.7h-4.4c-0.5-1.9-0.7-3.4-0.7-4.3
				c0.3-3.8-0.7-15.9-0.7-15.9s-0.9-7.3,3.9-8.3c0,0,2.8,0.5,3,3.1C216.3,28.6,215.3,31.7,215.1,32.8z"/>
		</g>
		<path class="st29" d="M208.9,34.3l6,1.8c0,0,4.7-11.6,0.5-13.8C210.9,20.1,207.8,28,208.9,34.3z"/>
		<g>
			<g>
				<g>
					<path class="st18" d="M222.7,1.9c0,0,5.2,2.4,1.9,13.7c-3.3,11.3-10-1.9-9-8.9C216.6-0.3,222.7,1.9,222.7,1.9z"/>
				</g>
			</g>
		</g>
		<g>
			<g>
				<g>
					<path class="st28" d="M225.4,8.8c0,0-2.7,3.1-7.1,3.2c0,0-1,3.2-1.2,4.1c0,0-4.3-9.4,0.6-14.2C222.7-2.8,227.2,6.8,225.4,8.8z"
						/>
				</g>
			</g>
		</g>
		<g>
			<g>
				<g>
					<path class="st18" d="M218.8,12.7c0-0.8-0.3-2.8-1.3-2.3c-1,0.5-0.1,4.4,0.6,4.2C218,14.6,218.8,14.7,218.8,12.7z"/>
				</g>
			</g>
		</g>
		<path class="st9" d="M221.4,21.1c-2.4-0.9-3.4-3.8-3.4-3.9c2,3.2,3.5,2.8,3.5,2.8C221.4,20.4,221.4,20.7,221.4,21.1z"/>
	</g>
	<g>
		<path class="st3" d="M232.6,18.2v1h4.7v5.6h0.8v-6.6H232.6z M200.8,24.8h0.8v-5.6h4.7v-1h-5.5V24.8z M237.3,53.5v5.6h-4.7v1h5.5
			v-6.6H237.3z M201.6,53.5h-0.8v6.6h5.5v-1h-4.7V53.5z"/>
	</g>
	<g>
		<rect x="143.7" y="105.3" class="st3" width="5.9" height="1.4"/>
	</g>
	<g>
		<path class="st3" d="M164.2,52.1v1.3h6.3v7.4h1.1v-8.8H164.2z M121.7,60.9h1.1v-7.4h6.3v-1.3h-7.3V60.9z M170.5,99.3v7.4h-6.3v1.3
			h7.3v-8.8H170.5z M122.7,99.3h-1.1v8.8h7.3v-1.3h-6.3V99.3z"/>
	</g>
	<g>
		<g>
			<path class="st31" d="M277.8,155.6h-5c-0.1-0.3-0.2-0.5-0.2-0.6c-1.5-4.4-9.1-14.5-9.1-14.5s0,0,0,0c0,0,0,0,0,0c0,0,0,0,0,0
				c0,0,0,0,0,0c0,0,0,0,0,0.1c0,0,0,0,0,0.1c0,0,0,0,0,0c-0.3,1.5-1.8,8.8-2.6,14.9h-33.6c-0.1-0.6-0.2-1.1-0.3-1.6
				c-0.3-1.5-0.5-3-0.6-4.4c0-0.1,0-0.1,0-0.2c0-0.3,0-0.5-0.1-0.8c-0.3-3.8-0.1-6.8-0.1-7c-0.1,0.3-0.8,3.4-1.7,7.3
				c-0.5,2.1-1,4.5-1.6,6.7H215l10-36.4c0.2-0.2,2.8-1.8,4.7-2.9c1.9-1.2,4.2-2.9,6.3-4.3c1.1-0.7,2.1-1.4,3-1.9l0.1-0.1v0
				c1.4-0.8,2.4-1.4,2.4-1.4s0,0,0,0c0,0,0.3,0,0.6-0.1c2-0.2,8.3-1,10.4-1.1c0.2,0,0.3,0,0.4,0c0.1,0,0.2,0,0.2,0
				c0.3,0,1.6,0.6,3.3,1.4c0.1,0,0.1,0.1,0.2,0.1c0.1,0,0.2,0.1,0.2,0.1c0.1,0.1,0.3,0.1,0.4,0.2c0.3,0.2,0.6,0.3,0.9,0.5
				c0.1,0.1,0.2,0.1,0.3,0.2c3.4,1.7,7.3,3.8,8.2,4.7c0.6,0.6,2.5,5.1,4.7,10.7C273.9,134.8,276.8,148.7,277.8,155.6z"/>
		</g>
		<g>
			<path class="st7" d="M253.1,106c-0.1,5.7-8.8,8.9-8.8,8.9s-3.7-5.8-2.8-6.4c0.3-0.2,0.5-1.1,0.5-2.1c0-0.9,0-1.9,0-2.6
				c0-0.4-0.1-0.7-0.1-0.7s1.2-1.7,2.8-3.7c2.8-3.5,6.6-7.9,6.6-6.2c0,0.1,0,0.2,0,0.3C250.7,97.7,253.1,106,253.1,106z"/>
		</g>
		<g>
			<path class="st9" d="M249.7,97.6C249.7,97.6,249.7,97.6,249.7,97.6c0,0-0.4,0.7-1,1.7c-1.3,2.1-3.9,5.7-6.7,7.1
				c0-0.9,0-1.9,0-2.6c-0.3,0-0.6-0.1-0.9-0.1c0.8-1.7,1.9-3.5,1.9-3.5l1.8-0.7L249.7,97.6z"/>
		</g>
		<g>
			<path class="st7" d="M251.4,93.4c-0.8,2.1-1.5,3.6-1.7,4.2c0,0,0,0,0,0c-0.1,0.4-0.5,1-1,1.7c-1.4,2-4.1,4.6-6.8,4.5
				c-0.3,0-0.6-0.1-0.9-0.1c-1.1-0.3-2.3-0.9-3-2.6c-5.5-13.5-1.5-24.6-1.5-24.6s14.9-5.3,17.3,0.3
				C255.5,80.8,253.2,88.5,251.4,93.4z"/>
		</g>
		<g>
			<path class="st32" d="M236.6,76.5c0,0-1.4-0.1-1.7-3.4c-0.3-3.3,0.3-4.2,0.3-4.2s6.2-3.3,8.4-3.7c2.2-0.4,7.7-0.8,8.9,1
				c0,0,3.1-0.9,3.9,5.6c1.3,10.3-4.6,20.4-4.6,20.4s0.1-6.8-1.1-7.6c-1.2-0.9-2.2,1.2-2.2,1.2l-2.4,0.5c0,0,3.7-10-0.7-10.4
				C241,75.6,239.1,77.1,236.6,76.5z"/>
		</g>
		<g>
			<path class="st7" d="M248.6,83.1c0.2-3,4.5-4.1,4.2-1c-0.3,3.1-2.4,6.1-3.3,6C248.5,88,248.5,85.3,248.6,83.1z"/>
		</g>
		<g>
			<path class="st33" d="M273.5,125.4c-1.4-5.6-2.6-10.1-3.1-10.5c-0.9-0.8-8.3-3.4-11.8-5.1c-0.1-0.1-0.2-0.1-0.3-0.2
				c-0.3-0.2-0.6-0.3-0.9-0.5c-0.2-0.1-0.3-0.1-0.4-0.2c-0.1,0-0.2-0.1-0.2-0.1c-0.1,0-0.1-0.1-0.2-0.1c0,0,0,0,0,0
				c-0.3,0.4-1.9,2.8-3.9,6.3c-3.6,6.5-8.3,17-7.6,26.8c0.2,3.1,0.5,7.6,1,12.6c0,0.4,0.1,0.8,0.1,1.2h16.3
				c0.2-5.3,0.6-12.2,1.1-14.9c0,0,0,0,0,0c0,0,0,0,0-0.1c0,0,0-0.1,0-0.1c0,0,0,0,0,0c0,0,0,0,0,0c0,0,0,0,0,0s3.9,7.8,4.2,15.1
				h10.3C277.4,148.8,275.9,135,273.5,125.4z"/>
		</g>
		<g>
			<path class="st33" d="M239,110c0,0-1.2,5.2-2.8,18.2c0,0,0,0,0,0c-0.1,0.4-0.1,0.9-0.2,1.3c0,0,0,0.1,0,0.2
				c0,0.3-0.1,0.6-0.1,0.9c0,0,0,0.1,0,0.1c0,0.2-0.1,0.4-0.1,0.6c-0.1,0.5-0.1,1-0.2,1.6c-0.6,5.3-1.4,13.7-2.2,22.7H227
				c-0.4-2.5-0.7-4.8-0.7-6.3c0,0,0,0.1,0,0.1c-0.5,1.8-1.1,3.8-1.7,5.7c-0.1,0.2-0.1,0.4-0.2,0.5h-11.1l11.1-36.7
				c0.2-0.2,3.1-2.2,5-3.3c2-1.2,4.5-2.7,6.7-3.9C237.1,111,238.1,110.5,239,110L239,110z"/>
		</g>
		<g>
			<path class="st34" d="M254,122.9l-4.3,3l1.8,2.3l-4,27.3h-1.5c-0.6-5.5-0.9-10.5-1.1-13.8c-1.1-15,10.7-32,11.5-33.1
				c0.6,0.3,1.2,0.6,1.8,0.9L254,122.9z"/>
		</g>
		<g>
			<path class="st34" d="M239.1,109.9c0,0-1.6,6.6-3.4,23c-0.6,5.3-1.4,13.7-2.2,22.7h-0.6l-0.8-25.8l2-2.8l-1.8-2.9l3.9-12.5
				c1.1-0.6,2-1.2,2.9-1.7L239.1,109.9z"/>
		</g>
		<g>
			<path class="st35" d="M256.6,108.7l-3.5-2.7c0,0-0.1,2.5-8.8,8.9l2.5,8.9L256.6,108.7z"/>
		</g>
		<g>
			<path class="st35" d="M242,107.3c0,0,0.1,2.6,2.3,7.6l-4.8,8l-0.4-13L242,107.3z"/>
		</g>
		<g>
			<path class="st36" d="M244.3,114.9c0,0,0.9,4.8,0.6,6.1c0,0-2.1,1-3.5-0.2C241.3,120.7,242.4,117.4,244.3,114.9z"/>
		</g>
		<g>
			<path class="st36" d="M243.2,131c-1,8.5-1,17.2-0.6,24.5h-4.1c-0.1-1-0.1-2.1-0.2-3.2c-0.8-16.9,4-32,4-32l2.1-0.7
				C244.3,119.6,243.6,127.1,243.2,131z"/>
		</g>
		<g>
			<path class="st37" d="M226.5,141.6c-0.2,4.1-0.1,7.7-0.1,7.7s0,0,0,0c0,0,0,0.1,0,0.3c0-0.1,0-0.1,0-0.2
				c-0.5,1.8-1.1,3.8-1.7,5.7c-0.1-2.2-0.2-4.3-0.1-6.2c0.2-11.4,3.1-17.3,3.1-17.3C226.9,133.5,226.6,137.7,226.5,141.6z"/>
		</g>
	</g>
	<g>
		<g>
			<polygon class="st38" points="187.8,155.6 174.6,164.8 161.3,138.4 177.4,131.3 			"/>
		</g>
		<g>
			<polygon class="st24" points="187,154.8 174.6,163.4 162.2,138.7 177.2,132.1 			"/>
		</g>
		<g>
			<path class="st7" d="M191.5,150.2c0,0-2.3-1.4-3.3-2.1c-1-0.7-3.6-1.7-3.8-2c-0.2-0.2-7.7-0.8-8.2-1.3c-0.5-0.5-0.9,1.2,1,1.7
				c1.9,0.5,4.6,1.9,4.8,2.8c0.1,1-2,1.2-2.2,2c-0.2,0.8,0.1,0.6,0.4,0.8c0.3,0.2,2.5-1.4,3.5-1c1,0.4,2.5-0.2,3.2,0.2
				c0.8,0.3,4.4,1.9,4.4,1.9L191.5,150.2z"/>
		</g>
		<g>
			<path class="st7" d="M173.9,161.5c0,0-1.9-2.2-2.9-3.1c-0.9-0.9-2.7-3.6-2.9-3.8c-0.3-0.2-3.6-8.9-4.2-9.2
				c-0.5-0.3,0.5-1.5,1.7,0.6c1.2,2.1,3.2,4.8,4,4.6c0.8-0.2,0.1-2.8,0.6-3.4c0.5-0.6,0.5-0.2,0.7,0.1c0.2,0.3-0.1,3.6,0.7,4.6
				c0.7,1,0.8,3,1.4,3.8c0.5,0.8,3.1,4.5,3.1,4.5L173.9,161.5z"/>
		</g>
		<g>
			<path class="st39" d="M215.6,279.3c0,0,0.4,3.7,0.5,4.2c0.1,0.6,4.7-0.3,4.7-0.3l0.4-4.4C221.1,278.8,216.1,278.8,215.6,279.3z"
				/>
		</g>
		<g>
			<path class="st38" d="M216,283c0,0-1.5,2.2-2.9,3.2c-1.4,1-3.6,1.3-4.5,2.3c-0.6,0.7-2.2,3.8,3.7,3.8c5.9-0.1,8.7,0.4,9.3-0.8
				c0.6-1.2-0.9-8.8-0.9-8.8S219.3,283.4,216,283z"/>
		</g>
		<g>
			<path class="st39" d="M182.6,279.3c0,0,0.4,3.7,0.5,4.2c0.1,0.6,4.7-0.3,4.7-0.3l0.4-4.4C188.1,278.8,183.2,278.8,182.6,279.3z"
				/>
		</g>
		<g>
			<path class="st38" d="M183,283c0,0-1.5,2.2-2.9,3.2c-1.4,1-6.6,1.8-7.4,2.8c-0.6,0.7-1.6,3.6,6.6,3.4c5.9-0.2,8.7,0.4,9.3-0.8
				c0.6-1.2-0.9-8.8-0.9-8.8S186.5,283.5,183,283z"/>
		</g>
		<g>
			<path class="st38" d="M211.8,184.8c0,0,4.3,8.7,4,16.6c-0.3,7.9,1.6,16.4,2.2,24.7c0.7,9.2,3.7,30.8,3.8,35.7
				c0.1,4.9-0.5,20.5-0.5,20.5l-5.9,0.2c0,0-5-37.9-6.3-41.8c-1.3-3.9-7.7-31.4-7.9-34.5C201,203.1,211.8,184.8,211.8,184.8z"/>
		</g>
		<g>
			<path class="st38" d="M189,186c0,0-3.3,21.5-3.7,26.4c-0.4,4.8-0.7,23.3-0.9,26.3c-0.2,3-1.4,39.3-2.6,43.8h7.6
				c0,0,5.8-26.4,5.8-38.9c0-12.5,4.5-27.2,7.4-35.4c2.9-8.2,9.5-8.4,11.3-23.7C213.9,184.4,191.4,181.1,189,186z"/>
		</g>
		<g>
			<path class="st7" d="M204.5,111.7c0,0-5.8-2.7-8.5,2.8c-2.7,5.6-2.4,16.8,0.5,18.2c2.9,1.4,7.3,0.7,8.8-2.8
				c1.5-3.5,2.8-8.6,2.8-11.9C208.1,114.6,206.1,112.7,204.5,111.7z"/>
		</g>
		<g>
			<path class="st7" d="M197.2,133c0,0,0.2,2-0.2,3c-0.4,1,7.5,1,7.5,1s0.6-5.3,1.9-9.8C207.6,122.6,197.2,133,197.2,133z"/>
		</g>
		<g>
			<path class="st40" d="M206.4,127.1c0,0-0.5,1.1-2.8,0.7c-2.2-0.4-4.9-4.2-5.9-4.6c-0.9-0.4-0.9-1.1-0.9-1.1l-0.6,1.1l-1,0.1
				c0,0,0.9-3.4-0.5-4.7c-1.4-1.4,1.4-10.9,8.6-7.7c0,0,5.5,1.9,5.3,5.9C208.4,120.7,207.6,125.2,206.4,127.1z"/>
		</g>
		<g>
			<path class="st41" d="M196.6,135.8c0,0,0-1.9,0.7-2c0.7-0.2,7.4-1,8.2-0.6v2.2C205.5,135.4,203.9,136.6,196.6,135.8z"/>
		</g>
		<g>
			<path class="st7" d="M197,120.7c0.1-0.7,1.5-2.6,2-0.5c0.5,2-0.8,4.8-1.5,4.5C196.7,124.4,196.7,122.4,197,120.7z"/>
		</g>
		<g>
			<path class="st42" d="M170,157.9C170,157.9,170,157.9,170,157.9C169.9,157.9,169.9,157.9,170,157.9z"/>
		</g>
		<g>
			<path class="st43" d="M216.6,205.5c0,0-3.6,1.3-9.6,2.2c-6.1,0.8-21.2-0.3-21.3-1.2c-0.1-0.9,3.3-33.8,3.1-35.5
				c-0.2-1.7-0.3-7.7-0.3-7.7c-0.1,1.7-1.4,8.4-3,12.1c-0.6,1.3-2.5,5.5-3.5,4.6c-4.5-4.6-11.6-21.9-12-22c0.4-0.2,3.3-1.9,3.7-2.1
				c0.4-0.2,3.6,4.2,5.6,7c0.9,1.2,1.5,2.1,1.5,2.1c0.6-1.6,2.7-11.9,3.3-15.5c1.5-8,1.2-8.4,1.2-8.4c4.4-1.7,11.2-5.2,11.2-5.2
				l8.9-0.5c0,0,8.2,2.3,11.4,4.1c0.3,0.2,0.3,9.2,1.1,11.6l-2.7,7.1c0,0-1.5,14.1-1.9,20.4C213.3,181.4,216.6,205.5,216.6,205.5z"
				/>
		</g>
		<g>
			<path class="st43" d="M218.3,162.8c-0.2,0.9-1.3,1.8-2,2.1c-0.4,0.2-0.9,0.3-1.4,0.2l-0.3-0.1v0l-6.1-1.4c0,0-1.3-19.4,8.3-24.1
				C217.1,139.6,220.5,154.1,218.3,162.8z"/>
		</g>
		<g>
			<path class="st44" d="M216.4,164.9L216.4,164.9c-0.4,0.2-0.9,0.3-1.4,0.2l-0.3-0.1v0l0.6-9.9L216.4,164.9z"/>
		</g>
		<g>
			<path class="st44" d="M180.9,164.8l-0.7,4c0,0-0.8-4-0.8-6.1C180.2,163.9,180.9,164.8,180.9,164.8z"/>
		</g>
		<g>
			<path class="st40" d="M206.2,112.4c0,0,7.6-1.2,0.1,14.9L206.2,112.4z"/>
		</g>
		<g>
			<polygon class="st38" points="167.4,136.9 166.6,135.3 172.7,132.6 173.5,134.3 			"/>
		</g>
	</g>
	<g class="st45">
		<linearGradient id="SVGID_13_" gradientUnits="userSpaceOnUse" x1="282.1754" y1="63.151" x2="287.8067" y2="63.151">
			<stop  offset="0" style="stop-color:#D1D7E0"/>
			<stop  offset="1" style="stop-color:#EBEBFF"/>
		</linearGradient>
		<polygon class="st46" points="283.5,64.9 287.8,64.9 286.5,61.4 282.2,61.4 		"/>
		<linearGradient id="SVGID_14_" gradientUnits="userSpaceOnUse" x1="280.1578" y1="63.151" x2="282.5049" y2="63.151">
			<stop  offset="0" style="stop-color:#D1D7E0"/>
			<stop  offset="1" style="stop-color:#EBEBFF"/>
		</linearGradient>
		<polygon class="st47" points="281.5,64.9 282.5,64.9 281.2,61.4 280.2,61.4 		"/>
		<linearGradient id="SVGID_15_" gradientUnits="userSpaceOnUse" x1="266.0016" y1="59.8885" x2="284.0398" y2="59.8885">
			<stop  offset="0" style="stop-color:#D1D7E0"/>
			<stop  offset="1" style="stop-color:#EBEBFF"/>
		</linearGradient>
		<polygon class="st48" points="266.6,60.8 284,60.8 283.5,59 266,59 		"/>
	</g>
	<g>
		<g>
			<linearGradient id="SVGID_16_" gradientUnits="userSpaceOnUse" x1="165.8242" y1="4.0634" x2="173.2225" y2="4.0634">
				<stop  offset="0" style="stop-color:#D1D7E0"/>
				<stop  offset="1" style="stop-color:#EBEBFF"/>
			</linearGradient>
			<path class="st49" d="M172.8,5.5h-6.6c-0.2,0-0.4-0.2-0.4-0.5V3.2c0-0.3,0.2-0.5,0.4-0.5h6.6c0.2,0,0.4,0.2,0.4,0.5V5
				C173.2,5.2,173,5.5,172.8,5.5z"/>
		</g>
		<g>
			<linearGradient id="SVGID_17_" gradientUnits="userSpaceOnUse" x1="165.8242" y1="10.8355" x2="173.2225" y2="10.8355">
				<stop  offset="0" style="stop-color:#D1D7E0"/>
				<stop  offset="1" style="stop-color:#EBEBFF"/>
			</linearGradient>
			<path class="st50" d="M172.8,12.2h-6.6c-0.2,0-0.4-0.2-0.4-0.5V9.9c0-0.3,0.2-0.5,0.4-0.5h6.6c0.2,0,0.4,0.2,0.4,0.5v1.8
				C173.2,12,173,12.2,172.8,12.2z"/>
		</g>
		<g>
			<linearGradient id="SVGID_18_" gradientUnits="userSpaceOnUse" x1="165.8242" y1="17.6078" x2="173.2225" y2="17.6078">
				<stop  offset="0" style="stop-color:#D1D7E0"/>
				<stop  offset="1" style="stop-color:#EBEBFF"/>
			</linearGradient>
			<path class="st51" d="M172.8,19h-6.6c-0.2,0-0.4-0.2-0.4-0.5v-1.8c0-0.3,0.2-0.5,0.4-0.5h6.6c0.2,0,0.4,0.2,0.4,0.5v1.8
				C173.2,18.8,173,19,172.8,19z"/>
		</g>
		<g>
			<linearGradient id="SVGID_19_" gradientUnits="userSpaceOnUse" x1="176.2772" y1="4.0634" x2="178.3822" y2="4.0634">
				<stop  offset="0" style="stop-color:#D1D7E0"/>
				<stop  offset="1" style="stop-color:#EBEBFF"/>
			</linearGradient>
			<path class="st52" d="M178,5.5h-1.3c-0.2,0-0.4-0.2-0.4-0.5V3.2c0-0.3,0.2-0.5,0.4-0.5h1.3c0.2,0,0.4,0.2,0.4,0.5V5
				C178.4,5.2,178.2,5.5,178,5.5z"/>
		</g>
		<g>
			<linearGradient id="SVGID_20_" gradientUnits="userSpaceOnUse" x1="176.2772" y1="10.8355" x2="178.3822" y2="10.8355">
				<stop  offset="0" style="stop-color:#D1D7E0"/>
				<stop  offset="1" style="stop-color:#EBEBFF"/>
			</linearGradient>
			<path class="st53" d="M178,12.2h-1.3c-0.2,0-0.4-0.2-0.4-0.5V9.9c0-0.3,0.2-0.5,0.4-0.5h1.3c0.2,0,0.4,0.2,0.4,0.5v1.8
				C178.4,12,178.2,12.2,178,12.2z"/>
		</g>
		<g>
			<linearGradient id="SVGID_21_" gradientUnits="userSpaceOnUse" x1="176.2772" y1="17.6078" x2="178.3822" y2="17.6078">
				<stop  offset="0" style="stop-color:#D1D7E0"/>
				<stop  offset="1" style="stop-color:#EBEBFF"/>
			</linearGradient>
			<path class="st54" d="M178,19h-1.3c-0.2,0-0.4-0.2-0.4-0.5v-1.8c0-0.3,0.2-0.5,0.4-0.5h1.3c0.2,0,0.4,0.2,0.4,0.5v1.8
				C178.4,18.8,178.2,19,178,19z"/>
		</g>
	</g>
	<g>
		<linearGradient id="SVGID_22_" gradientUnits="userSpaceOnUse" x1="146.9668" y1="154.8814" x2="157.0751" y2="154.8814">
			<stop  offset="0" style="stop-color:#D1D7E0"/>
			<stop  offset="1" style="stop-color:#EBEBFF"/>
		</linearGradient>
		<polygon class="st55" points="149.3,158 157.1,158 154.7,151.8 147,151.8 		"/>
		<linearGradient id="SVGID_23_" gradientUnits="userSpaceOnUse" x1="143.3454" y1="154.8814" x2="147.5584" y2="154.8814">
			<stop  offset="0" style="stop-color:#D1D7E0"/>
			<stop  offset="1" style="stop-color:#EBEBFF"/>
		</linearGradient>
		<polygon class="st56" points="145.7,158 147.6,158 145.2,151.8 143.3,151.8 		"/>
	</g>
</g>
</svg>
