<?xml version="1.0" encoding="utf-8"?>
<!-- Generator: Adobe Illustrator 21.1.0, SVG Export Plug-In . SVG Version: 6.00 Build 0)  -->
<svg version="1.1" id="Layer_1" xmlns="http://www.w3.org/2000/svg" xmlns:xlink="http://www.w3.org/1999/xlink" x="0px" y="0px"
	 viewBox="0 0 300 300" style="enable-background:new 0 0 300 300;" xml:space="preserve">
<style type="text/css">
	.st0{fill:#C8DBFB;}
	.st1{fill:none;stroke:#C8DBFB;stroke-linecap:round;stroke-linejoin:round;}
	.st2{fill:none;stroke:#C8DBFB;stroke-linecap:round;stroke-linejoin:round;stroke-dasharray:3.9992,3.9992;}
	.st3{fill:#5193F4;}
	.st4{fill:none;stroke:#0B43A4;stroke-linecap:round;stroke-linejoin:round;stroke-miterlimit:10;}
	.st5{fill:#00AD9F;}
	.st6{fill:none;stroke:#00AD9F;stroke-linecap:round;stroke-linejoin:round;stroke-miterlimit:10;}
	.st7{fill:#0056EC;}
	.st8{fill:#52D2BC;}
	.st9{opacity:0.2;fill:#5275A0;}
	.st10{fill:#7EE8D4;}
	.st11{fill:#4A49CA;}
	.st12{fill:none;stroke:#0B43A4;stroke-linecap:round;stroke-linejoin:round;stroke-miterlimit:10;stroke-dasharray:4;}
	.st13{fill:none;stroke:#C8DBFB;stroke-linecap:round;stroke-linejoin:round;stroke-miterlimit:10;stroke-dasharray:4;}
	.st14{fill:#0B43A4;}
	.st15{fill:#FFFFFF;}
	.st16{fill:#0C2340;}
	.st17{fill:#EF832B;}
	.st18{fill:#FFB9A3;}
	.st19{fill:#047F76;}
	.st20{fill:#009790;}
	.st21{fill:#D8742A;}
</style>
<g>
	<ellipse class="st0" cx="102" cy="296.8" rx="25.8" ry="3.2"/>
	<ellipse class="st0" cx="234.8" cy="296.8" rx="25.8" ry="3.2"/>
	<g>
		<g>
			<g>
				<path class="st1" d="M289.4,69.7c-0.1-0.7-0.2-1.3-0.3-2"/>
				<path class="st2" d="M288.4,63.7c-4.8-20.2-19.3-18.3-32.4-18.2c-14.3,0-235.8,0.6-235.8,0.6c-22.3,0.1-20.1,43-2.7,42.9
					c10,0,13.8,25.1-3.5,25.2c-9.8,0-10.7,15.8-4.8,20.5"/>
				<path class="st1" d="M10.9,135.7c0.6,0.2,1.3,0.3,2,0.3"/>
			</g>
		</g>
		<path class="st3" d="M15.6,135.2c0.3,2.3-0.9,4.5-2.6,4.9c-1.7,0.4-3.4-1.2-3.7-3.5c-0.3-2.3,0.9-4.5,2.6-4.9
			C13.6,131.3,15.3,132.9,15.6,135.2z"/>
		<path class="st3" d="M292.6,71.6c-0.3,2.3-2,3.9-3.7,3.4c-1.7-0.4-2.9-2.7-2.6-5c0.3-2.3,2-3.9,3.7-3.4
			C291.7,67,292.9,69.2,292.6,71.6z"/>
	</g>
	<g>
		<g>
			<path class="st3" d="M48.2,103.9c-0.5,3.5-1.1,6.9-2,10.2c-1.8,7.2-4.2,14.2-6.7,21.1c-1.3,3.6-6.5,11.9-9.3,13.5
				c0.3-9.4,0.4-20.3-0.5-29.8c-0.8-9.1,1.7-16-1-24.5c-0.3-1.1-0.7-2.2-1.1-3.2c-1.3-4-2.6-8.1-3.1-12.4
				c-0.5-5.5,0.7-11.8,4.3-14.6c2.6-2.1,5.9-1.9,8.6-0.3s4.9,4.6,6.6,7.9C48.9,81,49.7,93,48.2,103.9z"/>
			<path class="st4" d="M35.8,73.6C41,83.5,41.5,95,42,107.1c0.5,12.1-1.7,24.3-6.2,34.9"/>
		</g>
		<g>
			<path class="st5" d="M35.6,255.8c-3.7-4.3-7.4-8.7-10.1-14.2c-2.4-4.7-3.9-10.1-5.9-15.1c-1.3-3.2-2.9-6.3-3.7-9.9
				c-0.8-3.5-0.6-7.7,1.3-10.4c2-2.8,5.3-3.2,8-1.8c2.7,1.4,4.7,4.4,6.3,7.7c2.1,4.3,3.4,9.2,4,14.2c0.5,4.6,0.4,9.3,0.9,13.8
				c0.5,4.3,1.6,8.4,2.9,12.3c1.2,3.5,4.3,9.9,5.1,13.5C42.2,267.4,37.2,257.7,35.6,255.8z"/>
			<path class="st6" d="M22.8,210.9c3.5,2,4.9,7.6,5.6,12.6c0.8,5.7,0.6,11.8,2.6,17c3.7,9.7,8.5,20.8,12,24.1"/>
		</g>
		<g>
			<path class="st7" d="M17.5,242.5c-3-1.6-7.1-2.3-9.1,1.2c-1.6,2.9-0.8,7.1,0.3,10.4c1,2.8,2.2,5.7,4.2,7.2c1.4,1,3,1.4,4.6,1.6
				c4.4,0.7,8.8,1,13.2,1c5.1,0,11.3,2.8,15.5,7C40.8,257.6,27.8,247.9,17.5,242.5z"/>
			<path class="st4" d="M12.2,251.3c3.9,0.2,7.8,0.6,11.5,2.1c3.8,1.5,18.4,10.5,20.7,14.3"/>
		</g>
		<g>
			<path class="st8" d="M50.7,214.8c-4-8.3-10.7-14.1-18-15.4c-5.4-1-10.9,0.4-16.3-1.1c-5.6-1.6-10.6-6.4-13.6-12.9
				c-2.9-6.6-3.7-14.8-2-22.1c1.3-5.6,4.1-10.8,8.2-12.6c2.3-1,4.7-0.8,7-0.1c2.1,0.7,4.1,1.9,5.9,3.4c4.2,3.5,7.5,8.9,10.1,14.7
				c2.3,5.2,8,13.4,11.8,18.7c2.3,3.1,3.9,5.2,3.9,5.2C50.4,197,49.2,209.6,50.7,214.8z"/>
			<path class="st6" d="M7.9,166.8c13,7.8,27.1,18,36.3,32.5"/>
		</g>
		<g>
			<path class="st9" d="M45.4,197.4c0,0-19.3-20.9-23.4-43.3c4.2,3.5,7.5,8.9,10.1,14.7c2.3,5.2,8,13.4,11.8,18.7
				C44.3,190.2,44.8,193.5,45.4,197.4z"/>
			<path class="st9" d="M46.3,114.2c-1.8,7.2-4.2,14.2-6.7,21.1c-1.3,3.6-6.5,11.9-9.3,13.5c0.3-9.4,0.4-20.3-0.5-29.8
				c-0.8-9.1,1.7-16-1-24.5c-0.3-1.1-0.7-2.2-1.1-3.2c0.2,0.1,0.5,0.2,0.7,0.4c4.4,2.5,6.4,8.7,6.8,14.8c0.3,5-0.4,10-0.9,14.9
				c-0.2,2.3-0.4,4.6-0.1,6.9c0,0,0,0,0,0.1c0.5,2.7,3.4,2.5,3.8-0.2l1.2-8.3c0.3-2.5,0.7-5.1,2.3-6.8c0.6-0.7,1.4-1.1,2.2-1.1
				C45,111.9,45.8,112.9,46.3,114.2z"/>
			<path class="st10" d="M45.4,192.1c-3-21.3-4.7-24.5-3.3-29.9c1.7-6.8,0.7-13.6,2.4-20.5c1.6-6.8,2.7-14.2,1.4-21.1
				c-0.4-2.2-1.2-4.6-3.2-4.7c-0.8,0-1.6,0.4-2.2,1.1c-1.5,1.7-1.9,4.3-2.3,6.8l-1.2,8.3c-0.4,2.7-3.3,2.9-3.8,0.2c0,0,0,0,0-0.1
				c-0.4-2.2-0.2-4.6,0-6.9c0.5-5,1.2-10,0.9-14.9c-0.4-6-2.4-12.3-6.8-14.8c-1.6-0.9-3.3-1.1-5-0.5c-4.6,1.6-5.8,7.6-5.1,12.7
				c0.5,3.6,1.7,6.9,2.9,10.2c2.8,8.1,0.7,15.6,1.1,24.5C22.4,167.2,45.4,192.1,45.4,192.1z"/>
			<path class="st6" d="M24.9,101.6c2.3,15.1,4.6,30.4,9,44.6c1.3,4.2,1.9,9.7,9.4,21.1"/>
		</g>
		<g>
			<path class="st3" d="M113.3,105.4c-2.3-3.6-4.5-7.2-6.8-10.7c-1.5-2.3-3-4.5-4.7-6.6c-0.8-1.1-1.7-2.1-2.6-3.1
				C94,79.2,88.1,74.3,81.8,70.7c-3.8-2.2-7.8-4-11.1-7.5c-3.2-3.5-5.6-9.2-4.5-14.5c0.8-3.9,3.2-6.9,6.1-8.2
				c2.8-1.4,5.9-1.3,8.8-0.4c8.2,2.3,15,10.2,19.6,19.4c0.1,0.2,0.2,0.3,0.2,0.5c3.4,6.9,5.8,14.6,7.8,22.5c0.7,2.5,1.3,5.1,1.9,7.6
				C111.7,93.9,114.5,101.7,113.3,105.4z"/>
			<path class="st4" d="M76,49.2c8.9,2.3,15.2,10.1,21.8,18.4c6.6,8.3,11.4,19.1,13.6,30.9"/>
		</g>
		<g>
			<path class="st9" d="M106.5,94.7c-0.1,1.2,0,2.5,0.1,3.7c-2.2-0.7-3.8-5.3-4.8-10.3c-1-4.9-1.5-10.2-1.6-12.6
				c-0.3-5.1-0.1-10.4,0.7-15.4c3.4,6.9,5.8,14.6,7.8,22.5c-0.7,2.8-1.3,5.7-1.8,8.5C106.8,92.3,106.6,93.5,106.5,94.7z"/>
			<path class="st8" d="M122,51.8c-0.8,4.5-2.8,8.3-4.5,12.2c-0.9,2.1-1.8,4.2-2.6,6.3c-2.6,6.9-4.6,14.1-5.9,21.6
				c-0.4,2.5-0.7,4.9-0.3,7.4c-4.4-1.3-6.1-18-6.4-23c-0.5-8.9,0.6-18.1,3.4-26.2c1.2-3.6,2.7-7.1,5.1-9.4c2.4-2.3,5.8-3.1,8.3-1.1
				c1.5,1.2,2.5,3.2,3,5.5C122.3,47.3,122.4,49.6,122,51.8z"/>
			<path class="st6" d="M106.9,94.4c-2.7-9.2-1.1-28.5,3.3-40.7c1.3-3.7,3.2-7.1,5.8-9.2"/>
		</g>
		<g>
			<path class="st9" d="M122,51.8c-0.8,4.5-2.8,8.3-4.5,12.2c-0.9,2.1-1.8,4.2-2.6,6.3c-1.2-2.7-2-5.7-2.2-8.8
				c-0.4-5.2,1.1-10.7,4.3-13.8c1.5-1.4,3.2-2.2,5-2.6C122.3,47.3,122.4,49.6,122,51.8z"/>
			<path class="st5" d="M147.3,90.6c-0.2,1.7-0.6,3.3-1.1,4.9c-1.9,5.6-6,10.5-12.2,14.4c0,0-0.3-8.9-0.4-11.3
				c-0.3-10.2-8.6-15.8-13.8-23.3c-2.7-3.8-4.7-8.6-5.1-13.8c-0.4-5.2,1.1-10.7,4.3-13.8c2.6-2.6,6.1-3.1,9.4-2.8
				c5.3,0.6,10.6,3.5,13.8,9c0.1,0.2,0.3,0.4,0.4,0.6c2,3.7,3,8.1,3.8,12.5C147.7,74.8,148.3,82.8,147.3,90.6z"/>
			<path class="st6" d="M121.2,53.2c5.7,4,11.5,8.8,14.8,16.1c4.7,10.3,3.6,23.7,0.1,34.7"/>
		</g>
		<g>
			<path class="st8" d="M243.3,156.4c3.7-8,1.8-18.4,3.1-27.6c1-7.1,3.9-13.7,8.2-18.2c2.7-2.8,6.4-4.8,9.4-2.7
				c0.7,0.5,1.4,1.1,2.1,0.6c0.4-0.3,0.5-0.9,0.6-1.5c0.8-5-1-10.5,0.4-15.2c0.8-2.5,2.4-4.4,4.2-5.9c3.3-2.8,7.3-4.5,11.2-4.7
				c1.1-0.1,2.1,0,3.1,0.6c1.7,1.1,2.5,4,2.2,6.5c-0.2,2.5-1.3,4.8-2.4,6.8c-3.8,6.7-9.5,12.5-10.2,20.9c-0.1,1.1-0.1,2.2,0.3,3.1
				c0.4,0.9,1,1.6,1.4,2.5c1.2,2.9-1.1,6.2-3.3,7.6c-2,1.3-4.2,2.1-6.5,2.4c-1.5,0.2-3.3,0.2-4.4,1.8c-1.9,2.8,0.3,7.3-0.1,11.1
				c-0.3,2.4-1.5,4.3-2.8,5.9c-2.4,3.1-5,5.8-7.8,8.2c-2.3,1.9-4.7,3.7-6.7,6.1c-2,2.4-3.6,5.6-3.8,9.2"/>
			<path class="st6" d="M248.1,148.5c0.6-3.9,2-7.5,3.3-11.1c2.1-5.5,4.2-11.2,7.4-15.7c2.4-3.5,5.3-6.2,7.8-9.6
				c1.7-2.4,3.2-5.2,4.4-8.2c0.6-1.6,1.2-3.3,2-4.7c1-1.7,2.4-2.9,3.6-4.3c1.6-2,2.9-4.4,3.8-7.1"/>
		</g>
		<g>
			<path class="st3" d="M295.8,161.9c-0.8,4.2-2,8.4-4.1,11.8c-1.5,2.3-3.3,4.1-5.2,5.6c-1,0.8-2.1,1.5-3.2,2.1
				c-4.2,2.3-8.7,3.7-13.2,3.9c-6.6,0.3-13.4-1.6-19.7,0.9c-2.9,1.2-5.6,3.3-7.8,6c-1.4,1.7-2.6,3.7-3.5,5.9l0.9-7.3
				c1.6-7.9,3.2-15.9,6.5-22.8c2.1-4.5,4.8-8.4,7.8-12c4.6-5.7,9.8-10.8,15.5-14.5c4.6-3,9.7-5.1,14.8-4.3
				c5.1,0.8,10.1,5.1,11.7,11.6C297.1,153.1,296.6,157.7,295.8,161.9z"/>
			<path class="st4" d="M244.2,185.3c4.9-9.6,12.1-17,20.4-20.6c5.1-2.3,10.5-3.2,15.7-5.2c5.2-2,10.4-5.4,13.4-11.4"/>
		</g>
		<g>
			<path class="st8" d="M247.4,255.6c0.3-9.9,4.1-19,8.7-26.6c3.9-6.4,8.5-12.3,14.3-15.2c1.8-0.9,3.8-1.5,5.7-0.9
				c1.9,0.6,3.6,2.8,3.6,5.3c0,2.2-1.1,4.1-2.2,5.6c-3.8,5.1-8.7,8.3-13.3,12c-7.9,6.4-15.4,14.9-18.5,26.4"/>
			<path class="st6" d="M250.3,247c4.8-14.3,17.3-27.2,25.5-28.8"/>
		</g>
		<g>
			<path class="st5" d="M244.4,263.5c-0.1-1.7,4-6,4.9-7.1c5-6.1,11-10.6,17.3-13.2c2.6-1.1,5.3-1.9,7.8-1c2.6,0.8,4.9,3.6,5.2,7.3
				c0.2,3.6-1.6,7.1-3.8,8.8c-2.3,1.7-5,2-7.5,1.8c-3.9-0.3-7.8-1.6-11.8-1.6S246.9,259.1,244.4,263.5z"/>
			<path class="st6" d="M248.5,258.5c8.1-5.9,20.3-9.7,29.2-8.2"/>
		</g>
		<g>
			<path class="st9" d="M147.3,90.6c-0.2,1.7-0.6,3.3-1.1,4.9c-2.8-8-5.3-18.6-5.9-31.5c-0.2-3.5,0.6-7.1,2-10.1
				c0.1,0.2,0.3,0.4,0.4,0.6c2,3.7,3,8.1,3.8,12.5C147.7,74.8,148.3,82.8,147.3,90.6z"/>
			<path class="st10" d="M175.3,90.1c6-2.9,12.3-5.2,17.8-9.6c1.7-1.3,3.3-2.9,4.4-5c1.2-2.1,1.9-4.7,1.6-7.3
				c-0.3-2.6-1.5-5.1-1.1-7.7c0.3-1.7,1.2-3,2-4.5c1.7-3.4,2.3-7.9,1.4-11.9c-0.9-4.3-3.3-7.7-4.7-11.7c-1.1-3.3-1.5-7-1.1-10.6
				c-5.1,0.1-9.7,3.8-14.7,5c-3.8,0.9-7.8,0.4-11.6,1.6c-6.9,2.1-12.5,10.2-13.6,19.6c-3.2-0.7-6.6,0.8-8.9,4
				c-2.4,3.4-3.7,8.1-3.5,12.7c1.6,33.4,15.9,50.9,15.9,50.9S173,91.2,175.3,90.1z"/>
			<g>
				<path class="st6" d="M161.8,89.9c-0.6-8.2,1.5-16.4,4-24c2.4-7.4,5.2-14.7,8.9-21c3.7-6.4,8.5-11.8,14.1-14.9"/>
				<path class="st6" d="M167.2,35c-0.6,7.4-0.2,16.2,1.2,23.4"/>
				<path class="st6" d="M169.5,55.7c6.3-5.4,16-8.7,23.4-8.1"/>
				<path class="st6" d="M154.1,57.1c7.6,4.3,7.9,19.1,8.1,23.4"/>
				<path class="st6" d="M164.2,71c5.8-5.5,14.2-7.2,20.3-5.1"/>
				<path class="st6" d="M180,31.2c-1.7,2.9-2.2,6.3-2,8.6"/>
				<path class="st6" d="M179.7,37.7c2.7-1.8,6.2-2.2,10.1-1"/>
			</g>
		</g>
		<g>
			<path class="st11" d="M30.8,53.9c0.7-0.1,5.6-4.9,7.4-6.5c0.5-0.5,1.1-0.9,1.4-1.6c0.4-0.7,0.5-1.6,0.3-2.4
				c-0.3-0.9-0.9-1.9-2.3-1.9c-2.4,0-3.3,1.1-4.4,2.7C29.3,49.7,30.8,53.9,30.8,53.9z"/>
			<path class="st11" d="M52.5,73.3c2.1,1.3,4.4,2.5,6.7,2.1c0.9-0.2,1.9-0.7,2.2-1.8c0.3-1-0.1-2.1-0.7-2.8c-0.6-0.7-1.3-1-2.1-1.3
				c-2.8-0.9-6.8-0.4-9.5,0.6C49,70.2,51.2,72.5,52.5,73.3z"/>
			<path class="st11" d="M66.4,31.6c-0.9-0.8-2-1.9-2-3.3c0-1.5,1.2-2.6,2.3-2.6c1.1,0,2.2,0.8,3,1.8c3.6,4.2,3.1,8.9,3.1,8.9
				S67.5,32.5,66.4,31.6z"/>
			<path class="st11" d="M69.2,18.9c-0.8-0.5-1.7-1-2.2-2.1c-0.2-0.5-0.4-1.1-0.2-1.7c0.2-0.9,0.7-1.8,2.4-1.3
				c5.5,1.3,6.7,6.4,6.7,6.4S70.7,19.7,69.2,18.9z"/>
			<path class="st11" d="M85.4,30c2.2-0.3,4.5-1.7,5.9-4c0.5-0.9,1-1.8,1.2-2.9c0.2-1.1,0-2.4-0.6-3.1c-0.8-0.9-2-0.7-2.9,0
				c-0.9,0.8-1.4,2-1.8,3.2C86.5,24.9,85.4,30,85.4,30z"/>
			<path class="st4" d="M45.9,137.9c-5.4-6.3-10.7-12.6-16.1-18.9c-2.9-3.4-5.8-6.8-7.6-11.3c-3.9-9.6-1.6-22.1,3.6-30.5
				c5.3-8.4,12.9-13.3,20.7-16.9c7.7-3.6,15.8-6.1,23.1-10.9c4.6-3,9.3-7.4,10.5-14.1c0.8-4,0.1-8.4-1.7-11.8
				c-1.8-3.3-4.8-5.5-7.9-5.7"/>
			<path class="st4" d="M89.1,23.2c-1.5,6-7.2,9.7-9.8,14.9"/>
			<path class="st4" d="M68.7,30.1c1.1,1.6,2.5,2.9,3.4,4.6c2.1,3.7,2.2,9.7-0.8,13.4"/>
			<path class="st4" d="M39.8,63.7c4.7,4.9,10.9,8.1,16.9,8.4"/>
			<path class="st4" d="M29,72.6c-2.2-8.6,0.2-18.8,5.6-24.3"/>
		</g>
		<g>
			<path class="st11" d="M201.8,36.4c-0.3-1.1-0.2-2.4,0.3-3.2c0.5-0.6,1.2-0.9,1.9-0.6c4.7,2.8,4.2,12.6,4.2,12.6
				S203.7,44.3,201.8,36.4z"/>
			<path class="st11" d="M201.7,54.7c-3,7.3,7.8,6.8,11.7,2.5C213.4,57.2,204.3,48.4,201.7,54.7z"/>
			<path class="st11" d="M215.4,36.9c-0.7-1.3-1-3.3-0.2-4.6c0.6-0.9,1.6-1.2,2.5-1c0.9,0.2,2.3,1.4,2.9,2.3
				c3.6,5.9,1.9,11.7,1.9,11.7S216.6,39.1,215.4,36.9z"/>
			<path class="st11" d="M258.3,55.1c-0.3-1.1-0.2-2.5,0.5-3.3c0.4-0.5,1-0.7,1.6-0.6c0.6,0.1,1.1,0.3,1.6,0.6
				c1.1,0.7,2,1.8,2.5,3.3c1.3,3.7,0.4,8.2,0.4,8.2S258.9,57.9,258.3,55.1z"/>
			<path class="st11" d="M244.8,68.6c-1.9-2.2-4.8-2.9-7.2-1.5c-0.6,0.3-1.2,0.8-1.5,1.5c-0.9,1.6-0.6,3.9,0.3,5.4
				c0.9,1.5,2.2,2.5,3.6,3.3c2.4,1.5,6.1,1.8,8.7,2.6C248.7,79.9,248.7,73.1,244.8,68.6z"/>
			<path class="st4" d="M205.2,37.9c1.6,7,6.1,12.2,11.1,15c5,2.8,10.5,3.6,16,4.1c5.4,0.5,10.9,0.7,16.2,2.6
				c5.1,1.9,10.2,5.7,12.4,12.2c2.7,7.8,0.3,17.2-3.4,24.3c-3.8,7-8.8,12.7-12.4,19.8c-1.7,3.3-3.1,7.1-2.7,11
				c0.4,5.2,3.8,9.1,6.8,12.4"/>
			<path class="st4" d="M217.7,35.4c3.6,5.3,6.5,13.6,7.2,20.7"/>
			<path class="st4" d="M205.6,55.9c2.1,0.7,4.1,1.5,6.3,1.5c2.1,0,4.6-1.6,6.1-3.5"/>
			<path class="st4" d="M261.8,55.5c1.9,2.5,3.1,6,3.2,9.6c0.1,3.6-1.4,7.9-3.2,10.6"/>
			<path class="st4" d="M241.6,71.8c3.9,4.7,7.2,8.6,11.5,12.6c2,1.8,5.8,4.2,7.6,3.6"/>
		</g>
		<g>
			<path class="st9" d="M286.4,179.4c-1,0.8-2.1,1.5-3.2,2.1c-4.2,2.3-8.7,3.7-13.2,3.9c-6.6,0.3-13.4-1.6-19.7,0.9
				c-2.9,1.2-5.6,3.3-7.8,6c-0.2,0.1-0.4,0.3-0.7,0.5c-0.5-6,10.6-13.8,14-15.8c6.1-3.7,12.9-5.3,19.6-4.6c2.9,0.3,5.9,1.1,8.3,3.3
				C284.9,176.6,285.8,177.9,286.4,179.4z"/>
			<path class="st8" d="M275.5,175.9c2.9,0.3,5.9,1.1,8.3,3.3c2.4,2.2,4.1,6.2,3.6,10.1c-0.7,4.5-4.1,7.4-7.5,8
				c-3.4,0.6-6.8-0.7-10.1-1.6c-7.4-2-15.1-2.5-22.6-1.4c-1.9,0.3-3.7,0.8-5.3,2.1c-0.5-6,10.6-13.8,14-15.8
				C262,176.9,268.8,175.2,275.5,175.9z"/>
			<path class="st6" d="M244.7,192.5c5.5-6.5,19.8-10.9,29.8-9.5c3,0.4,6.1,1.6,8.4,4.3"/>
		</g>
	</g>
	<path class="st12" d="M234.4,119.5l54.1-0.1c6.3,0,11.5,6.8,11.5,15.3v0c0,8.5-5.1,15.4-11.5,15.4l-37,0.1"/>
	<path class="st12" d="M70.7,172.5l-37.8,0.1c-3.6,0-6.5,3.9-6.5,8.7l0,0c0,4.8,2.9,8.7,6.5,8.6l11,0"/>
	<g>
		<path class="st13" d="M10.3,211.7c-13,0-13.2,25.9,3.3,25.8c16.5,0,232.8-0.6,243-0.7c10.2,0,11.3-21.3-1.3-21.3
			c-25.1,0.1-25.9-15.9-12-16"/>
		<path class="st3" d="M13.3,210.9c0.3,2.3-0.9,4.5-2.6,4.9c-1.7,0.4-3.4-1.2-3.7-3.5c-0.3-2.3,0.9-4.5,2.6-4.9
			C11.4,207.1,13,208.6,13.3,210.9z"/>
		<path class="st14" d="M249.5,199.7c0.3,2.3-0.9,4.5-2.6,4.9c-1.7,0.4-3.4-1.2-3.7-3.5c-0.3-2.3,0.9-4.5,2.6-4.9
			C247.5,195.8,249.2,197.4,249.5,199.7z"/>
	</g>
	<g>
		<path class="st9" d="M253,274.4l-201.2,0.6c-2.7,0-4.9-2.9-4.9-6.5L46.6,90.4c0-3.6,2.2-6.5,4.9-6.5l201.2-0.6
			c2.7,0,4.9,2.9,4.9,6.5l0.3,178.1C257.8,271.5,255.7,274.4,253,274.4z"/>
		<g>
			<path class="st15" d="M249,271l-201.2,0.6c-2.7,0-4.9-2.9-4.9-6.5L42.6,87c0-3.6,2.2-6.5,4.9-6.5l201.2-0.6
				c2.7,0,4.9,2.9,4.9,6.5l0.3,178.1C253.9,268.1,251.7,271,249,271z"/>
			<path class="st7" d="M248.4,79.9L48,80.5c-2.9,0-5.3,3.2-5.3,7.1l0,6.1l211-0.6l0-6.1C253.7,83.1,251.3,79.9,248.4,79.9z"/>
			<path class="st0" d="M48.3,271.5l30.3-0.1L78.3,93.6l-35.6,0.1L43,264.5C43,268.4,45.4,271.5,48.3,271.5z"/>
			<g>
				<path class="st7" d="M248.8,81.9c1.5,0,2.9,2.1,2.9,4.5l0.3,178.1c0,2.4-1.3,4.5-2.9,4.5l-201.2,0.6c-1.5,0-2.9-2.1-2.9-4.5
					L44.7,87c0-2.4,1.3-4.5,2.9-4.5L248.8,81.9L248.8,81.9 M248.8,79.9C248.8,79.9,248.8,79.9,248.8,79.9L47.5,80.5
					c-2.7,0-4.9,2.9-4.9,6.5L43,265.1c0,3.6,2.2,6.5,4.9,6.5c0,0,0,0,0,0l201.2-0.6c2.7,0,4.9-2.9,4.9-6.5l-0.3-178.1
					C253.7,82.8,251.5,79.9,248.8,79.9L248.8,79.9z"/>
			</g>
			<path class="st15" d="M73.1,257.9L50.5,258c-1.2,0-2.3-1.2-2.3-2.6l0,0c0-1.5,1-2.6,2.2-2.6l22.6-0.1c1.2,0,2.3,1.2,2.3,2.6v0
				C75.3,256.7,74.3,257.9,73.1,257.9z"/>
			<path class="st15" d="M69.9,137.3l-18.5,0.1c-2.3,0-4.1-2.2-4.1-4.8l0-26c0-2.7,1.8-4.8,4.1-4.9l18.5-0.1c2.3,0,4.1,2.2,4.1,4.8
				l0,26C74.1,135.1,72.2,137.3,69.9,137.3z"/>
			<path class="st0" d="M155.2,216.8L87,216.9c-1.6,0-2.9-1.5-2.9-3.4l0,0c0-1.9,1.3-3.5,2.9-3.5l68.2-0.2c1.6,0,2.9,1.5,2.9,3.4
				l0,0C158.1,215.2,156.8,216.8,155.2,216.8z"/>
			<path class="st0" d="M151.2,111.4l-53.7,0.1c-1.6,0-2.9-1.5-2.9-3.4v0c0-1.9,1.3-3.5,2.9-3.5l53.7-0.1c1.6,0,2.9,1.5,2.9,3.4v0
				C154.1,109.9,152.8,111.4,151.2,111.4z"/>
			<path class="st0" d="M237.6,185.3l-71.9,0.2c-1.6,0-2.9-1.5-2.9-3.4v0c0-1.9,1.3-3.5,2.9-3.5l71.9-0.2c1.6,0,2.9,1.5,2.9,3.4v0
				C240.6,183.8,239.3,185.3,237.6,185.3z"/>
			<path class="st0" d="M155.2,231L87,231.2c-1.6,0-2.9-1.5-2.9-3.4l0,0c0-1.9,1.3-3.5,2.9-3.5l68.2-0.2c1.6,0,2.9,1.5,2.9,3.4v0
				C158.1,229.5,156.8,231,155.2,231z"/>
			<path class="st0" d="M155.2,245.3L87,245.5c-1.6,0-2.9-1.5-2.9-3.4v0c0-1.9,1.3-3.5,2.9-3.5l68.2-0.2c1.6,0,2.9,1.5,2.9,3.4v0
				C158.2,243.8,156.8,245.3,155.2,245.3z"/>
			<path class="st0" d="M235.8,254.6l-68.1,0.2c-2.7,0-4.9-2.5-4.9-5.7l-0.1-39.4c0-3.1,2.2-5.7,4.8-5.7l68.1-0.2
				c2.7,0,4.9,2.5,4.9,5.7l0.1,39.4C240.7,252.1,238.5,254.6,235.8,254.6z"/>
			<ellipse transform="matrix(1 -2.751180e-03 2.751180e-03 1 -0.239 0.1451)" class="st0" cx="52.6" cy="86.9" rx="1.7" ry="2.3"/>
			<ellipse transform="matrix(1 -2.751180e-03 2.751180e-03 1 -0.2389 0.165)" class="st0" cx="59.8" cy="86.9" rx="1.7" ry="2.3"/>
			
				<ellipse transform="matrix(1 -2.751180e-03 2.751180e-03 1 -0.2388 0.1848)" class="st0" cx="67.1" cy="86.9" rx="1.7" ry="2.3"/>
			<path class="st0" d="M91.9,108.1c0,3.6-2.2,6.6-4.9,6.6c-2.7,0-4.9-2.9-4.9-6.6c0-3.6,2.2-6.6,4.9-6.6
				C89.7,101.6,91.9,104.5,91.9,108.1z"/>
			<path class="st15" d="M71.8,142.8l-21.5,0.1c-0.6,0-1.1-0.6-1.1-1.3v0c0-0.7,0.5-1.3,1.1-1.3l21.5-0.1c0.6,0,1.1,0.6,1.1,1.3v0
				C72.9,142.3,72.4,142.8,71.8,142.8z"/>
			<path class="st15" d="M71.8,148.4l-21.5,0.1c-0.6,0-1.1-0.6-1.1-1.3v0c0-0.7,0.5-1.3,1.1-1.3l21.5-0.1c0.6,0,1.1,0.6,1.1,1.3v0
				C73,147.8,72.5,148.4,71.8,148.4z"/>
			<path class="st0" d="M97,160.2l-6.2,0.1l0,34.6l-5.3,0c-1.9,0-3.4-2-3.4-4.5l-0.1-63.9c0-2.5,1.5-4.6,3.4-4.6l11.5,0L97,160.2z"
				/>
			<g>
				<path class="st0" d="M136.3,121.7v1c2.1,0,3.8,2.1,3.9,4.7l0.1,61.6c0,2.6-1.7,4.7-3.8,4.7L87,193.8c-2.1,0-3.8-2.1-3.9-4.7
					l-0.1-61.6c0-2.6,1.7-4.7,3.8-4.7l49.3-0.1L136.3,121.7 M136.3,121.7C136.3,121.7,136.3,121.7,136.3,121.7l-49.4,0.1
					c-2.7,0-4.8,2.6-4.8,5.7l0.1,61.6c0,3.1,2.2,5.7,4.9,5.7c0,0,0,0,0,0l49.3-0.1c2.7,0,4.8-2.6,4.8-5.7l-0.1-61.6
					C141.1,124.2,138.9,121.6,136.3,121.7L136.3,121.7z"/>
			</g>
		</g>
		<path class="st0" d="M222.3,172.9l-68-20.5c-2.2-0.7-3.5-3.5-3-6.4l7.7-45.2c0.5-2.9,2.6-4.7,4.8-4.1l68,20.5
			c2.2,0.7,3.5,3.5,3,6.4l-7.7,45.2C226.6,171.8,224.4,173.6,222.3,172.9z"/>
		<g>
			<polygon class="st7" points="90.6,296 81.1,296 78.7,279.8 92.9,279.7 			"/>
			<path class="st0" d="M81.4,279.8c0,1.3-0.2,3.5,0.5,3.6c0.7,0,0.4-2.1,1.1-2c0.5,0-0.2,7,1.6,7.2c1.2,0.1,1-3.4,1.1-5.7
				c0.1-1.5,1.5-1.2,1.5-0.2c0,1.1,0,1.9,0,3.1c0.1,2.1,2.5,1.6,2.4-1.3s0-4.7,0-4.7L81.4,279.8z"/>
			<g>
				<path class="st16" d="M79.1,289.6c-0.2,0-0.4,0-0.6-0.1c-0.7-0.2-1.2-0.7-1.5-1.5c-1-2.7,1.6-7.9,1.7-8.1l0.1,0.9
					c0,0.1-2.2,4.5-1.4,6.9c0.2,0.6,0.6,1,1.1,1.1c0.2,0,0.3,0.1,0.5,0.1c3.4,0,9.3-8.5,9.4-8.6c0.2-0.4,0.7,0,0.5,0.3
					C88.7,281,82.8,289.5,79.1,289.6z"/>
			</g>
		</g>
		<g>
			<path class="st9" d="M179.1,68c-13.5-0.7-32.2,12.7-25.5,45.4c-0.1,2.8,1.1,4.7,2.4,4.2c1.3-0.5,0.2-5.8,0.2-5.8
				c2.3-24.3,6.5-28.5,13.6-28.4l16.8,0c4.1,0.8,11.7,4.7,12.8,24.1l4.2,1C203.9,94.4,201.3,69.1,179.1,68z"/>
			<path class="st17" d="M179.1,65.2c-13.5-0.7-32.2,12.7-25.5,45.4l2.6-1.6c2.3-24.3,6.5-28.5,13.6-28.4l16.8,0
				c4.1,0.8,11.9,5.7,13,25.2l4,0C203.9,91.6,201.3,66.3,179.1,65.2z"/>
			<path class="st18" d="M176.4,65.7l-2,5.9c0,0,0.2,3.3,2.7,3.3c2.4-0.1,2.8-1.6,2.8-1.6l0.3-6.8L176.4,65.7z"/>
			<path class="st18" d="M186.7,60.8c-2.3,5.4-3.3,7.1-6.3,7.9c-3.9,1.1-8.2-2.4-6.2-11.1c1.6-7,4.1-5.9,6.6-5.7
				C183.2,52.2,189.2,54.9,186.7,60.8z"/>
			<path class="st16" d="M177.6,56.5c-0.6-0.4-1.4-0.1-1.9,0.6c-0.5,0.7-0.7,1.7-0.5,2.6c-0.9,0-1.8,1.2-1.7,2.5
				c-0.6-2-0.3-4.1-0.4-6.1c-0.1-2,0-4.3,1-5.8c0.4-0.6,0.9-1.1,1.5-1.5c2.1-1.5,4.8-1.5,6.9-0.1c0.4,0.3,1.6,1.2,3.1,0.7
				c3-1,4.7,1.7,2.9,4.2c0.6,0.3,1.2,0.6,1.5,1.3c0.1,0.2,0.1,0.4,0,0.6c-0.1,0.1-0.2,0.2-0.3,0.2c-0.5,0.2-1,0.3-1.6,0.2
				c0.2,0.2,1.3,0.3,1.6,1.2c0.9,2.3-2.6,1.1-3.1,0.9c0.6,0.2,2.2,1.9,1.7,3c-0.1,0.2-2.3,1.9-4.5-1.6c-0.5-0.8-1.2-1.6-2-1.8
				c-0.6-0.2-1.3,0.1-1.8,0.4c-0.4,0.2-1.5,1.1-1.9,0.6C177.8,57.9,178.3,57,177.6,56.5z"/>
			<path class="st18" d="M200,105.7c-0.6,2.8-1.2,3-0.5,3.5c0.7,0.4,1.3-1.1,1.3-1.1l3.4,0.9c0,0-0.8-2.9-1.3-3.3
				C202.4,105.3,200,105.7,200,105.7z"/>
			<path class="st18" d="M156.2,108.9c0.4,1.5,0.6,1.5,1.2,3.2c1.2,3.3-1.6,8.6-3.3,2.9c-0.5-1.6-0.5-4.5-0.5-4.5L156.2,108.9z"/>
		</g>
		<g>
			<g>
				<path class="st16" d="M182.4,49.1c2.4,0.2,5.1-1.8,6.8,0.7c0.2,0.4,0.8,0.1,0.6-0.3c-1.5-3.2-4.8-0.9-7.4-0.9
					C182,48.5,182,49.1,182.4,49.1L182.4,49.1z"/>
				<path class="st16" d="M183.3,47.3c-1.6,0.4-3.2-0.7-4.8-0.3c-1.3,0.3-2.5,1.2-3.3,2.3c-0.4,0.4,0.2,1,0.6,0.6
					c1.4-1.2,2.6-2.2,4.5-1.9c1.1,0.2,2,0.5,3.1,0C183.9,47.9,183.7,47.2,183.3,47.3L183.3,47.3z"/>
				<path class="st16" d="M174.3,50.3c-1.4,1.2-1.9,2.6-1.9,4.4c0,1.2-0.1,3.6,0.9,4.4c0.3,0.2,0.7-0.2,0.5-0.5
					c-0.7-1-0.6-2.7-0.6-3.9c0-1.6,0.4-2.9,1.5-4.1C174.8,50.4,174.5,50.1,174.3,50.3L174.3,50.3z"/>
				<path class="st16" d="M191.4,55.3c-0.5-1.2-2.1-2.7-3.3-1.7c-0.2,0.2,0,0.5,0.2,0.5c0.5,0,1-0.1,1.4,0.2
					c0.5,0.3,0.9,0.7,1.2,1.2C191.1,55.8,191.6,55.6,191.4,55.3L191.4,55.3z"/>
			</g>
		</g>
		<g>
			<path class="st14" d="M116.9,191.6c7.1,3.5,13.3,14.4,11.8,22.3c-1.6,8.9-6.2,12.8-6.2,12.8l-1.5-3.6c0,0,3.7-7.7,3.4-11.3
				c-0.5-5.8-6-9.7-6-9.7L116.9,191.6z"/>
			<path class="st16" d="M99.4,292.3c0,0-4.4,2.4-5.4,3.7l8.6,0l0-3.7L99.4,292.3z"/>
			<path class="st16" d="M118.5,292c0,0,1.2,1.9,1.5,3.8l-5.9,0c0.1-1.3,0.5-2.6,1.1-3.8L118.5,292z"/>
			<path class="st19" d="M118.9,292.2l-4,0c0.1-6.3-0.9-27.9-1.8-44c-0.6-9.5-1.1-17-1.4-18.6l2.2-0.6l8.1-2.4
				C123.3,235.1,120.1,274.1,118.9,292.2z"/>
			<path class="st20" d="M104.1,229.3c-3.1,6.6-3.9,54.3-5.3,63.1l3.8,0.3c0,0,4.4-30.1,13.7-63.8L104.1,229.3z"/>
			<path class="st9" d="M118,228.8c-1.8,6.7-3.5,13.2-4.9,19.4c-0.6-9.5-1.1-17-1.4-18.6l2.2-0.6L118,228.8z"/>
			<path class="st20" d="M104.1,229.3c-3.1,6.6-3.9,54.3-5.3,63.1l3.8,0.3c0,0,4.4-30.1,13.7-63.8L104.1,229.3z"/>
			<path class="st18" d="M106.5,176.1c0,0-2.4,12.4,3.7,12.4l-0.4,3.2l4.6,0.7l-1-4.4c0,0,0.9-7.8,1-9.2
				C114.5,176.1,109,171.4,106.5,176.1z"/>
			<g>
				<polygon class="st16" points="91.4,172.3 89.6,172.3 89.6,162.2 91.4,162.2 				"/>
				<path class="st7" d="M95.4,162.1l-9.8,0c-0.9,0-1.6-0.8-1.6-1.8l0-0.1c0-1,0.7-1.9,1.6-1.9l9.8,0c0.9,0,1.6,0.8,1.6,1.8l0,0.1
					C97,161.3,96.3,162.1,95.4,162.1z"/>
			</g>
			<path class="st18" d="M89.1,174.9c0-2.3-1.5-1.7-0.7-5.4c0.5-2.3,4.1,0.4,3.6,2c-0.4,1.6-1,4.2-1,4.2L89.1,174.9z"/>
			<path class="st7" d="M110.2,190.9c-9.1,0.8-9.7,4.9-13.8,4.3c-6-1-5-15.9-4.2-21.3l-3.6,0c0,0-6.5,34.1,14,27.8
				c-0.8,6,4.3,15.7-0.6,27.6c7.8,2.8,15.1,3.5,21.3-0.1c-1.1-2,2.2-21.8-4.3-36.1C117.7,190.4,110.9,190.9,110.2,190.9z"/>
			<path class="st7" d="M110.2,190.9c-9.1,0.8-9.7,4.9-13.8,4.3c-6-1-5-15.9-4.2-21.3l-3.6,0c0,0-6.5,34.1,14,27.8
				c-0.8,6,4.3,15.7-0.6,27.6c7.8,2.8,15.1,3.5,21.3-0.1c-1.1-2,2.2-21.8-4.3-36.1C117.7,190.4,110.9,190.9,110.2,190.9z"/>
			<path class="st17" d="M108.9,178.5c0.6,0.2,1.3,0.4,1.6,1c0.2,0.4,0.2,1,0.2,1.5c0.1-0.5,0.6-0.9,1-0.9c0.4,0.1,0.8,0.6,0.8,1.1
				c0,0.3-0.1,0.5-0.1,0.8c-0.2,0.6-0.4,1.2-0.7,1.7c0.7,0.4,1.4,3.3,1.7,4.2c1.3-0.4,4-1.9,4.3-7.8c0.1-2.8-0.5-6.1-2.8-7.9
				c-1.6-1.3-4.2-1.3-6-0.7c-1.5,0.5-3.8,2.5-2.7,4.8C106.8,177.4,108,178.1,108.9,178.5z"/>
			<path class="st17" d="M116.7,174.7c0.8-0.4,1.9-0.2,2.4,0.8c0.4,0.7,0.4,1.7,0.5,2.6c0.1,0.4,0.2,0.9,0.4,1.2
				c0.3,0.4,0.7,0.4,1.1,0.5c1,0.1,2-0.1,2.9,0.1c1,0.2,2,0.9,2.2,2.2c0.2,0.7,0.1,1.4,0.3,2.1c0.3,1,1.1,1.5,1.7,2.1
				c1.5,1.2,2.7,2.9,3.6,4.8c0.6,1.2,1,2.5,1.1,3.9c0.1,1.4,0.8,3.3,0.6,4.6c-0.2,1.5-1.3,3.5-3.5,4.4c-3.7,1.6-4.9,2.3-8.5-0.5
				c-0.4-0.3-1.3-1.5-1.7-1.9c-0.3-0.3-0.5-0.8-0.6-1.3c-0.3-1.4,0-2.9,0.6-4.1s1.3-2.4,1.8-3.6c0.3-0.7,0.6-1.6,0.6-2.4
				c0-0.3-0.1-0.7-0.2-0.9c-0.2-0.2-0.4-0.3-0.6-0.3c-0.8-0.2-1.7,0-2.4-0.5c-0.7-0.5-1.1-1.6-0.9-2.5c0.1-0.6,0.5-1.2,0.6-1.8
				c0.1-0.9-0.3-1.9-0.9-2.5c-0.6-0.6-1.4-0.8-2.1-0.9c-0.4-0.1-0.7-0.2-1-0.4c-0.4-0.4-0.5-1-0.5-1.5
				C114.3,176.7,115.4,175.3,116.7,174.7z"/>
		</g>
		<g>
			<g>
				<path class="st17" d="M116.1,179.7c3.6,1.1,0.8,5.2,0.5,7.2c-0.1,0.9,0,1.9,0.7,2.6c0.6,0.6,1.1,0.5,1.9,0.7
					c3.6,1,1.8,2.9,1.5,5.5c0,0.4,0.6,0.4,0.6,0.1c0.3-1.5,1.5-3.8,0.6-5.3c-0.2-0.3-0.4-0.6-0.7-0.7c-0.2-0.1-0.5-0.2-0.7-0.2
					c-1.3-0.3-1,0.3-2.3-0.9c-1-1-1.1-1.2-0.7-2.5c0.2-0.6,0.5-1.2,0.7-1.8c0.2-0.8,0.4-1.6,0.2-2.4c-0.2-1.2-1-2.1-2.2-2.4
					C115.9,179.3,115.8,179.6,116.1,179.7L116.1,179.7z"/>
			</g>
		</g>
		<g>
			<g>
				<path class="st17" d="M106.8,172.3c3.7-2.4,6.9-1.6,9.8,1.6c0.2,0.3,0.7-0.1,0.5-0.4c-2.3-3.7-7.3-4.8-10.4-1.4
					C106.5,172.2,106.7,172.4,106.8,172.3L106.8,172.3z"/>
			</g>
		</g>
		<g>
			<polygon class="st18" points="223.6,186.9 222.1,190.9 225.8,192.9 226.2,188.3 			"/>
			<path class="st18" d="M225.8,173.7c-8.4,4.9-4.9,16.6,0.2,15.2c2.5-0.7,3.7-11.3,3.7-11.3L225.8,173.7z"/>
			<path class="st11" d="M228.6,172c-0.3-0.7-0.5-1.4-1-1.9c-0.5-0.5-1.2-0.6-1.6-0.1c-0.6,0.7-0.2,2,0.3,2.7
				c-0.5,0.1-1.1-0.4-1.4,0.1c-0.3,0.3-0.2,0.9,0,1.4c0.4,1.1,1,2,1.7,2.6c-0.4,0.3-0.9,0.9-0.7,1.5c0.1,0.2,0.2,0.3,0.3,0.4
				c0.2,0.4,0,0.8-0.2,1.2c-0.3,0.6-0.5,1.1-0.9,1.7c0.3-0.5,1-0.3,1.2,0.3c0.2,0.6,0,1.3-0.3,1.8c-0.2,0.3-0.4,0.5-0.7,0.6
				c-0.2,0.1-1.2,4.3-0.5,5.1c1,1,4.3,0.1,4.8-1c0.5,0.7,1.2,1.2,1.9,1s1.2-1.3,0.9-2.1c0.8,0.4,1.7,0,2.2-0.8
				c0.5-0.8,0.6-2.1,0.2-3c0.4-0.2,0.5-0.9,0.4-1.5c-0.2-1.1-0.9-2.1-1.7-2.4c0.4,0,0.8-0.6,0.8-1.1c0-0.6-0.2-1.1-0.5-1.5
				c-0.8-1.3-1.7-1.6-2.9-1.8C229.8,174.9,229.1,173.3,228.6,172z"/>
			<path class="st16" d="M220.8,291.5c0,0-4.9,3.1-5.5,4.1c0,0,9.6,0.6,10.4,0c0.8-0.6-1.5-4.1-1.5-4.1L220.8,291.5z"/>
			<path class="st16" d="M239,288c0,0-4.3,4.4-4.8,5.6c0,0,10.1-2,10.1-2.9c0-0.9-2.1-3.6-2.1-3.6L239,288z"/>
			<path class="st21" d="M225.5,231c-0.2,1.3-6.9,36.6,12.3,57.8l5.5-1.7c0,0-6.5-8.1-9.5-22.6c-2.9-13.8-0.6-15.1,1.1-22.7
				c1.9-8.4,0.5-14.5,0.5-14.5L225.5,231z"/>
			<path class="st17" d="M216.3,230.8c-3,9.7-8.2,42.7,3.1,61.3l5.7,0c0,0-4.5-6.5-5-21.7s2.4-21.8,4.4-26.8c2-5,3.9-13.5,3.9-13.5
				L216.3,230.8z"/>
			<path class="st14" d="M212.3,170.8c-1.5,7.1-2,20.2,5.5,25.5l5.1-1.6c0,0-9.1-6.4-7.2-22.5L212.3,170.8z"/>
			<path class="st7" d="M198.4,167.1l3.9-0.6c0,0-0.5,22,18.5,23.9c14.5,1.4,15.7,37.8,15.7,37.8c-4.7,4.2-12.5,5.5-22.6,4.5
				c0,0,0.6-26-1-33.1C213,199.6,197.2,193,198.4,167.1z"/>
			<path class="st18" d="M193.6,163.1c-0.7,1,2.1,2.3,4.8,4l3.4-0.6c0,0,0-0.9,0-1.9c0-1-0.4-1.5-0.8-0.7c-0.4,0.8-2.1,1.1-3,0.4
				C197.3,163.6,194.3,162.1,193.6,163.1z"/>
			<path class="st18" d="M212.3,170.8c-1.3-1.7-0.9-1.6-0.9-1.6l3.8,1.2c0,0,0.8-2.5,1.6-2.6c0.7-0.1-0.5,1.7-0.3,2.4
				c0.3,0.7-0.8,1.9-0.8,1.9L212.3,170.8z"/>
		</g>
		<g>
			<g>
				<path class="st11" d="M230.7,174.5c0.9,0.3,1.8,0.5,2.4,1.3c0.5,0.8,0.6,1.8,0.3,2.6c-0.2,0.5,0.5,1,0.8,0.5
					c1.3-2.3-0.7-5.3-3.3-5C230.5,174,230.4,174.4,230.7,174.5L230.7,174.5z"/>
			</g>
		</g>
		<g>
			<g>
				<path class="st11" d="M234.1,184c1.5,1.2,0.5,2.7-0.6,3.7c-0.3,0.3,0.1,0.7,0.4,0.5c0.8-0.6,1.5-1.3,1.7-2.3
					c0.1-1-0.3-1.8-1.1-2.4C234.2,183.3,233.8,183.7,234.1,184L234.1,184z"/>
			</g>
		</g>
		<g>
			<g>
				<path class="st11" d="M225.4,189.3c1.8,1.6,4.6,1.2,6-0.9c0.2-0.4-0.3-0.7-0.6-0.4c-1.5,1.4-3.2,2-5.1,1
					C225.4,188.8,225.2,189.1,225.4,189.3L225.4,189.3z"/>
			</g>
		</g>
		<g>
			<g>
				<path class="st11" d="M234.4,176c1,1.3-0.1,3-0.7,4.2c-0.1,0.3,0.2,0.6,0.4,0.3c1-1.2,2.1-3.5,0.4-4.7
					C234.5,175.8,234.4,175.9,234.4,176L234.4,176z"/>
			</g>
		</g>
	</g>
	<g>
		<polygon class="st14" points="121.3,12.8 119.8,7.7 134.9,0 		"/>
		<polygon class="st3" points="122.1,9.6 134.9,0 126,12.1 		"/>
		<polygon class="st3" points="116.3,5.6 134.9,0 119.8,7.7 		"/>
		<polygon class="st7" points="122.1,9.6 121.3,12.8 123.6,10.6 		"/>
	</g>
	<path class="st13" d="M119.6,12.1c-4-0.9-9.3,4.4-7,10c0.8,1.9,4.8,1.1,4.5-1c-0.1-1-1.1-1.4-1.8-1.3c-4.4,0.7-4.6,5.6-4.4,6.9
		c1,6.5,8.5,4.3,11,3.4"/>
</g>
</svg>
